<svg xmlns="http://www.w3.org/2000/svg" xmlns:xlink="http://www.w3.org/1999/xlink" width="27" height="27" viewBox="0 0 27 27">
  <defs>
    <clipPath id="clip-path">
      <rect id="Rectangle_259" data-name="Rectangle 259" width="27" height="27" transform="translate(94 551)" fill="#1f1035" stroke="#707070" stroke-width="0"/>
    </clipPath>
  </defs>
  <g id="Mask_Group_42" data-name="Mask Group 42" transform="translate(-94 -551)" clip-path="url(#clip-path)">
    <path id="noun_add_1610828" d="M15.75,2.25a13.5,13.5,0,1,0,13.5,13.5A13.5,13.5,0,0,0,15.75,2.25Zm5.464,14.464h-4.5v4.5a.964.964,0,1,1-1.929,0v-4.5h-4.5a.964.964,0,1,1,0-1.929h4.5v-4.5a.964.964,0,1,1,1.929,0v4.5h4.5a.964.964,0,1,1,0,1.929Z" transform="translate(91.75 548.75)" fill="#1f1035"/>
  </g>
</svg>
