<svg xmlns="http://www.w3.org/2000/svg" viewBox="0 0 16 16">
  <title>help-ico</title>
  <circle cx="8" cy="8" r="8" style="fill: #1F1035"/>
  <g style="isolation: isolate">
    <g style="isolation: isolate">
      <path d="M7.65674,8.794a2.03241,2.03241,0,0,1,.36279-.56739q.2146-.23.56641-.5498a4.59511,4.59511,0,0,0,.64844-.665,1.10076,1.10076,0,0,0,.209-.67676,1.03561,1.03561,0,0,0-.418-.86328,1.83511,1.83511,0,0,0-1.1543-.32422,2.35455,2.35455,0,0,0-1.96923.86816l-.80274-.57128a3.01517,3.01517,0,0,1,1.18262-.91309,4.0768,4.0768,0,0,1,1.6665-.31934,3.13214,3.13214,0,0,1,1.90332.52247,1.69145,1.69145,0,0,1,.70313,1.43554,2.0013,2.0013,0,0,1-.14844.79785,2.081,2.081,0,0,1-.35742.57715c-.13867.1543-.32617.33789-.56055.54981a4.4853,4.4853,0,0,0-.666.71484,1.30238,1.30238,0,0,0-.21436.75977H7.50781A1.89532,1.89532,0,0,1,7.65674,8.794ZM7.55762,11.8623a.71689.71689,0,0,1,0-1.001.69217.69217,0,0,1,.51123-.20313.67583.67583,0,0,1,.50635.20313.69141.69141,0,0,1,.19775.501.69618.69618,0,0,1-.7041.70411A.69292.69292,0,0,1,7.55762,11.8623Z" style="fill: #fff"/>
    </g>
  </g>
</svg>
