<svg xmlns="http://www.w3.org/2000/svg" xmlns:xlink="http://www.w3.org/1999/xlink" viewBox="0 0 314.60351 133.70721">
  <defs>
    <style>
      .a, .c, .d, .i {
        fill: none;
      }

      .b {
        clip-path: url(#a);
      }

      .c {
        stroke: #1ab403;
        stroke-linecap: round;
      }

      .c, .i {
        stroke-width: 2px;
      }

      .d, .i {
        stroke: #000;
      }

      .d {
        stroke-width: 1.6px;
      }

      .e {
        fill: #8bb385;
      }

      .f {
        fill: #8bd97f;
      }

      .g {
        isolation: isolate;
      }

      .h {
        fill: #2b2b2b;
      }

      .j {
        fill: #fff;
      }
    </style>
    <clipPath id="a" transform="translate(-15.32968 -0.09101)">
      <rect class="a" y="25.519" width="108" height="108"/>
    </clipPath>
  </defs>
  <g>
    <g class="b">
      <g>
        <path d="M19.319,80.83021a.88623.88623,0,0,0,.428,1.72h0c.794-.194,2.259.734,3.4,2.831a1.856,1.856,0,0,0-.175,1.646c.3,1.057,1.17,1.936,1.929,1.876,1.666-.129.6-2.6.5-2.835C24.172,82.94921,21.765,80.22221,19.319,80.83021Z" transform="translate(-15.32968 -0.09101)"/>
        <path d="M40.812,99.70421a.7.7,0,1,0,.376-1.344c-1.915-.535-3.841,1.39-4.034,3.18a.7.7,0,0,0,1.385.156C38.646,100.73821,39.776,99.41421,40.812,99.70421Z" transform="translate(-15.32968 -0.09101)"/>
        <path d="M69.646,73.84621c-6.249.455-8.56,1.323-9.421,2.293a3.02794,3.02794,0,0,0-.543,1.928,1.527,1.527,0,0,0,1.831-.053,15.61205,15.61205,0,0,1,9.143-2.856,16.4,16.4,0,0,1,6.514,1.321,1.79085,1.79085,0,0,0,.643.152C76.52,73.75021,73.507,73.56521,69.646,73.84621Z" transform="translate(-15.32968 -0.09101)"/>
        <path d="M89.573,75.95821a5.274,5.274,0,0,0-3.737.251c4.577-13.444,4.99-27.289,1.559-34.291-5.514-13.072-19.521-16.692-33.404-16.679h-.142c-13.881-.014-27.887,3.607-33.4,16.68-3.426,6.991-3.022,20.795,1.534,34.22a5.174,5.174,0,0,0-3.554-.181c-2.884.945-3.466,4.449-2.91,7.672a16.86718,16.86718,0,0,0,1.694,4.911,33.42589,33.42589,0,0,0,3.215,5.193c1.843,2.306,3.729,3.3,6.018,2.787q.273,1.995.667,3.774a35.05943,35.05943,0,0,0,2.306,7.04h.007c.335.737.689,1.43,1.064,2.095a23.0928,23.0928,0,0,0,3.818,5.06,119.217,119.217,0,0,0,3.844,13.987l.035.1a3.05983,3.05983,0,0,0,.186.314c2.808,4.237,11.556,4.907,15.632,4.907s12.81-.67,15.625-4.907a1.96334,1.96334,0,0,0,.184-.314l.036-.1a120.20351,120.20351,0,0,0,3.847-13.989,22.98246,22.98246,0,0,0,3.815-5.06c.375-.665.73-1.361,1.064-2.095h0a34.58835,34.58835,0,0,0,2.3-7.04c.265-1.189.491-2.444.675-3.774,2.291.511,4.178-.48,6.016-2.787a33.27589,33.27589,0,0,0,3.219-5.193,16.98276,16.98276,0,0,0,1.695-4.908C93.041,80.41021,92.451,76.90621,89.573,75.95821Zm-21.419,51.961c-2.381,3.579-10.975,4.111-14.158,4.113s-11.777-.535-14.153-4.113c-1.467-4.46-2.568-8.278-3.317-11.494l.127.092a22.53392,22.53392,0,0,0,6.681,3.371,28.99983,28.99983,0,0,0,4.613,1.05c1,1.452,2.874,2.41,6.016,2.53h.087c3.131-.118,5-1.077,6-2.53a28.95943,28.95943,0,0,0,4.611-1.05,22.57,22.57,0,0,0,6.683-3.371l.123-.092C70.724,119.64121,69.615,123.46121,68.154,127.91921Zm22.582-44.58a15.18885,15.18885,0,0,1-1.513,4.38,32.49943,32.49943,0,0,1-3.035,4.918c-1.716,2.147-3.063,2.56-4.67,2.041a.84451.84451,0,0,0-.116-.026.893.893,0,0,0-1.471.573,46.85148,46.85148,0,0,1-.781,4.7,32.19191,32.19191,0,0,1-2.533,7.415h0c-.207.417-.421.825-.645,1.214a20.544,20.544,0,0,1-5.681,6.541,20.97956,20.97956,0,0,1-6.164,3.107,26.27509,26.27509,0,0,1-3.268.805.886.886,0,0,0-1.742-.312c-.333,1.453-1.38,2.853-5.118,3-3.737-.147-4.783-1.547-5.12-3a.884.884,0,0,0-1.739.312,26.199,26.199,0,0,1-3.269-.805,20.87712,20.87712,0,0,1-6.161-3.107,20.594,20.594,0,0,1-5.685-6.541c-.221-.389-.438-.793-.638-1.212h0a32.40478,32.40478,0,0,1-2.541-7.419,46.8541,46.8541,0,0,1-.777-4.7.894.894,0,0,0-1.474-.573.888.888,0,0,0-.114.031c-1.609.515-2.954.106-4.668-2.045a31.34268,31.34268,0,0,1-3.032-4.916,15.18079,15.18079,0,0,1-1.515-4.381c-.551-3.173.26-5.223,1.706-5.7a3.811,3.811,0,0,1,3.164.544,8.65211,8.65211,0,0,1,2.233,1.988.794.794,0,0,0,.5.381,1.16888,1.16888,0,0,0,.206.033.9999.9999,0,0,0,.429-.081,3.177,3.177,0,0,0-.876-2.308,2.916,2.916,0,0,1-1.212-2.192v-1.167c-4.261-13-4.438-25.931-1.359-32.184,5.062-12.028,18.038-15.658,31.799-15.64h.146c13.75-.019,26.719,3.612,31.779,15.638,3.046,6.182,2.9,18.9-1.213,31.75v1.6a2.92,2.92,0,0,1-1.217,2.192,3.979,3.979,0,0,0-.9,2.3,1.00008,1.00008,0,0,0,.443.089.862.862,0,0,0,.687-.346,8.77306,8.77306,0,0,1,2.287-2.048,3.808,3.808,0,0,1,3.164-.543C90.471,78.11221,91.29,80.16821,90.736,83.33921Z" transform="translate(-15.32968 -0.09101)"/>
        <path d="M25.534,69.78621c0,.216,0,.427-.013.639a12.09993,12.09993,0,0,1,1.785-.517v-.126a30.69092,30.69092,0,0,0-.52-5.135c-.485-2.763-1.306-5.473-1.33-8.305-.031-3.027.9-4.283,2.2-4.828,1.534-.641,3.9-.445,7,.234q.45.1155.9.252a33.66214,33.66214,0,0,1,6.674,2.724,20.76609,20.76609,0,0,1,6.909,5.735c.7.945,1.88.382,1.575-.754a23.59975,23.59975,0,0,0-1.615-4.264c4.251,2.931,7.223,6.236,8.58,9.756a.872.872,0,0,0,1.713-.32,25.812,25.812,0,0,0-3.522-11.81c4.487,2.795,7.739,6.191,9.3,9.686a.871.871,0,0,0,1.693-.408,22.32108,22.32108,0,0,0-3.168-9.765c4.377,1.1,7.814,3.128,9.662,5.57.7.937,1.883.349,1.556-.777a14.61405,14.61405,0,0,0-2.818-5.146,29.15744,29.15744,0,0,1,5.406-.955,5.091,5.091,0,0,1,3.734.89c.815.73,1.39,2.114,1.264,4.766-.165,3.546-1.354,6.967-1.7,10.509a22.7762,22.7762,0,0,0-.129,2.472,13.06161,13.06161,0,0,1,1.784.506,20.81692,20.81692,0,0,1,.111-2.807c.36-3.573,1.546-7.012,1.716-10.6.131-2.867-.447-4.92-1.868-6.179a6.785,6.785,0,0,0-4.994-1.332,35.01547,35.01547,0,0,0-6.648,1.237,26.33353,26.33353,0,0,0-3.906-3.236.888.888,0,0,0-1,1.466,22.50016,22.50016,0,0,1,5.179,4.772,24.82218,24.82218,0,0,0-8.651-3.26,39.98642,39.98642,0,0,0-5.163-6.128.887.887,0,1,0-1.28873,1.21913q.02252.02379.04673.04587a32.326,32.326,0,0,1,8.187,12.235,32.182,32.182,0,0,0-10.473-8.035c-1.009-.514-1.776.368-1.123,1.3a30.25511,30.25511,0,0,1,4.4,9.23,32.77908,32.77908,0,0,0-10.031-8.349c-1-.573-1.825.328-1.172,1.268a23.03257,23.03257,0,0,1,1.7,2.871,26.46824,26.46824,0,0,0-4.4-2.971,35.56349,35.56349,0,0,0-7.028-2.866c-.321-.094-.661-.188-.986-.276-3.063-.67-5.965-1.025-8.087-.139-2.223.928-3.318,3.061-3.288,6.482.028,2.936.858,5.729,1.359,8.593A29.05211,29.05211,0,0,1,25.534,69.78621Z" transform="translate(-15.32968 -0.09101)"/>
        <path d="M88.678,80.83021c-2.454-.608-4.851,2.12-6.083,5.237-.1.233-1.157,2.707.5,2.835.758.06,1.621-.816,1.928-1.876a1.827,1.827,0,0,0-.18-1.646c1.146-2.1,2.611-3.025,3.405-2.831a.886.886,0,0,0,.43-1.719Z" transform="translate(-15.32968 -0.09101)"/>
        <path d="M66.073,101.12022c-1.652,1.259-4.99,2.009-12.232,2.009s-10.568-.75-12.216-2.009a.85426.85426,0,0,0-1.042,1.354,6.93122,6.93122,0,0,0,1.382.821,2.986,2.986,0,0,0,.443.229c.54.218.918.8,1.453,1.276a14.07835,14.07835,0,0,0,1.767,1.345,22.00744,22.00744,0,0,0,2.018,1.2h0a12.7,12.7,0,0,0,12.418,0h0a21.37338,21.37338,0,0,0,2.016-1.2,13.98048,13.98048,0,0,0,1.768-1.341c.531-.473.9-1.059,1.447-1.277a2.50618,2.50618,0,0,0,.472-.24,6.98632,6.98632,0,0,0,1.346-.806.85643.85643,0,1,0-1.04-1.361Zm-5.21,3.772c-.177.111-.366.21-.568.312l-.284.137a14.47192,14.47192,0,0,1-6.166,1.132,14.48291,14.48291,0,0,1-6.161-1.128l-.284-.137a6.14889,6.14889,0,0,1-.565-.312,7.80256,7.80256,0,0,1-.73-.484,54.83058,54.83058,0,0,0,7.73.436,54.61982,54.61982,0,0,0,7.76-.439A7.3056,7.3056,0,0,1,60.863,104.89221Z" transform="translate(-15.32968 -0.09101)"/>
        <path d="M82.694,77.38621c.612-.534.833-.912.833-1.382v-3.391a.9.9,0,0,0-.411-.754c-1.167-.683-5.214-1.661-11.359-1.431a39.318,39.318,0,0,0-13.447,2.931,17.4329,17.4329,0,0,1-8.637,0,39.29407,39.29407,0,0,0-13.45-2.926c-6.151-.23-10.191.748-11.358,1.431a.884.884,0,0,0-.408.754v3.386c0,.47.221.847.826,1.382,1.1.809,1.109,1.926,1.33,3.722.344,2.822.619,9.011,9.923,9.921,8.75.855,12.471-3.884,13.826-7.415,1.333-3.477,1.3-5.19,3.631-5.192s2.3,1.713,3.627,5.192c1.355,3.533,5.076,8.272,13.832,7.415,9.3-.91,9.572-7.1,9.918-9.921C81.585,79.31321,81.599,78.19521,82.694,77.38621Zm-33.6,3.611c-.4,4.666-4.329,8.942-10.964,8.942-5.328,0-9.632-3.015-9.678-9.164-.054-7.856,4.644-8.35,9.959-7.966,12.326.892,11.099,3.42,10.681,8.188Zm20.759,8.94c-6.636,0-10.555-4.275-10.968-8.943-.416-4.766-1.64-7.294,10.686-8.188,5.315-.383,10.011.113,9.958,7.968-.048,6.15-4.352,9.17-9.678,9.163Z" transform="translate(-15.32968 -0.09101)"/>
        <path d="M38.333,73.84621c-3.859-.282-6.872-.1-8.16,2.784a1.784,1.784,0,0,0,.652-.152,16.416,16.416,0,0,1,6.515-1.321,15.63,15.63,0,0,1,9.144,2.856,1.54,1.54,0,0,0,1.814.064v-.222a2.479,2.479,0,0,0-.543-1.715C46.894,75.16621,44.582,74.30121,38.333,73.84621Z" transform="translate(-15.32968 -0.09101)"/>
        <path d="M68.807,77.62721c-3.3,0-6.316,1.545-7.417,3.973a.9323.9323,0,0,0,1.7.766h0a5.556,5.556,0,0,1,4.126-2.736,2.61843,2.61843,0,1,0,2.784-.061,5.542,5.542,0,0,1,4.421,2.8.9323.9323,0,0,0,1.7-.766h0C75.018,79.18221,72.116,77.62721,68.807,77.62721Z" transform="translate(-15.32968 -0.09101)"/>
        <path d="M61.312,95.86221a.93027.93027,0,0,0-.045-1.86c-3.383.088-4.208,2.7-7.311,2.7-3.339,0-4.135-2.148-7.069-2.685a.931.931,0,0,0-.336,1.831,6.644,6.644,0,0,1,2.624,1.2.771.771,0,0,0,.477.852,10.20013,10.20013,0,0,0,4.347.8,9.886,9.886,0,0,0,4.155-.8.775.775,0,0,0,.43114-1.00765L58.585,96.8922l.412-.286A4.228,4.228,0,0,1,61.312,95.86221Z" transform="translate(-15.32968 -0.09101)"/>
        <path d="M39.184,77.62721c-3.313,0-6.214,1.556-7.311,3.973a.9323.9323,0,1,0,1.7.766h0a5.543,5.543,0,0,1,4.418-2.8,2.605,2.605,0,1,0,2.79.06,5.563,5.563,0,0,1,4.124,2.736.92957.92957,0,1,0,1.694-.766h0C45.5,79.17121,42.484,77.62721,39.184,77.62721Z" transform="translate(-15.32968 -0.09101)"/>
        <path d="M66.517,98.36121a.7.7,0,0,0,.374,1.344c1.04-.29,2.169,1.039,2.273,1.992a.7.7,0,0,0,1.388-.156C70.355,99.75321,68.432,97.82622,66.517,98.36121Z" transform="translate(-15.32968 -0.09101)"/>
      </g>
    </g>
    <path d="M284.02,89.811c.082.18.137.294.183.415l.03.085a.941.941,0,0,1-.076.871,1.055,1.055,0,0,1-.995.451l-.077-.013-.093-.025-.079-.032a.939.939,0,0,1-.187-.11,1.02286,1.02286,0,0,1-.322-.458,3.81043,3.81043,0,0,0-.671-1.123,6.741,6.741,0,0,0-3.454-2.046,2.752,2.752,0,1,1-2.925-.271,5.829,5.829,0,0,0-4.842,2.609.908.908,0,0,1-1.125.535l-2.452-.708a.93.93,0,0,1,.514-1.787l1.679.48c.071-.1.148-.2.228-.3l-.75-.333a.933.933,0,0,1,.757-1.705l1.5.665a8.90687,8.90687,0,0,1,4.149-1.4,44.24177,44.24177,0,0,1,4.62.58,9.33931,9.33931,0,0,1,2.1,1.062,7.30828,7.30828,0,0,1,.871.692,7.616,7.616,0,0,1,.628.653l.068.081.105.129.059.085.083.114.045.069.047.068.059.09.055.088.048.079.054.092.043.076.044.076Zm1.9,16a.7.7,0,0,1,.883.114,4.567,4.567,0,0,0,3.2,1.164,4.7388,4.7388,0,0,0,2.058-.415c.5-.229,1.543-1.231,2.048-.862a.932.932,0,0,0,1.40136-1.2291l-.02836-.0309a1.85225,1.85225,0,0,0-.29-.251c-1.989-1.457-3.213.925-5.188.925s-3.158-2.4-5.159-.925a2.17232,2.17232,0,0,0-.29.251.931.931,0,1,0,1.3358,1.29718q.0176-.01812.03419-.03718Zm4.094,6.032c3.57-1.675,8.2.276,11.135-.615l.182-.062.068-.023a.934.934,0,0,1,.694,1.733,4.55771,4.55771,0,0,1-.505.172c-2.329.867-3.259,2.841-5.328,4.269a9.674,9.674,0,0,1-6.137,2.607h-.2a10.434,10.434,0,0,1-6.9-3.264,33.79123,33.79123,0,0,1-2.488-2.3,5.73915,5.73915,0,0,0-2.072-1.309,4.87716,4.87716,0,0,1-.513-.174.934.934,0,0,1,.693-1.733l.07.023.182.062c2.933.882,7.56-1.065,11.119.611Zm-.918,6.087a5.33319,5.33319,0,0,1-1.279-.265.54723.54723,0,1,0-.389,1.023,5.76155,5.76155,0,0,0,1.509.325.548.548,0,1,0,.18836-1.07969l-.02936-.00431Zm-6.534-4.293c.7.685,1.41,1.4,2.171,2.055a10.627,10.627,0,0,0,10.584,0c.759-.653,1.478-1.368,2.169-2.052-2.773.222-5.919.283-7.373.287h-.162c-1.467-.011-4.614-.071-7.39-.293ZM257.651,94.622c.664,2.414,2.8,3.512,2.229.1a17.034,17.034,0,0,0-.566-2.44,9.907,9.907,0,0,0-3.04-5.218.9.9,0,1,0-1.029,1.466,8.42692,8.42692,0,0,1,2.358,4.432,2.756,2.756,0,0,0,.048,1.657Zm37.039-12a2.041,2.041,0,0,0-.928,1.438c1.445-.413,2.792-1,4.7-1.531a49.43188,49.43188,0,0,1,14.737-1.331,14.91508,14.91508,0,0,0-7.091-1.941,19.06306,19.06306,0,0,0-11.414,3.365Zm19.009,6.385c-.049-.146-.094-.287-.152-.424a.875.875,0,0,0-1.035-.377l-1.679.481a3.03031,3.03031,0,0,0-.224-.3l.745-.334a.932.932,0,0,0-.754-1.7l-1.493.663a9.01607,9.01607,0,0,0-4.278-1.41c-1.682.133-3.063.3-4.192.485a7.517,7.517,0,0,0-4.908,4.223.977.977,0,0,0,1.833.676,5.836,5.836,0,0,1,4.132-3.171,2.743,2.743,0,1,0,2.921-.273,5.823,5.823,0,0,1,4.869,2.665.885.885,0,0,0,1.094.48l2.451-.708a.867.867,0,0,0,.669-.978Zm11.022-.469a.9.9,0,1,0-1.031-1.466,9.891,9.891,0,0,0-3.036,5.216,17.109,17.109,0,0,0-.571,2.442c-.572,3.407,1.569,2.309,2.232-.105a2.72487,2.72487,0,0,0,.043-1.655,8.411,8.411,0,0,1,2.364-4.432Zm-31.272,6.707c-1.33-3.442-1.3-5.138-3.6-5.145s-2.277,1.706-3.6,5.145c-1.339,3.5-5.026,8.193-13.7,7.349-9.211-.905-9.478-7.03-9.825-9.832-.217-1.774-.236-2.883-1.319-3.685-.6-.526-.817-.905-.817-1.372V84.346a.888.888,0,0,1,.4-.743c1.16-.674,5.161-1.646,11.25-1.421a38.91836,38.91836,0,0,1,13.323,2.908,17.32685,17.32685,0,0,0,8.56,0,38.9172,38.9172,0,0,1,13.322-2.908c6.089-.225,10.094.747,11.253,1.421a.883.883,0,0,1,.407.743v3.357c0,.467-.22.845-.822,1.372-1.083.8-1.1,1.911-1.318,3.685-.342,2.8-.616,8.926-9.826,9.832-8.67.843-12.36-3.853-13.695-7.349ZM274.411,84.538c-5.263-.386-9.921.112-9.862,7.893.044,6.091,4.305,9.081,9.586,9.081,6.571,0,10.457-4.244,10.859-8.86.417-4.725,1.627-7.233-10.583-8.113Zm31.148,16.973c5.276,0,9.541-2.99,9.583-9.081.059-7.782-4.6-8.276-9.862-7.893-12.213.881-11,3.389-10.583,8.113C295.102,97.269,298.984,101.511,305.559,101.511ZM326.47,82.994a5.545,5.545,0,0,0-5.371,1.344c3.6-14.265,6.263-37.1-6.991-44.717.026.267.049.539.064.82.559,9.452-1.971,17.473-6.647,23.413,3.68-.57,5.6,1.589,6.067,4.529a41.773,41.773,0,0,0,1.742,7.189c1.021,2.951,1.938,4.634,2.448,6.5a7.88127,7.88127,0,0,1,1.46.652,1.964,1.964,0,0,1,.9,1.621V87.7a2.888,2.888,0,0,1-1.205,2.172,3.074,3.074,0,0,0-.79,1.742.94.94,0,0,0,1.055-.7c.041-.128.083-.251.119-.375.14-.407.284-.755.388-.982a13.59951,13.59951,0,0,1,1.3-2.316c2.488-3.582,7.156-3.757,7.07,1.358a17.079,17.079,0,0,1-7.55,13.118c-.525.312-3.388,1.259-3.572,1.783-.7,1.979-1.365,3.737-2.007,5.309h0c-2.472,6.069-4.568,9.3-6.9,11.471-3.253,3.028-7.934,4.678-11.821,6.711-2.761,1.439-2.481,1.566-6.3,1.6a9.69384,9.69384,0,0,1-5.04-.871c-3.505-2.13-7.64-3.486-11.044-5.824a.822.822,0,0,0-.418-.3,17.599,17.599,0,0,1-1.61-1.316c-2.323-2.168-4.422-5.4-6.9-11.474h0c-.639-1.572-1.3-3.332-2.006-5.313a1.518,1.518,0,0,0-.721-.607c-3.494-.623-6.751-4.167-8.272-7.063-1.13-2.153-4.178-9.89-.023-11.036,3.2-.889,5.3,2.54,6.331,4.956.188.439.32.8.387.989l.063.2a.918.918,0,0,0,.889.685,2.556,2.556,0,0,0-.8-1.75,2.891,2.891,0,0,1-1.2-2.173V84.348a1.96,1.96,0,0,1,.755-1.523,13.457,13.457,0,0,1-1.008-9.649.93042.93042,0,0,1,1.773.565,11.77906,11.77906,0,0,0,.9,8.236l.041.068a14.92268,14.92268,0,0,1,2-.5c.01-.172.032-.39.065-.649.794-6.2,5.293-9.854,12.017-10.18,2.4-.116,6.023-.072,10.063-.405,6.775-.552,12.784-2.087,17.423-5.079,5.8-5.595,9.379-13.724,8.736-24.68a13.61643,13.61643,0,0,0-.233-1.865c-2.838-6.814-12.129-8.882-18.767-9.345-2.028-.142-3.363-.1-3.363-.1-12.6.4-21.328,4.637-26.777,9.52-9.886,9.237-8.42,26.127-6.72,37.124a58.616,58.616,0,0,0,2.012,8.282c-3.677-2.735-8.64-1.5-8.536,4.466.108,6.416,4.989,14.185,11.392,15.963.547,1.524,1.071,2.921,1.581,4.212,2.641,6.628,4.941,10.324,7.643,12.835.156.144.317.287.476.428a23.38584,23.38584,0,0,0,2.789,2l1.319.792c2.5,1.376,5.176,2.488,7.643,3.779,3.03,1.583,3.063,1.776,7.162,1.815a11.269,11.269,0,0,0,6.014-1.145c2.555-1.552,5.332-2.688,7.986-4.053.388-.2.763-.4,1.128-.616.213-.123.482-.289.763-.467.752-.485,1.626-1.119,2.388-1.693,4.359-3.546,6.673-8.162,8.786-13.674.519-1.352,1.025-2.755,1.542-4.21a15.5,15.5,0,0,0,9.06-7.906c1.766-3.394,4.691-12.083-1.147-13.699Zm-40.262,1.167a2.024,2.024,0,0,0-.937-1.541,19.10006,19.10006,0,0,0-11.42-3.365,14.96189,14.96189,0,0,0-7.108,1.954,48.9,48.9,0,0,1,14.494,1.317C282.937,83,284.531,83.715,286.208,84.161Z" transform="translate(-15.32968 -0.09101)"/>
    <g>
      <path class="c" d="M50.405,11.01094a3.55725,3.55725,0,0,1,1.90893,2.063c.447,1.47095,3.07593-4.682,6.00806-5.25806" transform="translate(-15.32968 -0.09101)"/>
      <path class="d" d="M53.577,1.162a1,1,0,0,1,1.369,0l8.8,8.267a1,1,0,0,1,.04449,1.41351q-.02154.02293-.04449.04449l-8.8,8.267a1,1,0,0,1-1.369,0l-8.8-8.267a1,1,0,0,1-.04449-1.41352q.02154-.02294.04449-.04448Z" transform="translate(-15.32968 -0.09101)"/>
    </g>
    <g>
      <path class="e" d="M168,51.519h18a5,5,0,0,1,5,5h0a5,5,0,0,1-5,5H168a5,5,0,0,1-5-5h0A5,5,0,0,1,168,51.519Z" transform="translate(-15.32968 -0.09101)"/>
      <path class="e" d="M165,77.519h21a5,5,0,0,1,5,5h0a5,5,0,0,1-5,5H165a5,5,0,0,1-5-5h0A5,5,0,0,1,165,77.519Z" transform="translate(-15.32968 -0.09101)"/>
      <path class="f" d="M155,64.519h28a5,5,0,0,1,5,5h0a5,5,0,0,1-5,5H155a5,5,0,0,1-5-5h0A5,5,0,0,1,155,64.519Z" transform="translate(-15.32968 -0.09101)"/>
      <g class="g">
        <g class="g">
          <path class="h" d="M169.78711,56.16064a1.19867,1.19867,0,0,1,.501.44141,1.21534,1.21534,0,0,1,.17968.66309,1.213,1.213,0,0,1-.69824,1.13086,1.65542,1.65542,0,0,1-.73535.15918,1.55127,1.55127,0,0,1-1.27832-.54883,2.409,2.409,0,0,1-.44336-1.55176,2.67536,2.67536,0,0,1,.23926-1.1875,1.67722,1.67722,0,0,1,.67285-.73535,1.97768,1.97768,0,0,1,1.00781-.249,1.8899,1.8899,0,0,1,.9961.22852l-.17383.34766a1.472,1.472,0,0,0-.81641-.19825,1.39115,1.39115,0,0,0-1.0918.44141A1.85383,1.85383,0,0,0,167.75,56.3833c0,.09961.00586.21387.01758.3418a1.1353,1.1353,0,0,1,.498-.53125,1.60032,1.60032,0,0,1,.78614-.18848A1.67075,1.67075,0,0,1,169.78711,56.16064Zm-.03027,1.7793a.91014.91014,0,0,0,0-1.32324,1.13867,1.13867,0,0,0-.77051-.24609,1.25041,1.25041,0,0,0-.56153.12011.95287.95287,0,0,0-.38085.33008.83618.83618,0,0,0-.1377.46777.8154.8154,0,0,0,.12891.44434.92789.92789,0,0,0,.38086.33008,1.32787,1.32787,0,0,0,.5996.126A1.08538,1.08538,0,0,0,169.75684,57.93994Z" transform="translate(-15.32968 -0.09101)"/>
          <path class="h" d="M173.39844,56.36768a1.098,1.098,0,0,1,.418.915,1.25613,1.25613,0,0,1-.17188.6543,1.16245,1.16245,0,0,1-.51269.45313,1.91906,1.91906,0,0,1-.83985.165,2.46765,2.46765,0,0,1-.85449-.14747,1.74408,1.74408,0,0,1-.65234-.39257l.21093-.3418a1.55393,1.55393,0,0,0,.55176.35059,1.99086,1.99086,0,0,0,.73731.13476,1.24532,1.24532,0,0,0,.80761-.2334.766.766,0,0,0,.28516-.624.7455.7455,0,0,0-.32129-.6543,1.97931,1.97931,0,0,0-1.083-.22168h-.89355l.21582-2.10644h2.29785v.38379h-1.91992l-.14453,1.33886h.541A2.15833,2.15833,0,0,1,173.39844,56.36768Z" transform="translate(-15.32968 -0.09101)"/>
          <path class="h" d="M177.93164,57.41553h-.83984V58.519h-.43164V57.41553H174.29V57.103l2.22558-2.78418h.48047l-2.14843,2.71191h1.82422v-.97168h.41992v.97168h.83984Z" transform="translate(-15.32968 -0.09101)"/>
          <path class="h" d="M180.6709,56.47607a1.092,1.092,0,0,1,.34472.83692,1.13956,1.13956,0,0,1-.68945,1.08008,1.93343,1.93343,0,0,1-.834.16211,2.48628,2.48628,0,0,1-.86133-.14747,1.73539,1.73539,0,0,1-.65039-.39257l.209-.3418a1.55069,1.55069,0,0,0,.5586.35059,2.03829,2.03829,0,0,0,.74414.13476,1.24466,1.24466,0,0,0,.79687-.22461.75137.75137,0,0,0,.28321-.62109.737.737,0,0,0-.28321-.61231,1.36338,1.36338,0,0,0-.85156-.22168h-.2998v-.31836l1.16406-1.458H178.1543v-.38379h2.69922v.30664l-1.1875,1.49316A1.55761,1.55761,0,0,1,180.6709,56.47607Z" transform="translate(-15.32968 -0.09101)"/>
          <path class="h" d="M184.46,58.13525V58.519h-2.94629v-.30566l1.7461-1.71a2.28251,2.28251,0,0,0,.44726-.56153,1.0653,1.0653,0,0,0,.11719-.47656.70461.70461,0,0,0-.25586-.5791,1.12416,1.12416,0,0,0-.72852-.207,1.44222,1.44222,0,0,0-1.14648.46777l-.30566-.26367a1.61427,1.61427,0,0,1,.62695-.44434,2.26427,2.26427,0,0,1,.86133-.15625,1.571,1.571,0,0,1,1.0166.30372,1.00873,1.00873,0,0,1,.375.831,1.43028,1.43028,0,0,1-.14356.624,2.647,2.647,0,0,1-.5459.68946l-1.42773,1.40429Z" transform="translate(-15.32968 -0.09101)"/>
          <path class="h" d="M186.16406,54.31885V58.519h-.43164v-3.8164h-.99023v-.38379Z" transform="translate(-15.32968 -0.09101)"/>
        </g>
      </g>
      <g class="g">
        <g class="g">
          <path class="h" d="M165.5,80.70215h-1.47607v-.38379h3.396v.38379h-1.47607v3.8164H165.5Z" transform="translate(-15.32968 -0.09101)"/>
          <path class="h" d="M170.59082,81.68359a1.35108,1.35108,0,0,1,.35059,1.00489v1.83007h-.42579V82.73047a1.04541,1.04541,0,0,0-.24609-.75.92448.92448,0,0,0-.70117-.25781,1.07963,1.07963,0,0,0-.80762.30273,1.14421,1.14421,0,0,0-.29687.83691v1.65625h-.42578V80.06641h.42578V81.915a1.16208,1.16208,0,0,1,.47949-.42676,1.58665,1.58665,0,0,1,.70312-.14941A1.28572,1.28572,0,0,1,170.59082,81.68359Z" transform="translate(-15.32968 -0.09101)"/>
          <path class="h" d="M174.15234,81.64746a1.19849,1.19849,0,0,1,.33008.915v1.95605h-.4082v-.49218a.97247.97247,0,0,1-.42383.38379,1.46525,1.46525,0,0,1-.66211.13867,1.29513,1.29513,0,0,1-.83984-.25195.86694.86694,0,0,1-.02149-1.31446,1.42206,1.42206,0,0,1,.92676-.24609h1.00195v-.19141a.80622.80622,0,0,0-.22754-.62109.94105.94105,0,0,0-.666-.21289,1.68133,1.68133,0,0,0-.57617.09863,1.47171,1.47171,0,0,0-.47461.27344l-.19141-.31836a1.70813,1.70813,0,0,1,.57617-.31543,2.25772,2.25772,0,0,1,.708-.11035A1.33892,1.33892,0,0,1,174.15234,81.64746Zm-.48046,2.40039a.98843.98843,0,0,0,.38378-.47754v-.51562h-.98925q-.81153,0-.81055.56347a.51775.51775,0,0,0,.21.43555.95852.95852,0,0,0,.58789.15918A1.12764,1.12764,0,0,0,173.67188,84.04785Z" transform="translate(-15.32968 -0.09101)"/>
          <path class="h" d="M178.19336,81.68359a1.35108,1.35108,0,0,1,.35059,1.00489v1.83007h-.42676V82.73047a1.04946,1.04946,0,0,0-.24512-.75.92531.92531,0,0,0-.70215-.25781,1.07585,1.07585,0,0,0-.80664.30273,1.14421,1.14421,0,0,0-.29687.83691v1.65625h-.42579V81.3623h.40723v.582a1.18869,1.18869,0,0,1,.4834-.44727,1.55039,1.55039,0,0,1,.7168-.1582A1.28808,1.28808,0,0,1,178.19336,81.68359Z" transform="translate(-15.32968 -0.09101)"/>
          <path class="h" d="M180.87207,82.93457l-.74414.68359v.90039h-.42578V80.06641h.42578V83.085l1.88379-1.72266H182.54l-1.35059,1.29,1.47657,1.86621h-.52149Z" transform="translate(-15.32968 -0.09101)"/>
          <path class="h" d="M183.32227,84.4375a1.59145,1.59145,0,0,1-.54883-.2793l.19238-.33593a1.59013,1.59013,0,0,0,.498.25488,1.96476,1.96476,0,0,0,.624.09961,1.19332,1.19332,0,0,0,.63867-.13477.43042.43042,0,0,0,.207-.38183.34374.34374,0,0,0-.11328-.27246.759.759,0,0,0-.28906-.1504,4.32751,4.32751,0,0,0-.46094-.09863,5.10019,5.10019,0,0,1-.61914-.14746.90388.90388,0,0,1-.39844-.25488.7082.7082,0,0,1-.165-.498.78065.78065,0,0,1,.33007-.64746,1.48218,1.48218,0,0,1,.918-.25195,2.361,2.361,0,0,1,.61231.08105,1.69767,1.69767,0,0,1,.5039.21289l-.18554.3418a1.59854,1.59854,0,0,0-.93067-.27051,1.07973,1.07973,0,0,0-.61523.14453.441.441,0,0,0-.207.37793.37323.37323,0,0,0,.11718.28809.71854.71854,0,0,0,.291.15918,4.757,4.757,0,0,0,.47949.10449,5.48377,5.48377,0,0,1,.60645.14453.88643.88643,0,0,1,.38965.2461.67252.67252,0,0,1,.16211.47949.76436.76436,0,0,1-.34473.65722,1.63787,1.63787,0,0,1-.957.24317A2.42112,2.42112,0,0,1,183.32227,84.4375Z" transform="translate(-15.32968 -0.09101)"/>
          <path class="h" d="M186.10742,84.45508a.2972.2972,0,0,1-.09375-.21875.2923.2923,0,0,1,.08985-.21875.31865.31865,0,0,1,.22851-.08692.3073.3073,0,0,1,.22168.08692.29229.29229,0,0,1,.08984.21875.30487.30487,0,0,1-.08984.21875.29437.29437,0,0,1-.22168.09375A.30383.30383,0,0,1,186.10742,84.45508Zm-.02734-4.13672h.5039l-.08984,2.94043h-.33008Z" transform="translate(-15.32968 -0.09101)"/>
        </g>
      </g>
      <g class="g">
        <g class="g">
          <path class="h" d="M155.147,68.68359a1.34931,1.34931,0,0,1,.35108,1.00489v1.83007h-.42627V69.73047a1.04741,1.04741,0,0,0-.24561-.75.92531.92531,0,0,0-.70215-.25781,1.0785,1.0785,0,0,0-.80713.30273,1.14624,1.14624,0,0,0-.29687.83691v1.65625h-.42578V67.06689H153.02V68.915a1.15446,1.15446,0,0,1,.48-.42676,1.58085,1.58085,0,0,1,.70215-.14941A1.28688,1.28688,0,0,1,155.147,68.68359Z" transform="translate(-15.32968 -0.09101)"/>
          <path class="h" d="M158.31787,71.32617a.803.803,0,0,1-.29687.165,1.196,1.196,0,0,1-.36914.05762.83592.83592,0,0,1-.92383-.918v-1.9082h-.564V68.3623h.564v-.689h.42578v.689h.96v.36036h-.96v1.88379a.5954.5954,0,0,0,.14111.42871.53348.53348,0,0,0,.40528.14746.7749.7749,0,0,0,.25488-.042.64363.64363,0,0,0,.21289-.12011Z" transform="translate(-15.32968 -0.09101)"/>
          <path class="h" d="M160.66992,71.32617a.803.803,0,0,1-.29687.165,1.196,1.196,0,0,1-.36914.05762.83592.83592,0,0,1-.92383-.918v-1.9082h-.564V68.3623h.564v-.689h.42578v.689h.96v.36036h-.96v1.88379a.5954.5954,0,0,0,.14111.42871.53348.53348,0,0,0,.40528.14746.7749.7749,0,0,0,.25488-.042.64363.64363,0,0,0,.21289-.12011Z" transform="translate(-15.32968 -0.09101)"/>
          <path class="h" d="M163.87354,68.54a1.4303,1.4303,0,0,1,.564.56641,1.8179,1.8179,0,0,1,0,1.67382,1.43826,1.43826,0,0,1-.561.56739,1.617,1.617,0,0,1-.80664.20117,1.49954,1.49954,0,0,1-.69336-.15918,1.31348,1.31348,0,0,1-.50683-.46485v1.75782h-.42578V68.3623h.40771v.624a1.30526,1.30526,0,0,1,.50684-.47949,1.48593,1.48593,0,0,1,.71142-.168A1.61137,1.61137,0,0,1,163.87354,68.54Zm-.23389,2.47754a1.07885,1.07885,0,0,0,.42285-.43457,1.327,1.327,0,0,0,.15332-.64258,1.30359,1.30359,0,0,0-.15332-.63867,1.10634,1.10634,0,0,0-.42285-.43555,1.243,1.243,0,0,0-1.20313,0,1.11585,1.11585,0,0,0-.41992.43555,1.30337,1.30337,0,0,0-.15283.63867,1.3268,1.3268,0,0,0,.15283.64258,1.08773,1.08773,0,0,0,.41992.43457,1.2568,1.2568,0,0,0,1.20313,0Z" transform="translate(-15.32968 -0.09101)"/>
          <path class="h" d="M165.62305,71.4375a1.58523,1.58523,0,0,1-.54932-.2793l.19238-.33593a1.59013,1.59013,0,0,0,.49805.25488,1.96564,1.96564,0,0,0,.62451.09961,1.19565,1.19565,0,0,0,.63867-.13477.43246.43246,0,0,0,.207-.38183.34445.34445,0,0,0-.11426-.27246.76186.76186,0,0,0-.28809-.1504,4.35394,4.35394,0,0,0-.46191-.09863,5.07778,5.07778,0,0,1-.61817-.14746.90535.90535,0,0,1-.39892-.25488.7082.7082,0,0,1-.165-.498.77937.77937,0,0,1,.33008-.64746,1.48061,1.48061,0,0,1,.91748-.25195,2.35,2.35,0,0,1,.6123.08105,1.67582,1.67582,0,0,1,.50391.21289l-.18555.3418a1.59848,1.59848,0,0,0-.93066-.27051,1.08123,1.08123,0,0,0-.61475.14453.441.441,0,0,0-.207.37793.3732.3732,0,0,0,.11719.28809.71969.71969,0,0,0,.29052.15918,4.7257,4.7257,0,0,0,.48047.10449,5.4579,5.4579,0,0,1,.60547.14453.884.884,0,0,1,.39063.2461.67687.67687,0,0,1,.16211.47949.763.763,0,0,1-.34571.65722,1.63787,1.63787,0,0,1-.957.24317A2.41248,2.41248,0,0,1,165.62305,71.4375Z" transform="translate(-15.32968 -0.09101)"/>
          <path class="h" d="M168.2627,68.89648a.32418.32418,0,0,1-.09278-.23437.31362.31362,0,0,1,.09278-.23047.30354.30354,0,0,1,.22558-.09277.31035.31035,0,0,1,.22656.09277.30594.30594,0,0,1,.09668.23047.316.316,0,0,1-.09668.23437.30562.30562,0,0,1-.22656.09571A.299.299,0,0,1,168.2627,68.89648Zm0,2.55567a.32353.32353,0,0,1-.09278-.2334.31743.31743,0,0,1,.09278-.23145.30728.30728,0,0,1,.22558-.09277.31427.31427,0,0,1,.22656.09277.30959.30959,0,0,1,.09668.23145.31542.31542,0,0,1-.09668.2334.3066.3066,0,0,1-.22656.09668A.2999.2999,0,0,1,168.2627,71.45215Z" transform="translate(-15.32968 -0.09101)"/>
          <path class="h" d="M171.22363,66.46729h.38965l-1.97949,5.65087h-.38965Z" transform="translate(-15.32968 -0.09101)"/>
          <path class="h" d="M172.84375,66.46729h.39063l-1.98047,5.65087h-.39063Z" transform="translate(-15.32968 -0.09101)"/>
          <path class="h" d="M175.25,71.51855l-1.00195-1.32031-1.00782,1.32031h-.48046l1.248-1.62011-1.1875-1.53614h.47949l.94825,1.23633.94726-1.23633h.46875l-1.1875,1.53614,1.25977,1.62011Z" transform="translate(-15.32968 -0.09101)"/>
          <path class="h" d="M176.07812,69.707h1.57227v.37109h-1.57227Z" transform="translate(-15.32968 -0.09101)"/>
          <path class="h" d="M181.15625,68.68359a1.34758,1.34758,0,0,1,.35156,1.00489v1.83007H181.082V69.73047a1.04541,1.04541,0,0,0-.24609-.75.92531.92531,0,0,0-.70215-.25781,1.08114,1.08114,0,0,0-.80762.30273,1.14828,1.14828,0,0,0-.29687.83691v1.65625h-.42578V68.3623h.4082v.582a1.19841,1.19841,0,0,1,.48242-.44727,1.55734,1.55734,0,0,1,.71777-.1582A1.28572,1.28572,0,0,1,181.15625,68.68359Z" transform="translate(-15.32968 -0.09101)"/>
          <path class="h" d="M182.48242,71.45215a.32356.32356,0,0,1-.09277-.2334.31746.31746,0,0,1,.09277-.23145.30888.30888,0,0,1,.22559-.09277.31815.31815,0,0,1,.22754.09277.30877.30877,0,0,1,.0957.23145.31459.31459,0,0,1-.0957.2334.31032.31032,0,0,1-.22754.09668A.30144.30144,0,0,1,182.48242,71.45215Zm1.30274,0a.32045.32045,0,0,1-.09375-.2334.31445.31445,0,0,1,.09375-.23145.30668.30668,0,0,1,.22461-.09277.32037.32037,0,0,1,.22851.09277.31239.31239,0,0,1,.0957.23145.31831.31831,0,0,1-.0957.2334.31244.31244,0,0,1-.22851.09668A.29933.29933,0,0,1,183.78516,71.45215Zm1.30761,0A.32356.32356,0,0,1,185,71.21875a.31746.31746,0,0,1,.09277-.23145.30889.30889,0,0,1,.22559-.09277.31652.31652,0,0,1,.22754.09277.31239.31239,0,0,1,.0957.23145.31831.31831,0,0,1-.0957.2334.30875.30875,0,0,1-.22754.09668A.30145.30145,0,0,1,185.09277,71.45215Z" transform="translate(-15.32968 -0.09101)"/>
        </g>
      </g>
      <g>
        <g>
          <rect class="a" x="132.67032" y="36.42799" width="46" height="90" rx="7"/>
          <rect class="d" x="133.47032" y="37.22799" width="44.4" height="88.4" rx="6.2"/>
        </g>
        <line class="i" x1="132.82732" y1="48.04199" x2="178.51332" y2="48.04199"/>
        <line class="i" x1="132.82732" y1="109.19099" x2="178.51332" y2="109.19099"/>
        <g>
          <circle class="j" cx="155.67032" cy="117.42799" r="5"/>
          <circle class="i" cx="155.67032" cy="117.42799" r="4"/>
        </g>
      </g>
    </g>
  </g>
</svg>
