<svg xmlns="http://www.w3.org/2000/svg" xmlns:xlink="http://www.w3.org/1999/xlink" width="64" height="64" viewBox="0 0 64 64">
  <defs>
    <clipPath id="clip-path">
      <rect id="Rectangle_24" data-name="Rectangle 24" width="64" height="64" transform="translate(560 223)" fill="#2b2b2b" stroke="#707070" stroke-width="1"/>
    </clipPath>
  </defs>
  <g id="Mask_Group_13" data-name="Mask Group 13" transform="translate(-560 -223)" clip-path="url(#clip-path)">
    <g id="noun_social_network_people_2166672" data-name="noun_social network people_2166672" transform="translate(559.128 222.128)">
      <g id="Group_55" data-name="Group 55" transform="translate(0.025 0.025)">
        <g id="Group_54" data-name="Group 54">
          <g id="Group_53" data-name="Group 53">
            <path id="Path_21" data-name="Path 21" d="M15.469,46.494h0l-.025-.018a6.441,6.441,0,0,1-2.667-4.583,7.972,7.972,0,0,1,1.435-5.484l.027-.038h0a7.965,7.965,0,0,1,4.635-3.188A6.315,6.315,0,0,1,26.758,38.7a8.164,8.164,0,0,1-6.1,8.712,6.437,6.437,0,0,1-5.191-.918Zm37.87-5.543a6.443,6.443,0,0,1-2.614,4.615,8.159,8.159,0,0,1-10.6-.87,6.311,6.311,0,0,1,.787-9.591,8.159,8.159,0,0,1,10.6.87A6.435,6.435,0,0,1,53.339,40.95ZM50.215,44.89a5.467,5.467,0,0,0,.684-8.333,7.317,7.317,0,0,0-9.475-.777,5.467,5.467,0,0,0-.684,8.333,7.317,7.317,0,0,0,9.475.777ZM62.5,20.813a5.291,5.291,0,0,1,.377.976,32.016,32.016,0,0,1-34.417,42.76,6.2,6.2,0,0,1-1.142-.178A32.012,32.012,0,0,1,3.979,19.039l-.014-.01.055-.074A32,32,0,0,1,50.527,6.179,31.85,31.85,0,0,1,62.5,20.813Zm.16,2.984a2.549,2.549,0,0,1-.484.643,2.836,2.836,0,0,1-1.266.693,3.394,3.394,0,0,1-1.516.032,4.035,4.035,0,0,1-2.1-1.185c-1.421-1.475-3.342-3.234-5.166-4.784A41.622,41.622,0,0,0,47.5,15.665a3.463,3.463,0,0,0-1.411-.5,1.64,1.64,0,0,0-1.052.233,1.887,1.887,0,0,0-.781,1.057,1.426,1.426,0,0,0,.116,1.139,9.209,9.209,0,0,0,2.338,1.889c1.941,1.319,4.5,3.056,6.084,5.7a22.866,22.866,0,0,1,2.022,19.282A30.884,30.884,0,0,1,51.48,51.5a17.91,17.91,0,0,1-5.71,5.581,18.4,18.4,0,0,1-4.239,1.781,36.146,36.146,0,0,1-5.607,1.129l-.01,0a2.994,2.994,0,0,0-2.357,1.271,1.693,1.693,0,0,0-.255.821,1.4,1.4,0,0,0,.2.772,2.5,2.5,0,0,0,2.01,1.006l0,.023A31.155,31.155,0,0,0,63.38,26.66q-.292-1.447-.722-2.862ZM33.419,64a2.514,2.514,0,0,1-.644-.705,2.231,2.231,0,0,1-.32-1.232,2.531,2.531,0,0,1,.378-1.232,3.824,3.824,0,0,1,3-1.675h0a35.182,35.182,0,0,0,5.461-1.1,17.563,17.563,0,0,0,4.045-1.695,17.078,17.078,0,0,0,5.438-5.322,30.105,30.105,0,0,0,3.241-6.845,22.017,22.017,0,0,0-1.946-18.575c-1.492-2.482-3.959-4.157-5.833-5.431a9.331,9.331,0,0,1-2.588-2.154,2.266,2.266,0,0,1-.2-1.808,2.745,2.745,0,0,1,1.135-1.533,2.471,2.471,0,0,1,1.582-.366,4.31,4.31,0,0,1,1.768.612,42.506,42.506,0,0,1,4.738,3.614c1.842,1.564,3.786,3.346,5.229,4.843a3.194,3.194,0,0,0,1.659.943,2.564,2.564,0,0,0,1.142-.022,2,2,0,0,0,.888-.484,1.711,1.711,0,0,0,.493-.905,1.78,1.78,0,0,0,.038-.6,2.191,2.191,0,0,0-.057-.3q-.158-.425-.326-.845l-.011-.022h0a31.1,31.1,0,0,0-1.579-3.328,2.557,2.557,0,0,1-1.5,1.869,2.889,2.889,0,0,1-1.284.238,3.458,3.458,0,0,1-2.881-1.927,21.86,21.86,0,0,0-2.967-3.441,22.069,22.069,0,0,0-33.978,4.556c-1.508,2.47-1.851,5.434-2.112,7.685a9.315,9.315,0,0,1-.711,3.291,2.262,2.262,0,0,1-1.51,1.016,2.744,2.744,0,0,1-1.882-.3,2.467,2.467,0,0,1-1.058-1.234,4.315,4.315,0,0,1-.277-1.849A42.616,42.616,0,0,1,11,21.862c.533-2.357,1.213-4.906,1.871-6.877a3.185,3.185,0,0,0,.067-1.908,2.555,2.555,0,0,0-.549-1,1.976,1.976,0,0,0-.84-.564,1.708,1.708,0,0,0-1.032-.016,1.554,1.554,0,0,0-.52.256,4.16,4.16,0,0,0-.858.925l-.021-.014a31.241,31.241,0,0,0-2.231,2.97q-.649.979-1.214,1.987a2.489,2.489,0,0,1,.853-.168,2.236,2.236,0,0,1,1.226.345,2.532,2.532,0,0,1,.874.948,3.817,3.817,0,0,1-.062,3.42h0a35.338,35.338,0,0,0-1.809,5.281,17.583,17.583,0,0,0-.577,4.348,17.08,17.08,0,0,0,1.853,7.383A30.181,30.181,0,0,0,12.3,45.43a22.024,22.024,0,0,0,17.019,7.687c2.892-.037,5.586-1.323,7.633-2.3a9.3,9.3,0,0,1,3.164-1.147,2.264,2.264,0,0,1,1.663.736,2.753,2.753,0,0,1,.751,1.755,2.461,2.461,0,0,1-.484,1.548,4.311,4.311,0,0,1-1.419,1.22A42.331,42.331,0,0,1,35.119,57.2c-2.28.8-4.8,1.581-6.818,2.072a3.191,3.191,0,0,0-1.65.958,2.552,2.552,0,0,0-.556.994,1.994,1.994,0,0,0-.032,1.013,1.709,1.709,0,0,0,.535.881,2.038,2.038,0,0,0,.735.382c.047.015.1.03.148.044A31.116,31.116,0,0,0,33.416,64Zm-19.8-22.2a5.6,5.6,0,0,0,2.309,3.99h0a5.6,5.6,0,0,0,4.542.8A7.311,7.311,0,0,0,25.917,38.8,5.463,5.463,0,0,0,19.067,34,7.124,7.124,0,0,0,14.9,36.889h0a7.126,7.126,0,0,0-1.285,4.9ZM25.531,63.134a2.539,2.539,0,0,1-.286-.7,2.833,2.833,0,0,1,.038-1.44,3.4,3.4,0,0,1,.738-1.328A4.025,4.025,0,0,1,28.1,58.447c1.991-.483,4.48-1.255,6.738-2.049a41.87,41.87,0,0,0,5.379-2.208,3.453,3.453,0,0,0,1.141-.968,1.642,1.642,0,0,0,.328-1.029,1.9,1.9,0,0,0-.519-1.205,1.428,1.428,0,0,0-1.041-.475,9.272,9.272,0,0,0-2.811,1.068c-2.116,1.009-4.9,2.34-7.986,2.379a22.855,22.855,0,0,1-17.672-7.981,30.969,30.969,0,0,1-4.393-6.43A17.91,17.91,0,0,1,5.331,31.8a18.371,18.371,0,0,1,.6-4.559,36.216,36.216,0,0,1,1.851-5.41l.005-.01a3,3,0,0,0,.09-2.679,1.7,1.7,0,0,0-.579-.634,1.4,1.4,0,0,0-.766-.216A2.42,2.42,0,0,0,4.741,19.4,31.177,31.177,0,0,0,25.529,63.135Zm5.34-51.46a5.6,5.6,0,0,0-3.094,3.417,7.314,7.314,0,0,0,3.7,8.76,5.6,5.6,0,0,0,4.6.17l.078-.038h.012A5.607,5.607,0,0,0,39.177,20.6a7.132,7.132,0,0,0-.231-5.064h0a7.121,7.121,0,0,0-3.465-3.7,5.607,5.607,0,0,0-4.61-.166Zm-.314-.784a6.436,6.436,0,0,1,5.284.185A7.975,7.975,0,0,1,39.719,15.2l.039.08v.015a7.957,7.957,0,0,1,.219,5.579,6.435,6.435,0,0,1-3.568,3.923l-.082.035h0a6.446,6.446,0,0,1-5.214-.214,7.971,7.971,0,0,1-3.883-4.133h0a7.966,7.966,0,0,1-.254-5.663A6.444,6.444,0,0,1,30.53,10.9l.013-.007.012,0Zm-19.5-.311a2.555,2.555,0,0,1,.763.131,2.836,2.836,0,0,1,1.2.8,3.4,3.4,0,0,1,.73,1.331,4.032,4.032,0,0,1-.077,2.411c-.649,1.943-1.32,4.461-1.848,6.794a41.629,41.629,0,0,0-.99,5.731,3.466,3.466,0,0,0,.214,1.482,1.649,1.649,0,0,0,.693.824,1.9,1.9,0,0,0,1.3.2,1.425,1.425,0,0,0,.954-.63,9.218,9.218,0,0,0,.591-2.946c.27-2.33.626-5.4,2.231-8.029a22.915,22.915,0,0,1,38.377-1.134l.015.022.01.018a2.633,2.633,0,0,0,2.18,1.5,2.046,2.046,0,0,0,.91-.169A1.737,1.737,0,0,0,59,18.387a2.276,2.276,0,0,0,.111-2.3l.01,0a31.169,31.169,0,0,0-48.062-5.505Z" fill="#2b2b2b"/>
          </g>
        </g>
      </g>
    </g>
  </g>
</svg>
