<svg xmlns="http://www.w3.org/2000/svg" xmlns:xlink="http://www.w3.org/1999/xlink" width="88" height="88" viewBox="0 0 88 88">
  <defs>
    <clipPath id="clip-path">
      <rect id="Rectangle_227" data-name="Rectangle 227" width="88" height="88" transform="translate(75 395)" fill="#fff" stroke="#707070" stroke-width="1"/>
    </clipPath>
  </defs>
  <g id="Mask_Group_35" data-name="Mask Group 35" transform="translate(-75 -395)" clip-path="url(#clip-path)">
    <g id="noun_security_emblems_2574527" data-name="noun_security emblems_2574527" transform="translate(72.634 392.636)">
      <g id="Group_113" data-name="Group 113" transform="translate(0.035 0.035)">
        <g id="Group_112" data-name="Group 112">
          <g id="Group_111" data-name="Group 111">
            <path id="Path_1050" data-name="Path 1050" d="M47.148,88.824C58.985,83.172,69.486,74.13,75.985,60.636c5.533-11.488,8.173-26.213,6.281-44.833a1.9,1.9,0,0,0-.313-1.005,1.175,1.175,0,0,0-.8-.361c-7.047-.965-13.105-3.357-19.14-5.74A90.818,90.818,0,0,0,46.328,3.589,91.084,91.084,0,0,0,30.642,8.7c-6.035,2.383-12.094,4.775-19.14,5.74a1.182,1.182,0,0,0-.8.361A1.911,1.911,0,0,0,10.39,15.8c-1.89,18.609.769,33.337,6.321,44.833C23.24,74.158,33.783,83.221,45.63,88.877a1.638,1.638,0,0,0,.734.221,2.267,2.267,0,0,0,.788-.273ZM45.925,80.91q.385,0,.769,0c.15,0,.3,0,.451-.009l.031,1.235-.341.008-.122,0-.244,0-.244,0h-.3ZM42.5,79.693l-.227-.133-.207-.122-.207-.124-.207-.124-.2-.124-.642,1.055.207.125.212.127.212.125.212.125.232.136.621-1.069Zm-4.116-2.63-.178-.125-.2-.141-.2-.142-.2-.144-.221-.162-.737.991.23.168.2.147.2.145.2.145.178.125Zm-3.864-2.985-.179-.153-.187-.161-.187-.162-.185-.164-.185-.164-.822.923.19.168.19.167.191.167.191.165.179.153.8-.939ZM30.95,70.745l-.057-.057-.175-.181-.175-.182-.173-.182-.173-.184-.09-.1L29.2,70.7l.094.1.176.188.178.187.178.187.179.185.057.057.886-.86Zm-3.231-3.658-.173-.218-.159-.2-.158-.2-.158-.2-.1-.134-.985.746.107.139.161.21.162.208.164.207.176.222Zm-2.857-3.955-.046-.069-.144-.222-.142-.224-.141-.224-.141-.225-.04-.065-1.055.644.043.069.144.232.145.23.145.229.147.227.046.069,1.036-.672ZM22.4,58.915l-.139-.269-.124-.244-.124-.246-.122-.246-.042-.083-1.11.541.043.09.125.252.127.252.127.25.142.275,1.1-.57Zm-2.046-4.431L20.3,54.34l-.105-.264-.105-.266-.1-.267-.076-.2-1.155.439.077.2.107.272.107.272.108.27.059.145Zm-1.637-4.6-.06-.2-.085-.284-.085-.286-.083-.287-.034-.119-1.189.334.036.125.085.293.086.292.088.29.06.2,1.183-.358Zm-1.237-4.73-.037-.173-.065-.3-.063-.306-.062-.307-.022-.107-1.212.236.022.113.063.313.065.312.066.31.037.173,1.208-.259Zm-.859-4.818-.009-.063-.045-.324-.043-.326-.042-.327-.022-.175-1.226.147.022.179.042.334.043.332.045.33.009.063,1.223-.17Zm-.507-4.871-.014-.195-.022-.344-.02-.346-.019-.341L14.81,34.3l.019.346L14.85,35l.023.349.014.195,1.232-.082Zm-.184-4.9,0-.235v-.363l0-.364,0-.264L14.7,29.326l0,.27,0,.369v.369l0,.235Zm.111-4.9.008-.156.02-.381.023-.383.019-.307-1.232-.08-.02.312-.023.388-.022.386-.008.156,1.234.065Zm.375-4.886c0-.015,0-.031.006-.046a1.29,1.29,0,0,1,.264-.715l0,0-.868-.879a2.434,2.434,0,0,0-.627,1.493h0Zm3.526-1.444.2-.04.122-.026.122-.026.122-.026.122-.026.122-.026.122-.028.293-.066-.281-1.2-.165.039-.119.026-.119.026-.119.026-.238.051-.119.025-.119.025-.193.04Zm4.843-1.249c.4-.124.794-.249,1.188-.378l-.388-1.174q-.581.192-1.166.372Zm4.7-1.628c.388-.145.774-.293,1.16-.442l-.445-1.152c-.383.148-.766.293-1.149.439l.435,1.157Zm4.613-1.8c.383-.151.764-.3,1.147-.449l-.448-1.152q-.577.225-1.152.452Zm4.6-1.747q.577-.206,1.157-.4l-.4-1.171c-.394.133-.786.27-1.177.409Zm4.664-1.479c.247-.066.5-.131.743-.2.147-.037.292-.074.439-.11l-.292-1.2-.332.082-.119.029-.236.06-.236.062-.289.077.321,1.192Zm4.511-.361.208.051.116.028.346.086c.171.043.341.088.511.133l.32-1.194-.29-.076-.236-.06-.119-.029L48.5,9.948l-.33-.08-.289,1.2Zm4.693,1.361q.581.195,1.158.4l.414-1.164c-.391-.139-.785-.273-1.178-.406l-.394,1.171Zm4.613,1.689q.574.222,1.147.449l.452-1.149q-.577-.227-1.154-.451l-.448,1.152Zm4.6,1.805q.579.225,1.158.443l.437-1.155q-.574-.218-1.149-.44Zm4.67,1.7q.591.2,1.186.383l.369-1.18c-.389-.122-.778-.247-1.164-.377l-.391,1.172Zm4.8,1.382.165.039.12.028.242.056.122.028.122.026.122.026.122.026.2.043.252-1.209-.2-.042-.238-.051-.119-.026-.119-.026-.119-.026-.119-.028-.117-.028-.162-.039-.284,1.2Zm4.625.931a.8.8,0,0,1,.3.519c.009.039.017.077.025.116l1.215-.222a2.073,2.073,0,0,0-.856-1.436l-.012-.008-.676,1.033Zm.65,4.255.011.164.025.383.023.383.017.3,1.234-.065-.017-.3-.023-.388-.025-.389-.011-.164-1.232.08Zm.2,4.9,0,.139,0,.366,0,.364v.358l1.235,0v-.363l0-.369,0-.371,0-.139-1.235.014ZM76.644,34l-.011.235-.019.347-.02.346-.019.3,1.232.08.019-.3.02-.351.019-.352.011-.235L76.643,34Zm-.4,4.885-.009.083L76.2,39.3l-.04.327-.042.326-.02.15,1.225.167.022-.156.043-.332.042-.332.04-.334.009-.083-1.228-.144Zm-.738,4.84-.065.338-.062.307-.063.306-.051.247,1.209.256.053-.253.063-.312.062-.313.066-.344-1.214-.232ZM74.4,48.487l-.015.054-.08.289-.082.287-.083.286-.077.259,1.183.354.079-.266.085-.292.083-.293.082-.295.015-.054L74.4,48.487Zm-1.5,4.65-.053.142-.1.267-.1.267-.1.266-.079.2,1.147.457.082-.207.105-.272.105-.272.1-.273.052-.142L72.9,53.137ZM71,57.634l-.015.032-.12.247-.12.246-.122.246-.124.244-.04.077,1.1.565.042-.083.127-.25.125-.252.124-.252.122-.253.015-.032-1.113-.536Zm-2.321,4.293-.147.242-.139.225-.141.224-.141.224-.077.12,1.039.667.08-.127.144-.229.144-.23.142-.232.15-.247-1.056-.639Zm-2.727,4.045-.063.085-.156.205-.156.2-.158.2-.158.2-.054.068.968.768.057-.073.162-.207.161-.208.161-.21.159-.21.063-.085-.988-.743Zm-3.113,3.757-.04.045-.17.185-.171.184-.171.182-.173.182L62,70.618l.89.857L63,71.36l.178-.187.176-.187.176-.188.175-.19.04-.045-.911-.835ZM59.37,73.165l-.122.11-.184.164-.185.164-.185.162-.187.161-.053.045.8.94.057-.049L59.5,74.7l.19-.167.19-.167.188-.168.122-.11-.823-.92Zm-3.777,3.093-.148.11-.2.144-.2.144-.2.142-.2.141-.053.037.712,1.01.057-.04.2-.145.2-.145.2-.147.2-.148.148-.11-.734-.993Zm-4.048,2.737-.117.073-.205.125-.205.124-.207.124-.207.122-.107.062.621,1.069.111-.065.212-.125.212-.125.21-.127.21-.128.117-.073ZM77.1,61.17c-6.634,13.777-17.347,23-29.416,28.767a3.179,3.179,0,0,1-1.265.389A2.681,2.681,0,0,1,45.1,89.99C33.022,84.224,22.269,74.975,15.6,61.17,9.958,49.481,7.251,34.534,9.165,15.681a3.038,3.038,0,0,1,.584-1.662,2.327,2.327,0,0,1,1.589-.806c6.885-.942,12.88-3.309,18.851-5.668A91.177,91.177,0,0,1,46.21,2.352l.119-.023.119.023A91.264,91.264,0,0,1,62.469,7.546C68.441,9.9,74.436,12.271,81.32,13.213a2.327,2.327,0,0,1,1.589.806,3.033,3.033,0,0,1,.584,1.662c1.916,18.864-.771,33.808-6.4,45.489Z"/>
          </g>
        </g>
      </g>
    </g>
  </g>
</svg>
