<svg xmlns="http://www.w3.org/2000/svg" xmlns:xlink="http://www.w3.org/1999/xlink" width="88" height="88" viewBox="0 0 88 88">
  <defs>
    <clipPath id="clip-path">
      <rect id="Rectangle_206" data-name="Rectangle 206" width="88" height="88" transform="translate(4256 -1204)" fill="#fff" stroke="#2b2b2b" stroke-width="1"/>
    </clipPath>
  </defs>
  <g id="Mask_Group_18" data-name="Mask Group 18" transform="translate(-4256 1204)" clip-path="url(#clip-path)">
    <g id="noun_admission_2008096" transform="translate(4253.493 -1206.506)">
      <g id="Group_66" data-name="Group 66" transform="translate(0.035 0.035)">
        <g id="Group_65" data-name="Group 65">
          <g id="Group_64" data-name="Group 64">
            <path id="Path_989" data-name="Path 989" d="M9.762,72.763c.231.35.468.694.709,1.038l1.013-.714c-.234-.333-.465-.669-.689-1.008ZM47.09,10.19v14.5a23.808,23.808,0,0,1,23.188,23.8,24.137,24.137,0,0,1-.239,3.377,23.721,23.721,0,0,1-.711,3.293,9.375,9.375,0,0,1-.711,1.682,4.572,4.572,0,0,0-.6,1.661,21.829,21.829,0,0,0,1.19,7.236A24.865,24.865,0,0,0,72.416,72.7c.714.962,1.256,1.512,1.727,1.6.4.077.872-.239,1.512-.99A38.309,38.309,0,0,0,47.092,10.188Zm-1.239,14.5V10.19A38.3,38.3,0,0,0,17.288,73.312c.638.75,1.108,1.066,1.512.99.471-.09,1.013-.64,1.727-1.6a13.616,13.616,0,0,0,.929-1.459c.008-.014.015-.028.023-.04a29.69,29.69,0,0,0,2.254-5.457,21.869,21.869,0,0,0,1.19-7.236,4.506,4.506,0,0,0-.6-1.661,9.359,9.359,0,0,1-.711-1.682A23.812,23.812,0,0,1,45.853,24.7Zm-6.226,61.3-.412.424a3.354,3.354,0,0,1-2.008,1.27,2.783,2.783,0,0,1-1.518-.138,2.606,2.606,0,0,1-1.182-.911,2.707,2.707,0,0,1-.474-1.929c0-.034.009-.068.014-.1a2.818,2.818,0,0,1-.7.006,2.755,2.755,0,0,1-1.572-.731,2.689,2.689,0,0,1-.812-1.5,2.644,2.644,0,0,1-.02-.751,2.72,2.72,0,0,1,.2-.745,2.889,2.889,0,0,1-.465-.015A2.755,2.755,0,0,1,29.1,80.14a2.689,2.689,0,0,1-.812-1.5,2.689,2.689,0,0,1,.071-1.2,2.327,2.327,0,0,1-.668-.144,2.484,2.484,0,0,1-.837-.528,2.684,2.684,0,0,1-.573-.779,2.1,2.1,0,0,1,.02-2.006,9.506,9.506,0,0,0-3.949-1.809,13.856,13.856,0,0,1-.83,1.269c-.9,1.214-1.664,1.924-2.492,2.08-.9.17-1.719-.28-2.678-1.407a39.569,39.569,0,1,1,60.244,0c-.957,1.125-1.783,1.575-2.678,1.407A3.569,3.569,0,0,1,72,74.161c-.637.1-1.366.194-2.161.3-3.978.524-9.618,1.267-12.958,3.468a3.2,3.2,0,0,1,.514,1.676,2.782,2.782,0,0,1-.4,1.473,2.61,2.61,0,0,1-1.1,1.007,2.71,2.71,0,0,1-1.983.133c-.033-.009-.065-.02-.1-.031A2.768,2.768,0,0,1,52.712,84.3a2.672,2.672,0,0,1-3.064.112,2.842,2.842,0,0,1-.094.457,2.758,2.758,0,0,1-.991,1.421,2.674,2.674,0,0,1-2.795.265,2.269,2.269,0,0,1-.257.63,2.529,2.529,0,0,1-.665.737,2.685,2.685,0,0,1-.866.431,2.047,2.047,0,0,1-2.2-.6c-.706-.539-1.425-1.132-2.153-1.764ZM27.313,74.718a.965.965,0,0,0,.076.727,1.458,1.458,0,0,0,.307.417,1.294,1.294,0,0,0,.426.271,1.018,1.018,0,0,0,.846-.067C28.405,75.586,27.852,75.133,27.313,74.718ZM30,76.971a2.228,2.228,0,0,0-.508,1.056,1.419,1.419,0,0,0,.448,1.213,1.52,1.52,0,0,0,.866.4,1.624,1.624,0,0,0,.465-.014,1.563,1.563,0,0,0,.979-.575c-.759-.72-1.512-1.421-2.251-2.084Zm3.227,3.016-.217.294c-.085.115-.144.191-.2.266a2.587,2.587,0,0,0-.643,1.225,1.419,1.419,0,0,0,.448,1.213,1.52,1.52,0,0,0,.866.4,1.624,1.624,0,0,0,.465-.014,1.68,1.68,0,0,0,1.061-.661l.18-.189.282-.381q-.525-.5-1.05-1.012-.595-.574-1.19-1.146Zm3.138,3.019-.2.273-.022.031-.039.053c-.085.115-.144.191-.2.266a2.587,2.587,0,0,0-.643,1.225,1.509,1.509,0,0,0,.246,1.067,1.38,1.38,0,0,0,.626.479,1.553,1.553,0,0,0,.85.074,2.142,2.142,0,0,0,1.267-.827.64.64,0,0,1,.06-.071l.39-.4c-.771-.694-1.549-1.424-2.331-2.167Zm19.776-6.072c3.58-2.386,9.418-3.155,13.534-3.7.519-.068,1.01-.133,1.464-.2a27.479,27.479,0,0,1-3.114-6.934,26.747,26.747,0,0,1-1.262-6.58c-1.018.355-2.976.974-4.887,1.548-2.147.643-4.265,1.244-4.932,1.36A13.892,13.892,0,0,1,50.1,61.6a14.808,14.808,0,0,0-5.172-.922h0c-3.422.218-5.5,1.509-6.759,3.173A10.917,10.917,0,0,0,36.25,69.3a.935.935,0,0,0,.252.469,1.016,1.016,0,0,0,.409.248,1.284,1.284,0,0,0,.578.043,2.459,2.459,0,0,0,1.354-.764,9.18,9.18,0,0,0,.823-1c.387-.527.762-1.1,1.019-1.52A6.339,6.339,0,0,1,41.7,65.424a2.238,2.238,0,0,1,1.75-.655l.025,0c2.07.1,3.478,1.569,5,3.154,2.263,2.358,4.813,5.013,10.28,2.79a.618.618,0,1,1,.465,1.146,9.765,9.765,0,0,1-6.227.731l3.146,4.339ZM42.573,86.812a.117.117,0,0,1,.022.017q.1.079.2.153a.62.62,0,0,1,.146.153.979.979,0,0,0,.7.033,1.408,1.408,0,0,0,.465-.232,1.274,1.274,0,0,0,.339-.369,1.16,1.16,0,0,0-.144-1.292l-6.108-6.407a.618.618,0,1,1,.9-.852l6.136,6.436c.093.1.161.172.229.246a2.606,2.606,0,0,0,1.1.844,1.4,1.4,0,0,0,.4.06,1.439,1.439,0,0,0,.875-.294,1.513,1.513,0,0,0,.545-.787,1.6,1.6,0,0,0,.068-.457,1.687,1.687,0,0,0-.472-1.162c-.048-.065-.1-.133-.178-.242A.624.624,0,0,1,47.7,82.5L41.666,76.17a.618.618,0,1,1,.9-.852l6.811,7.144c.093.1.161.172.229.246a2.606,2.606,0,0,0,1.1.844,1.4,1.4,0,0,0,.4.06,1.439,1.439,0,0,0,.875-.294,1.513,1.513,0,0,0,.545-.787,1.6,1.6,0,0,0,.068-.457,1.687,1.687,0,0,0-.472-1.162c-.043-.059-.09-.119-.156-.212L45.23,73.649a.618.618,0,1,1,.9-.852l6.732,7.061a.379.379,0,0,1,.042.045l.037.039c.093.1.161.172.229.246a2.606,2.606,0,0,0,1.1.844,1.5,1.5,0,0,0,1.092-.062,1.379,1.379,0,0,0,.578-.533,1.56,1.56,0,0,0,.222-.824,2.135,2.135,0,0,0-.584-1.376.543.543,0,0,1-.073-.084l-4.763-6.57a18.21,18.21,0,0,1-3.149-2.8c-1.348-1.4-2.593-2.7-4.173-2.777a.3.3,0,0,1-.037,0,1.077,1.077,0,0,0-.83.325,5.432,5.432,0,0,0-.8,1.1c-.274.448-.671,1.052-1.078,1.608a10.286,10.286,0,0,1-.948,1.142,3.657,3.657,0,0,1-2.056,1.112,2.522,2.522,0,0,1-1.125-.091,2.265,2.265,0,0,1-.908-.553,2.163,2.163,0,0,1-.613-1.236.666.666,0,0,1,0-.147,12.19,12.19,0,0,1,2.17-6.156,8.559,8.559,0,0,1,1.262-1.341,27.6,27.6,0,0,0-3.983-.1c-2.86.065-5.8.132-8.332-1.4A28.688,28.688,0,0,1,24.909,66.1a32.635,32.635,0,0,1-1.946,4.917c3.537.756,7.9,4.971,12.307,9.219a88.99,88.99,0,0,0,7.3,6.57ZM66.748,58.244a.469.469,0,0,1,.059-.037,5.843,5.843,0,0,1,.706-1.918,8.362,8.362,0,0,0,.629-1.47,22.325,22.325,0,0,0,.672-3.124,22.868,22.868,0,0,0,.225-3.2A22.568,22.568,0,1,0,24.8,54.819a8.48,8.48,0,0,0,.629,1.47,5.481,5.481,0,0,1,.728,2.121c.011.13.017.263.022.4,2.353,1.754,5.351,1.685,8.264,1.619a21.342,21.342,0,0,1,5.329.311.582.582,0,0,1,.1.034,11.673,11.673,0,0,1,4.979-1.334h.009a15.707,15.707,0,0,1,5.6.974,12.89,12.89,0,0,0,6.272.8c.613-.107,2.677-.694,4.787-1.326C64.07,59.125,66.638,58.323,66.748,58.244ZM81.892,72.457c-.226.338-.463.671-.7,1l1.005.725c.245-.339.486-.683.72-1.03ZM46.469,5.728l.277,0,.276,0,.276,0,.177,0L47.506,4.5l-.184,0-.283,0-.283,0-.285,0-.285,0-.282,0,.015,1.239.274,0Zm2.223.057.251.014.273.017.273.019.271.02.153.012.1-1.235-.161-.012-.279-.02-.28-.019-.28-.017-.251-.014-.071,1.238Zm2.435.194.253.028.268.031.268.033.268.034.158.022L52.514,4.9l-.166-.023-.276-.036L51.8,4.807l-.276-.033-.252-.028-.141,1.232Zm2.42.333.228.039.263.046.263.048.262.05.187.037.24-1.216-.2-.039-.27-.051-.271-.05-.271-.048-.228-.039-.211,1.221Zm2.4.471.181.042.259.06.257.062.257.064.235.06.308-1.2L57.2,5.809l-.265-.065-.265-.064-.266-.062-.181-.042-.279,1.208Zm2.367.607.118.034.252.074.253.076.251.077.251.079.043.014.383-1.179-.051-.017-.259-.081-.259-.079-.259-.077-.26-.076L58.657,6.2l-.345,1.19Zm2.328.742.04.014.246.088.246.09.245.091.245.091.124.048L62.234,7.4l-.13-.05-.251-.094L61.6,7.163l-.252-.091-.254-.09-.04-.014-.412,1.17Zm2.279.874.2.082.24.1.239.1.239.105.211.094.511-1.129-.218-.1-.245-.108-.246-.107L63.6,7.947l-.2-.082Zm2.228,1.005.1.046.232.115.232.116.231.118.231.119.07.036.578-1.1-.076-.04L66.5,9.3l-.237-.121-.239-.119-.239-.118-.1-.046-.545,1.114Zm2.164,1.129.22.124.225.129.223.13.223.13.169.1.637-1.063-.175-.1-.229-.135-.229-.133-.231-.132-.22-.124-.612,1.078Zm2.1,1.253.11.07.217.139.215.141.215.143.214.144.05.034.7-1.022L71.075,12l-.22-.147-.222-.146-.222-.146-.223-.144-.11-.07Zm2.023,1.371.209.152.208.152.206.153.206.155.152.116.754-.984-.158-.121-.211-.16-.212-.158-.214-.156-.215-.156-.725,1.005Zm1.939,1.482.1.081.2.163.2.164.2.166.2.166.05.042.812-.937-.054-.046-.2-.17-.2-.17-.2-.169-.2-.167-.1-.081Zm1.853,1.589.187.172.189.173.187.175.186.177.146.139.86-.892-.15-.144-.192-.181-.192-.18-.194-.18-.187-.172Zm1.761,1.695.082.084.178.184.178.186.177.186.175.187.053.057.912-.84-.057-.062-.18-.192-.181-.192-.183-.191-.184-.189-.082-.084-.886.866Zm1.661,1.789.158.183.167.2.166.2.166.2.136.164.956-.788-.141-.169-.17-.2-.17-.2-.172-.2-.158-.183-.937.812ZM80.205,22.2l.067.085.156.2.156.2.155.206.153.206.051.07,1-.73-.056-.074-.158-.212-.16-.211-.16-.211-.161-.209-.067-.085-.979.761Zm1.447,1.966.135.2.144.212.144.214.143.215.118.18,1.039-.675-.122-.186-.146-.222-.147-.22-.149-.218-.135-.2-1.022.7Zm1.334,2.049.057.094.133.222.132.222.13.223.13.223.039.068,1.078-.612-.042-.074-.133-.229-.135-.229-.136-.228-.138-.228-.057-.094-1.06.643ZM84.2,28.337l.119.223.121.229.119.231.118.231.087.173,1.109-.551-.09-.181-.121-.237-.122-.237-.124-.235-.119-.223Zm1.091,2.187.059.129.108.237.107.237.105.239.1.239.015.036,1.142-.483-.019-.043-.107-.246-.108-.245-.11-.245-.112-.243-.059-.129-1.126.517Zm.964,2.246.014.037.094.243.093.243.091.245.091.245.046.127,1.166-.418-.05-.135-.093-.253-.094-.251-.1-.251-.1-.251-.014-.037-1.153.454Zm.832,2.294.068.206.081.249.079.251.077.251.064.211,1.188-.353-.065-.217L88.5,35.4l-.081-.259-.082-.257-.068-.206-1.179.383Zm.7,2.341.037.138.067.256.065.257.064.257.067.276,1.208-.279-.07-.291-.065-.265-.067-.263-.068-.263-.037-.138-1.2.316Zm.564,2.378.017.085.053.262.051.262.05.262.048.263.011.065,1.221-.211-.012-.073-.05-.271-.051-.27-.053-.27-.054-.27-.017-.085-1.214.248Zm.426,2.406.008.051.039.266.037.266.034.268.033.268.011.09,1.232-.141-.011-.1-.034-.276-.036-.276-.037-.274-.039-.274L90,42.009l-1.227.18Zm.288,2.426,0,.039.023.271.022.271.02.271.019.273.006.091,1.238-.071-.006-.1-.019-.28-.02-.279-.022-.279-.023-.279,0-.039-1.235.11Zm.149,2.438,0,.054.008.274.006.276,0,.276,0,.276v.062h1.239V48.2l0-.283,0-.283-.006-.283-.008-.283,0-.054-1.239.039Zm.012,2.443q-.014.611-.045,1.221l1.238.065q.033-.627.046-1.255ZM89.1,51.937q-.046.609-.115,1.216l1.232.136c.045-.417.085-.835.118-1.252l-1.235-.1Zm-.263,2.429c-.054.4-.116.806-.183,1.207l1.222.206q.1-.62.189-1.244l-1.227-.169Zm-.4,2.41c-.077.4-.163.8-.253,1.194l1.208.276q.139-.613.26-1.23l-1.216-.239Zm-.539,2.381c-.1.4-.209.787-.321,1.179l1.191.342c.116-.4.226-.806.33-1.211l-1.2-.311Zm-.675,2.348c-.124.387-.252.775-.387,1.157L88,63.075q.209-.593.4-1.193l-1.18-.378Zm-.809,2.3c-.146.38-.3.759-.454,1.134l1.143.48q.242-.581.468-1.166l-1.156-.446Zm-.94,2.254c-.167.37-.339.742-.519,1.106l1.114.545c.184-.376.361-.757.534-1.139l-1.128-.513Zm-1.069,2.2c-.187.361-.383.719-.581,1.075l1.081.606c.2-.366.406-.734.6-1.106l-1.1-.573Zm-1.193,2.132c-.208.35-.423.7-.641,1.039l1.046.666c.225-.353.446-.709.66-1.069l-1.064-.635ZM44.648,4.523l-.158.006-.282.014-.28.015-.28.017-.252.017.087,1.236.245-.017L44,5.8l.273-.014.274-.012.158-.006-.054-1.238ZM42.14,4.7l-.166.017-.277.029-.277.031-.276.033-.251.031.156,1.23.243-.029.268-.031.27-.029.27-.028.166-.017L42.14,4.7Zm-2.494.316-.147.023-.273.045-.271.046-.271.048-.277.051.234,1.218h0L38.9,6.4l.263-.046L39.43,6.3l.265-.043.147-.023-.2-1.224Zm-2.471.459-.107.023-.266.059-.266.06-.266.062L36,5.739l-.056.014.3,1.2.048-.012.257-.062.259-.06.259-.059.26-.057.107-.023L37.176,5.47Zm-2.441.6-.046.012-.262.073-.26.074-.26.076-.259.077-.119.037L33.9,7.6l.112-.034.252-.076.252-.074.254-.073.254-.071.046-.012-.332-1.194Zm-2.406.739-.225.077-.254.088-.254.09-.253.091-.2.073.434,1.162.189-.07.246-.09.246-.088.248-.087.225-.077-.4-1.171Zm-2.355.875-.135.054-.248.1-.248.1-.246.105-.246.107-.037.017.5,1.132.031-.014.239-.1.24-.1.24-.1.242-.1.135-.054Zm-2.3,1.008-.037.017-.242.115-.24.116-.239.118-.239.119-.133.068.565,1.1.127-.064.232-.116.232-.115.234-.113.234-.112.037-.017-.531-1.12ZM25.431,9.835l-.167.091-.232.129-.232.13-.231.132-.234.135.63,1.067,0,0,.223-.13.225-.129.225-.127.226-.125.167-.091-.6-1.086ZM23.261,11.1l-.059.036-.225.141-.223.143-.223.144-.222.146-.107.071.688,1.032.1-.067.215-.141.217-.139.217-.138.218-.138.059-.036L23.261,11.1Zm-2.1,1.39L21,12.606l-.215.153-.214.155-.214.156-.208.155.742.993.2-.15.208-.152.208-.15.209-.15.164-.116-.719-1.01Zm-2.011,1.5-.054.043-.206.166-.2.166-.2.167-.2.169-.1.085.8.946.094-.079.2-.164.2-.163.2-.161.2-.161.054-.043L19.154,14Zm-1.926,1.619-.146.13-.2.177-.2.178-.194.18-.2.184.855.9h0l.187-.175.189-.173.189-.173.191-.172.146-.13ZM15.4,17.336l-.042.042-.186.187-.184.189-.184.189-.183.191-.1.1.9.85.093-.1.178-.186.178-.184.18-.183.181-.181.042-.042-.877-.877Zm-1.73,1.826-.122.136-.175.2-.173.2-.172.2-.183.215.951.795.173-.2.167-.2.169-.194.17-.192.122-.136-.926-.823Zm-1.62,1.918-.029.037-.164.208-.163.208-.161.209-.16.211-.091.122.993.742.087-.116.156-.2.156-.2.158-.2.16-.2.029-.037-.97-.771Zm-1.512,2.011-.1.144-.152.217-.15.218-.149.218-.16.239,1.035.682.152-.226.144-.212.146-.212.147-.211.1-.144-1.015-.713ZM9.144,25.18l-.026.042-.139.226-.138.226L8.7,25.9l-.136.228-.074.127,1.07.624.071-.121.132-.222.133-.222.135-.22.136-.218.026-.042Zm-1.273,2.17-.091.166-.127.234-.125.235-.124.235-.122.237,1.1.565.119-.229.121-.229.121-.228.122-.228.091-.166-1.089-.592ZM6.726,29.586l-.033.068L6.58,29.9l-.113.243-.112.243-.11.245-.045.1,1.135.5.042-.1.107-.237.108-.237.108-.235.11-.235.033-.068-1.12-.531Zm-1.016,2.3-.088.22-.1.249-.1.251-.1.251-.074.2,1.162.434.073-.192.093-.243.094-.243.1-.242.088-.22-1.149-.462Zm-.881,2.353-.046.138-.085.256-.084.257-.082.257-.081.259-.009.031,1.185.361.087-.274.081-.249.082-.249.084-.249.046-.138-1.174-.4Zm-.745,2.4-.019.067-.071.262-.07.263-.068.263-.067.263-.025.1,1.2.294.023-.091.065-.257.067-.256.068-.256.07-.254.019-.067L4.085,36.64Zm-.606,2.438-.059.276-.056.268-.054.27-.053.27-.028.15,1.219.226.026-.143.051-.262.053-.262.054-.26.057-.268L3.478,39.08Zm-.465,2.474-.037.237-.04.273-.039.274-.037.274-.023.183,1.23.156.023-.175.037-.266.039-.266.04-.266.037-.237-1.225-.187Zm-.322,2.492-.022.225-.026.279-.023.279-.022.279-.014.191,1.236.087.014-.183.022-.271.023-.271.025-.27.022-.225-1.233-.118Zm-.18,2.506L2.5,46.79l-.009.282-.008.283-.006.283,0,.169,1.239.015,0-.161.006-.276.008-.274.009-.274L3.75,46.6l-1.238-.046Zm-.039,2.511q.009.627.034,1.255l1.238-.051q-.026-.611-.033-1.222Zm.1,2.511q.044.627.1,1.252L3.911,52.7c-.04-.406-.073-.812-.1-1.218l-1.236.088Zm.245,2.5c.053.415.112.832.175,1.245l1.224-.194c-.064-.4-.119-.806-.17-1.21l-1.23.158Zm.387,2.483c.076.412.16.823.246,1.233l1.211-.262q-.128-.6-.24-1.2l-1.219.226Zm.528,2.458c.1.407.206.813.318,1.216L5.247,59.9c-.108-.392-.211-.787-.308-1.182ZM4.4,61.44q.186.6.387,1.2l1.173-.4c-.132-.386-.256-.773-.376-1.162Zm.807,2.381q.218.59.455,1.171l1.148-.466q-.23-.567-.441-1.139Zm.943,2.33c.167.384.342.765.522,1.143l1.12-.531c-.173-.369-.344-.739-.507-1.112l-1.134.5ZM7.23,68.421c.191.373.386.745.587,1.112l1.087-.6c-.2-.356-.384-.717-.569-1.08l-1.1.562Zm1.2,2.207c.211.362.428.72.649,1.077l1.052-.655Q9.811,70.532,9.5,70l-1.069.626Z"/>
          </g>
        </g>
      </g>
    </g>
  </g>
</svg>
