<svg xmlns="http://www.w3.org/2000/svg" xmlns:xlink="http://www.w3.org/1999/xlink" width="88" height="88" viewBox="0 0 88 88">
  <defs>
    <clipPath id="clip-path">
      <rect id="Rectangle_257" data-name="Rectangle 257" width="88" height="88" transform="translate(122 184)" fill="#2b2b2b" stroke="#707070" stroke-width="1"/>
    </clipPath>
  </defs>
  <g id="Mask_Group_41" data-name="Mask Group 41" transform="translate(-122 -184)" clip-path="url(#clip-path)">
    <g id="noun_house_door_1713761" data-name="noun_house door_1713761" transform="translate(117.287 179.277)">
      <path id="Path_1058" data-name="Path 1058" d="M57.4,11.461,63.1,10.1V7.146l-3.032,2.8a.367.367,0,0,1,0,.042.588.588,0,0,1-.588.588H57.034a.588.588,0,1,1,0-1.176h2.452a.538.538,0,0,1,.089.006l2.993-2.761H21.305l2.946,2.717a.4.4,0,0,1,.044,0h2.452a.588.588,0,0,1,0,1.176H24.883v1.9a.588.588,0,1,1-1.176,0V9.945a.481.481,0,0,1,.006-.084l-3.032-2.8V82.232h5.052V12.047a.588.588,0,0,1,.588-.588H57.4Zm8.818,73.813,5.855,6.473a.367.367,0,0,1-.544.492l-6.553-7.245-5.967-1.348,5.553,8.187a.366.366,0,0,1-.606.411l-5.993-8.833-.245-.055a.59.59,0,0,1-.252.057H53.195l3.854,8.521a.367.367,0,0,1-.669.3l-3.99-8.823h-4.81l1.954,8.638a.367.367,0,0,1-.716.161l-1.989-8.8H42v8.763a.369.369,0,0,1-.737,0V83.413H36.457L34.447,92.3a.367.367,0,1,1-.716-.161L35.7,83.413h-4.75l-4.071,9.005a.367.367,0,1,1-.669-.3l3.935-8.7H25.486l-6.176,9.1a.366.366,0,1,1-.606-.411l5.9-8.693H20.087a.287.287,0,0,1-.037,0L11.737,92.6a.367.367,0,0,1-.544-.492l8.313-9.192a.618.618,0,0,1-.008-.1V6.056a.588.588,0,0,1,.588-.588h43.6a.588.588,0,0,1,.588.588V9.822L85.6,4.739a.588.588,0,0,1,.708.437.559.559,0,0,1,.016.136V89.087a.588.588,0,0,1-.588.588.619.619,0,0,1-.175-.026L66.208,85.277Zm-14-3.04a.343.343,0,0,1,.034-.018.366.366,0,0,1,.336.018h4.286v-69.6H26.908v69.6H46.96a.343.343,0,0,1,.115,0h5.143ZM84.67,48.439a18.526,18.526,0,0,1-.44,3.789c-.271,1.177-.69,2.028-1.2,2.028s-.911-.564-1.166-1.473a11.069,11.069,0,0,1-.344-2.579.606.606,0,0,1-.45-.227,1.459,1.459,0,0,1-.414-.354l-.016,7.6a.367.367,0,0,1-.367.367h-.013L77.745,57.5l-2.47-.084c-.671-.023-1.289-.044-1.9-.067-.95-.034-1.889-.067-2.8-.1a.368.368,0,0,1-.356-.378v0q.01-2.446.019-4.895l.021-4.9q.015-3.267.026-6.543l.013-3.225a.366.366,0,0,1,.336-.364v0q2.251-.19,4.589-.393l.1-.008q1.637-.141,3.321-.279l1.65-.138a.367.367,0,0,1,.4.336.393.393,0,0,1,0,.062l-.019,9.393a.989.989,0,0,1,.866-.326c.045,0,.091,0,.14,0l.032,0a8.233,8.233,0,0,1,1.156.2,3.91,3.91,0,0,0,.59.107,1.152,1.152,0,0,1,.97.627,2.5,2.5,0,0,1,.325,1.272,2.8,2.8,0,0,1-.073.64ZM82.256,50.1a10.5,10.5,0,0,0,.318,2.486c.161.577.326.932.458.932a3.848,3.848,0,0,0,.481-1.457,17.671,17.671,0,0,0,.37-2.472.953.953,0,0,1-.434.1,3,3,0,0,0-.625.2c-.185.071-.378.145-.567.2Zm.606-3.558a3.132,3.132,0,0,1,.273,1.312,3.194,3.194,0,0,1-.235,1.228,1.787,1.787,0,0,1,.549-.125c.117,0,.239-.1.339-.27a1.935,1.935,0,0,0,0-1.783c-.1-.167-.222-.27-.339-.27A3.242,3.242,0,0,1,82.862,46.544Zm-.745.161a.516.516,0,0,0-.994,0,2.494,2.494,0,0,0,0,2.306.516.516,0,0,0,.994,0,2.494,2.494,0,0,0,0-2.306ZM60,59.125c1.353.075,2.678.145,4.026.216l.08,0c.568.029,1.14.062,1.715.093.874.047,1.757.1,2.623.14a.367.367,0,0,1,.349.383l-.044,9.721q-.01,2.46-.023,4.929-.012,2.412-.023,4.822a.366.366,0,0,1-.367.365.38.38,0,0,1-.062,0v0l-6.434-1.127-2.041-.357a.368.368,0,0,1-.3-.393l.117-18.428a.367.367,0,0,1,.369-.365H60Zm3.989.948-3.646-.195-.114,17.762,1.736.3L67.968,79q.01-2.19.021-4.386.012-2.465.023-4.929l.042-9.388c-.78-.041-1.531-.081-2.275-.122-.577-.031-1.148-.063-1.715-.093Zm6.486-.461q1.14.063,2.3.123c.81.042,1.629.086,2.4.128h.007L77.639,60q1.247.066,2.522.135a.367.367,0,0,1,.348.385c-.437,6.4-.031,14.314-.044,20.9a.367.367,0,0,1-.367.367.417.417,0,0,1-.063,0v0L75.026,80.9l-4.719-.825a.369.369,0,0,1-.3-.393q.01-2.438.021-4.875.01-2.487.021-4.976l.039-9.853a.367.367,0,0,1,.369-.365h.018Zm2.267.856-1.921-.1-.039,9.468q-.01,2.487-.021,4.976L70.737,79.4l4.416.771,4.58.8.042-20.131L77.6,60.728,75.14,60.6h-.006l-2.4-.128Zm2.543-23.186q-2.163.188-4.255.364l-.011,2.889q-.012,3.274-.026,6.543l-.021,4.9q-.01,2.275-.019,4.55c.815.026,1.626.055,2.444.084l1.9.067,2.47.084,2.144.075.042-19.951-1.252.1c-1.122.094-2.23.185-3.321.279l-.1.008Zm-15.1.625L61.5,37.8q1.371-.114,2.777-.234l2.144-.184,2.186-.185a.367.367,0,0,1,.4.336.391.391,0,0,1,0,.062q-.01,2.365-.023,4.737-.012,2.441-.023,4.88l-.042,9.681a.367.367,0,0,1-.369.365h-.011c-.767-.028-1.488-.052-2.2-.076-.732-.024-1.458-.05-2.142-.075l-2.085-.073c-.692-.023-1.379-.047-2.027-.07a.367.367,0,0,1-.354-.38c.3-5.872.078-12.362.117-18.311a.366.366,0,0,1,.336-.364v0Zm1.382.624-.987.083-.112,17.63c.564.019,1.114.039,1.668.057.7.024,1.408.047,2.088.073l2.14.075,1.829.063.041-9.3q.01-2.438.023-4.88.01-2.185.021-4.365l-1.786.151-2.145.184q-1.406.122-2.777.234Zm9.187-24.482L75.418,13l2.452-.552,2.5-.564a.368.368,0,0,1,.438.278.335.335,0,0,1,.008.1l-.042,20.521a.365.365,0,0,1-.33.364h0l-1.613.169c-1.109.117-2.2.231-3.358.356l-2.368.255c-.724.078-1.484.159-2.324.247a.368.368,0,0,1-.4-.328c0-.019,0-.039,0-.058l.039-9.689q.01-2.385.019-4.773.01-2.458.021-4.916a.366.366,0,0,1,.286-.356h0Zm2.788.123-2.342.528-.019,4.624q-.01,2.387-.019,4.773l-.037,9.3c.59-.062,1.236-.132,1.916-.2l2.368-.255c1.051-.114,2.2-.234,3.36-.356l1.285-.135.041-19.75-2.054.463-2.452.552Zm-13.21,2.306,5.619-1.263,2.787-.627a.368.368,0,0,1,.438.278.346.346,0,0,1,.008.1c-.016,3.159-.029,6.33-.044,9.489v.062q-.01,2.39-.021,4.786t-.023,4.8a.365.365,0,0,1-.328.362h0c-.853.094-1.756.188-2.647.283-.52.055-1.035.109-1.682.179l-.253.028c-1.27.136-2.517.271-3.851.411a.368.368,0,0,1-.4-.328c0-.019,0-.039,0-.058l.115-18.139a.366.366,0,0,1,.286-.356Zm2.868.107-2.423.544-.11,17.457c1.08-.114,2.251-.24,3.441-.367l.253-.028c.464-.05,1.073-.114,1.686-.179.752-.08,1.51-.159,2.317-.247q.012-2.234.021-4.468.012-2.4.021-4.786v-.062c.013-3.011.026-6.033.042-9.046Zm-5.14,65.641,27.1,6.123V6.054l-27.1,6.459Z" fill="#2b2b2b"/>
    </g>
  </g>
</svg>
