<svg xmlns="http://www.w3.org/2000/svg" xmlns:xlink="http://www.w3.org/1999/xlink" width="88" height="88" viewBox="0 0 88 88">
  <defs>
    <clipPath id="clip-path">
      <rect id="Rectangle_226" data-name="Rectangle 226" width="88" height="88" transform="translate(92 257)" fill="#fff" stroke="#707070" stroke-width="1"/>
    </clipPath>
  </defs>
  <g id="Mask_Group_34" data-name="Mask Group 34" transform="translate(-92 -257)" clip-path="url(#clip-path)">
    <g id="noun_auto_service_2584478" data-name="noun_auto service_2584478" transform="translate(89.823 254.822)">
      <path id="Path_1049" data-name="Path 1049" d="M44.5,44.27h-.911a.3.3,0,0,1-.037,0,.263.263,0,0,0-.169.1.48.48,0,0,0-.114.3v.051h0V46.2a1.2,1.2,0,0,1-.183.622,1.043,1.043,0,0,1-.511.417l-.017.006a13.624,13.624,0,0,1-1.467.506,14.027,14.027,0,0,1-1.544.314,1.027,1.027,0,0,1-.65-.1,1.2,1.2,0,0,1-.468-.446l-.018-.034L37.7,46.233l-.011-.02h0l-.014-.025a.473.473,0,0,0-.246-.206.263.263,0,0,0-.211.006s0,0-.009.006a.6.6,0,0,1-.054.029l-2.169,1.253v0l-2.212,1.278-.012.006h0l-.009,0a.259.259,0,0,0-.108.179.477.477,0,0,0,.054.32l.012.023.012.02h0l.737,1.278a.356.356,0,0,1,.028.054,1.176,1.176,0,0,1,.126.574,1.04,1.04,0,0,1-.231.613h0a14.308,14.308,0,0,1-1.03,1.192,14.513,14.513,0,0,1-1.182,1.045,1.037,1.037,0,0,1-.617.234,1.183,1.183,0,0,1-.625-.154l-1.278-.737-.022-.012h0l-.023-.012a.477.477,0,0,0-.32-.054.27.27,0,0,0-.179.108s0,0,0,.009-.011.02-.017.029c-.848,1.469-1.684,2.962-2.551,4.417h0a.061.061,0,0,1-.006.009.263.263,0,0,0-.006.211.481.481,0,0,0,.206.246l.023.014.029.015,1.27.733a.609.609,0,0,1,.052.034,1.185,1.185,0,0,1,.4.434,1.024,1.024,0,0,1,.1.642h0a14.713,14.713,0,0,1-.3,1.549,14.324,14.324,0,0,1-.5,1.495l0,0h0a1.036,1.036,0,0,1-.417.511,1.188,1.188,0,0,1-.622.183H24.292c-.02,0-.038,0-.058,0a.475.475,0,0,0-.3.114.255.255,0,0,0-.1.182v2.58h0V69.2a.3.3,0,0,1,0,.037.263.263,0,0,0,.1.169.48.48,0,0,0,.3.114h.051v0h1.475a1.2,1.2,0,0,1,.622.183,1.043,1.043,0,0,1,.417.511l.006.017a13.625,13.625,0,0,1,.506,1.467,14.026,14.026,0,0,1,.314,1.544,1.027,1.027,0,0,1-.1.65,1.2,1.2,0,0,1-.446.468l-.034.018-1.245.719-.02.011v0l-.025.014a.473.473,0,0,0-.206.246.263.263,0,0,0,.006.211s0,0,.006.009a.6.6,0,0,1,.029.054l2.531,4.384.006.011,0,0c.006.011,0,0,0,.009a.259.259,0,0,0,.179.108.477.477,0,0,0,.32-.054l.023-.012.02-.012h0l1.278-.737a.356.356,0,0,1,.054-.028,1.194,1.194,0,0,1,.574-.126,1.04,1.04,0,0,1,.613.231h0a14.308,14.308,0,0,1,1.191,1.03,14.513,14.513,0,0,1,1.045,1.182,1.037,1.037,0,0,1,.234.617,1.181,1.181,0,0,1-.154.627.368.368,0,0,1-.02.032l-.717,1.244-.012.022h0l-.012.023a.477.477,0,0,0-.054.32.27.27,0,0,0,.108.179l.009,0,.029.017c1.469.848,2.962,1.684,4.417,2.551h0c.011.006,0,0,.009.006a.263.263,0,0,0,.211.006.476.476,0,0,0,.246-.206l.014-.025.015-.029.733-1.27a.607.607,0,0,1,.034-.052,1.185,1.185,0,0,1,.434-.4,1.024,1.024,0,0,1,.642-.1v0a14.716,14.716,0,0,1,1.549.3,14.326,14.326,0,0,1,1.495.5l0,0v0a1.036,1.036,0,0,1,.511.417,1.188,1.188,0,0,1,.183.622V88.5c0,.02,0,.038,0,.058a.476.476,0,0,0,.114.3.255.255,0,0,0,.182.1h2.58v0h2.555a.3.3,0,0,1,.037,0,.263.263,0,0,0,.169-.1.48.48,0,0,0,.114-.3V88.5h0V87.021a1.2,1.2,0,0,1,.183-.622,1.043,1.043,0,0,1,.511-.417l.017-.006a13.622,13.622,0,0,1,1.467-.506,14.026,14.026,0,0,1,1.544-.314,1.027,1.027,0,0,1,.65.1,1.18,1.18,0,0,1,.468.45l.737,1.278.011.02h0l.014.025a.473.473,0,0,0,.246.206.263.263,0,0,0,.211-.006s0,0,.009-.006a.6.6,0,0,1,.054-.029l4.384-2.531.011-.006,0,0,.009,0a.259.259,0,0,0,.108-.179.477.477,0,0,0-.054-.32l-.012-.023-.012-.02h0L58.9,82.834a.356.356,0,0,1-.028-.054,1.194,1.194,0,0,1-.126-.574,1.04,1.04,0,0,1,.231-.613h0a14.307,14.307,0,0,1,1.03-1.191,14.512,14.512,0,0,1,1.182-1.045,1.037,1.037,0,0,1,.617-.234,1.181,1.181,0,0,1,.627.154.368.368,0,0,1,.032.02l1.244.717.022.012h0l.023.012a.477.477,0,0,0,.32.054.27.27,0,0,0,.179-.108s0,0,0-.009.011-.02.017-.029l1.267-2.2a.368.368,0,0,1,.02-.032l1.264-2.191,0,0c.006-.011,0,0,.006-.009a.263.263,0,0,0,.006-.211.476.476,0,0,0-.206-.246l-.025-.014-.029-.015-1.27-.733a.608.608,0,0,1-.052-.034,1.185,1.185,0,0,1-.4-.434,1.024,1.024,0,0,1-.1-.642h0a14.713,14.713,0,0,1,.3-1.549,14.324,14.324,0,0,1,.5-1.495l0,0h0a1.036,1.036,0,0,1,.417-.511,1.188,1.188,0,0,1,.622-.183h1.475c.02,0,.038,0,.058,0a.476.476,0,0,0,.3-.114.255.255,0,0,0,.1-.182v-2.58h0V64.021a.3.3,0,0,1,0-.037.263.263,0,0,0-.1-.169.48.48,0,0,0-.3-.114h-.051v0H66.588a1.2,1.2,0,0,1-.622-.183,1.043,1.043,0,0,1-.417-.511l-.006-.017a13.622,13.622,0,0,1-.506-1.467,14.026,14.026,0,0,1-.314-1.544,1.027,1.027,0,0,1,.1-.65,1.18,1.18,0,0,1,.45-.468l1.278-.737.02-.011v0L66.6,58.1a.473.473,0,0,0,.206-.246.263.263,0,0,0-.006-.211s0,0-.006-.009a.6.6,0,0,1-.029-.054l-1.253-2.169h0L64.232,53.2l-.006-.012h0c-.006-.011,0,0,0-.009a.259.259,0,0,0-.179-.108.477.477,0,0,0-.32.054l-.023.012-.02.012h0l-1.278.737a.356.356,0,0,1-.054.028,1.176,1.176,0,0,1-.574.126,1.04,1.04,0,0,1-.613-.231h0a14.307,14.307,0,0,1-1.191-1.03,14.513,14.513,0,0,1-1.045-1.182,1.037,1.037,0,0,1-.234-.617,1.183,1.183,0,0,1,.154-.625c.012-.023.028-.043.042-.065l0,0,.941-1.248a.272.272,0,0,0-.014-.2.633.633,0,0,0-.248-.3l-.022-.012-.029-.017-2.2-1.267a.369.369,0,0,1-.032-.02L55.1,45.957l0,0a.061.061,0,0,1-.009-.006.263.263,0,0,0-.211-.006.476.476,0,0,0-.246.206l-.014.025-.015.029-.733,1.27a.415.415,0,0,1-.034.051,1.185,1.185,0,0,1-.434.4,1.037,1.037,0,0,1-.65.1.484.484,0,0,1-.065-.014l-2.908-.76c-.022-.006-.043-.012-.065-.02v0a1.036,1.036,0,0,1-.511-.417,1.188,1.188,0,0,1-.183-.622V44.721c0-.02,0-.038,0-.058a.476.476,0,0,0-.114-.3.255.255,0,0,0-.182-.1H48.7v0h-.631l-.048,9.187a13.282,13.282,0,1,1-3.471-.028L44.5,44.269Zm-.911-1.232H44.5l-.066-12.685-2.9-.038a.608.608,0,0,1-.382-.1,1.834,1.834,0,0,1-.565-.734,1.872,1.872,0,0,1-.159-.579,1.1,1.1,0,0,1,.168-.73.956.956,0,0,1,.414-.343,10.85,10.85,0,0,1,1.552-.557L40.676,7.375a2.857,2.857,0,0,1,.513-2.154,2.55,2.55,0,0,1,1.749-.864L43,3.476a1.408,1.408,0,0,1,1.315-1.25l1.958-.048H46.3l.817.02,1.142.026a1.408,1.408,0,0,1,1.315,1.25l.062.882a2.55,2.55,0,0,1,1.749.864A2.86,2.86,0,0,1,51.9,7.374L50.014,27.266a10.972,10.972,0,0,1,1.552.557.958.958,0,0,1,.414.343,1.1,1.1,0,0,1,.168.73,1.873,1.873,0,0,1-.159.579,1.834,1.834,0,0,1-.565.734l0,0a.61.61,0,0,1-.336.1l-2.945.038-.066,12.685H48.7v0h.069a1.481,1.481,0,0,1,1.067.523,1.72,1.72,0,0,1,.413,1.082v.034a.375.375,0,0,1,0,.042v1.387l2.6.679.688-1.191c.017-.032.031-.058.043-.077a1.714,1.714,0,0,1,.9-.731,1.476,1.476,0,0,1,1.182.079l.072.04,0,0L57.9,46.157l.034.018,2.2,1.267.006,0,.085.051a1.9,1.9,0,0,1,.733.884,1.45,1.45,0,0,1-.052,1.255c0,.009-.012.022-.022.037a.575.575,0,0,1-.049.075l-.876,1.162a10.3,10.3,0,0,0,1.9,1.87l1.213-.7c.026-.017.049-.029.066-.04a1.713,1.713,0,0,1,1.142-.183,1.477,1.477,0,0,1,.987.662c.018.031.034.054.043.072h0l1.27,2.2h0l1.253,2.171a.348.348,0,0,1,.02.031c.009.017.023.04.04.072a1.477,1.477,0,0,1,.079,1.182,1.714,1.714,0,0,1-.731.9c-.02.012-.049.029-.086.048h0l-1.193.688a12.785,12.785,0,0,0,.269,1.313,12.561,12.561,0,0,0,.44,1.268h1.4v0h.075a1.7,1.7,0,0,1,1.082.413,1.481,1.481,0,0,1,.523,1.067v.015c0,.018,0,.035,0,.054v2.555h0V69.2a1.481,1.481,0,0,1-.523,1.067,1.72,1.72,0,0,1-1.082.413h-.034a.375.375,0,0,1-.042,0h-1.4a12.458,12.458,0,0,0-.422,1.267,12.6,12.6,0,0,0-.254,1.322l1.2.694c.032.017.057.031.077.043a1.714,1.714,0,0,1,.731.9,1.476,1.476,0,0,1-.079,1.182c-.017.032-.031.055-.04.072l0,0-1.253,2.171-.018.034-1.267,2.2,0,.006c-.009.017-.025.042-.043.072a1.483,1.483,0,0,1-.987.662,1.71,1.71,0,0,1-1.142-.183l-.086-.051h0l-1.193-.69A10.284,10.284,0,0,0,60,82.28l.7,1.213c.017.026.029.049.04.066a1.713,1.713,0,0,1,.183,1.142,1.477,1.477,0,0,1-.662.987c-.031.018-.054.034-.072.043v0L55.82,88.254l-.031.02-.072.04a1.477,1.477,0,0,1-1.182.079,1.714,1.714,0,0,1-.9-.731c-.012-.02-.029-.049-.048-.086h0L52.9,86.382a12.783,12.783,0,0,0-1.313.269,12.561,12.561,0,0,0-1.268.44v1.4h0v.075a1.7,1.7,0,0,1-.413,1.082,1.481,1.481,0,0,1-1.067.523h-.015c-.018,0-.035,0-.054,0H46.211v0H43.587a1.481,1.481,0,0,1-1.067-.523,1.72,1.72,0,0,1-.413-1.082v-.034a.375.375,0,0,1,0-.042v-1.4a12.458,12.458,0,0,0-1.267-.422,12.6,12.6,0,0,0-1.322-.254l-.694,1.2c-.017.032-.031.057-.043.077a1.714,1.714,0,0,1-.9.731,1.476,1.476,0,0,1-1.182-.079l-.072-.04h0l-4.4-2.538-.006,0-.072-.043a1.483,1.483,0,0,1-.662-.987,1.71,1.71,0,0,1,.183-1.142c.012-.022.029-.051.051-.086h0l.69-1.193a12.645,12.645,0,0,0-.888-1,12.6,12.6,0,0,0-1.018-.882l-1.213.7c-.026.017-.049.029-.066.04a1.713,1.713,0,0,1-1.142.183A1.477,1.477,0,0,1,27.1,80.7c-.018-.031-.034-.054-.043-.072h0l-2.525-4.372a.348.348,0,0,1-.02-.031c-.009-.017-.023-.04-.04-.072a1.477,1.477,0,0,1-.079-1.182,1.714,1.714,0,0,1,.731-.9c.022-.012.049-.029.086-.048h0l1.193-.688a12.785,12.785,0,0,0-.269-1.313,12.563,12.563,0,0,0-.44-1.268h-1.4v0h-.075a1.7,1.7,0,0,1-1.082-.413,1.481,1.481,0,0,1-.523-1.067v-.015c0-.018,0-.035,0-.054V66.642h0V64.018a1.481,1.481,0,0,1,.523-1.067,1.72,1.72,0,0,1,1.082-.413h.034a.376.376,0,0,1,.042,0h1.4a12.458,12.458,0,0,0,.422-1.267,12.6,12.6,0,0,0,.254-1.322l-1.2-.694c-.032-.017-.058-.031-.077-.043a1.714,1.714,0,0,1-.731-.9,1.476,1.476,0,0,1,.079-1.182c.017-.032.031-.055.04-.072h0l2.538-4.4,0-.006c.009-.017.025-.042.043-.072a1.483,1.483,0,0,1,.987-.662,1.71,1.71,0,0,1,1.142.183l.086.051h0l1.193.69a10.284,10.284,0,0,0,1.883-1.906l-.7-1.213c-.017-.026-.029-.049-.04-.066a1.713,1.713,0,0,1-.183-1.142,1.477,1.477,0,0,1,.662-.987c.031-.018.054-.034.072-.043h0l2.2-1.27v0l2.171-1.253.031-.02.072-.04a1.477,1.477,0,0,1,1.182-.079,1.714,1.714,0,0,1,.9.731c.012.02.029.049.048.086h0l.688,1.193a12.784,12.784,0,0,0,1.313-.269,12.563,12.563,0,0,0,1.268-.44v-1.4h0v-.075a1.708,1.708,0,0,1,.413-1.082,1.481,1.481,0,0,1,1.067-.523h.015c.018,0,.035,0,.054,0ZM55.2,58.616a12.05,12.05,0,0,0-6.666-3.827c.049.112.1.225.148.339a7.675,7.675,0,0,1,.968,3.881.7.7,0,0,1-.015.082l-1.606,8.682h0a1.668,1.668,0,0,1-.876,1.252,1.859,1.859,0,0,1-1.69.025,1.708,1.708,0,0,1-.919-1.258l-1.616-8.762a.333.333,0,0,1-.006-.038h0a7.705,7.705,0,0,1,.968-3.884c.052-.12.1-.24.157-.359A12.05,12.05,0,1,0,55.2,58.616Zm6.573,14.657a.614.614,0,1,1,1.13.48A18.2,18.2,0,0,1,48.739,84.612a.615.615,0,1,1-.168-1.218,16.971,16.971,0,0,0,13.2-10.123ZM29.712,62.578a.614.614,0,1,1-1.193-.288A18.208,18.208,0,0,1,41.57,49.022a.614.614,0,0,1,.308,1.188A16.981,16.981,0,0,0,29.714,62.581ZM46.8,53.564l.12-23.194c-.212,0-.425.008-.636.008l-.622-.008.12,23.162a.624.624,0,0,1-.026.189,17.412,17.412,0,0,1-.736,1.877,6.888,6.888,0,0,0-.873,3.248l1.61,8.724a.512.512,0,0,0,.265.382.593.593,0,0,0,.277.062.617.617,0,0,0,.277-.071.465.465,0,0,0,.24-.353h0l0-.02,1.609-8.7,0-.008a6.843,6.843,0,0,0-.873-3.24,17.249,17.249,0,0,1-.73-1.857.594.594,0,0,1-.032-.2Zm-.508-25.571a17.424,17.424,0,0,0-2.529.257,9.944,9.944,0,0,0-2.091.627.739.739,0,0,0,.038.1c.02.043.038.082.057.115l4.523.058,4.523-.058a1.157,1.157,0,0,0,.057-.115,1.02,1.02,0,0,0,.038-.1,9.944,9.944,0,0,0-2.091-.627,17.379,17.379,0,0,0-2.529-.257ZM43.771,27a19.355,19.355,0,0,1,2.489-.234h.049a19.735,19.735,0,0,1,2.5.234l1.87-19.741A1.721,1.721,0,0,0,50.432,6a1.566,1.566,0,0,0-1.182-.443h-5.9v0a1.584,1.584,0,0,0-1.2.445A1.713,1.713,0,0,0,41.9,7.258L43.773,27Zm.4-22.675H48.4l-.052-.767c0-.008-.02-.029-.049-.057a.219.219,0,0,0-.062-.049L46.29,3.405q-.974.025-1.949.046a.219.219,0,0,0-.062.049.216.216,0,0,0-.049.057l-.052.767Z"/>
    </g>
  </g>
</svg>
