<svg xmlns="http://www.w3.org/2000/svg" xmlns:xlink="http://www.w3.org/1999/xlink" width="64" height="64" viewBox="0 0 64 64">
  <defs>
    <clipPath id="clip-path">
      <rect id="Rectangle_23" data-name="Rectangle 23" width="64" height="64" transform="translate(784 80)" stroke-width="1"/>
    </clipPath>
  </defs>
  <g id="Mask_Group_12" data-name="Mask Group 12" transform="translate(-784 -80)" clip-path="url(#clip-path)">
    <g id="noun_node_1509979" transform="translate(593.562 -110.438)">
      <g id="Group_52" data-name="Group 52" transform="translate(17.944 17.944)">
        <g id="Group_51" data-name="Group 51">
          <path id="Path_20" data-name="Path 20" d="M228.746,198.914a7.763,7.763,0,0,0-7.6,6.258l-13.3-2.226a8.953,8.953,0,0,0,.087-1.233,8.719,8.719,0,0,0-2.055-5.631l12.236-10.805a4.712,4.712,0,0,0,3.4,1.443c.078,0,.154,0,.232-.006h0a4.727,4.727,0,0,0,2.083-8.841l-.012-.006a4.7,4.7,0,0,0-2.309-.6c-.141,0-.28.007-.416.018h0a4.735,4.735,0,0,0-4.287,4.283s0,.009,0,.011c-.012.137-.018.275-.018.415a4.7,4.7,0,0,0,1.048,2.964l-12.237,10.8a8.741,8.741,0,0,0-11.565-1.13l-7.1-9.285a6.022,6.022,0,0,0,2.145-3.875.052.052,0,0,0,0-.016,6.237,6.237,0,0,0,.049-.758,5.978,5.978,0,0,0-.408-2.174.088.088,0,0,0-.012-.029,6.037,6.037,0,0,0-1.3-2s0-.007-.007-.01-.006,0-.009-.006a6.034,6.034,0,0,0-1.969-1.336l-.024-.01A6.022,6.022,0,0,0,177.531,183a.087.087,0,0,0,.006.014,6.045,6.045,0,0,0,1.333,1.969s0,.009.009.013l.018.011a6.022,6.022,0,0,0,1.993,1.292.259.259,0,0,0,.032.011,5.963,5.963,0,0,0,2.174.408,6.237,6.237,0,0,0,.758-.049h0l.016,0a5.987,5.987,0,0,0,2.707-1.063l7.1,9.287a8.742,8.742,0,0,0-1.122,12.562l-9.745,8.893c-.073-.077-.149-.15-.227-.22l-.007-.012s-.01-.006-.014-.01a6.069,6.069,0,0,0-2.063-1.229c-.012-.006-.023-.009-.036-.014a6.02,6.02,0,0,0-7.648,7.646.21.21,0,0,0,.014.038,6.009,6.009,0,0,0,1.229,2.061.154.154,0,0,0,.011.017.125.125,0,0,0,.013.009,6.06,6.06,0,0,0,1.9,1.392l.02.009a5.989,5.989,0,0,0,2.508.55c.083,0,.167,0,.249-.006h0a6.03,6.03,0,0,0,5.765-5.765c0-.083.006-.169.006-.252a5.979,5.979,0,0,0-.55-2.51.063.063,0,0,0-.007-.017,6.1,6.1,0,0,0-.877-1.369l9.745-8.893a8.745,8.745,0,0,0,9.31,2.176l5.991,15.319a4.676,4.676,0,1,0,.4-.159l-5.993-15.318a8.785,8.785,0,0,0,5.209-6.418l13.3,2.226a7.677,7.677,0,0,0-.076,1.064,7.748,7.748,0,1,0,7.748-7.748Zm-6.409-12.708,3.385-3.385A4.308,4.308,0,0,1,222.337,186.206Zm-1.88-8.382-3.116,3.116A4.308,4.308,0,0,1,220.457,177.824Zm-2.818,6.036a4.264,4.264,0,0,1-.429-1.87c0-.108.006-.216.014-.322l3.961-3.96c.106-.009.214-.013.323-.013a4.259,4.259,0,0,1,1.868.428l-.733.733a.215.215,0,0,0,0,.305.215.215,0,0,0,.3,0l.821-.821a4.345,4.345,0,0,1,1.323,1.284l-.869.868a.216.216,0,0,0,0,.305.219.219,0,0,0,.153.063.212.212,0,0,0,.152-.063l.789-.789a4.251,4.251,0,0,1,.486,1.982c0,.048,0,.1,0,.142l-4.151,4.151c-.048,0-.1,0-.143,0a4.259,4.259,0,0,1-1.983-.487l3.574-3.574a.215.215,0,0,0-.3-.305l-3.653,3.653a4.306,4.306,0,0,1-1.284-1.322l3.285-3.285a.215.215,0,1,0-.305-.3ZM181.9,175.235l-4.269,4.269A5.608,5.608,0,0,1,181.9,175.235Zm-2.56,9.6,3.6-3.6a.216.216,0,1,0-.305-.305l-3.6,3.6a5.606,5.606,0,0,1-1.046-1.561l3-3a.215.215,0,0,0-.3-.3l-2.864,2.863a5.532,5.532,0,0,1-.314-1.841c0-.16.009-.318.022-.474l5.094-5.094c.157-.014.316-.022.474-.022a5.572,5.572,0,0,1,1.841.312l-2.449,2.449a.215.215,0,0,0,0,.305.216.216,0,0,0,.305,0l2.58-2.58a5.6,5.6,0,0,1,1.564,1.046l-2.868,2.866a.215.215,0,0,0,0,.305.216.216,0,0,0,.305,0l2.865-2.864a5.6,5.6,0,0,1,1.015,1.591l-7.318,7.318A5.6,5.6,0,0,1,179.341,184.838Zm5.168,1.269.308-.309a.216.216,0,1,0-.305-.305l-.755.755a5.851,5.851,0,0,1-.663.04,5.612,5.612,0,0,1-1.714-.27l7.036-7.036a5.532,5.532,0,0,1,.27,1.714,5.662,5.662,0,0,1-.04.663L186.008,184a.215.215,0,0,0,0,.305.216.216,0,0,0,.305,0l2.192-2.192A5.622,5.622,0,0,1,184.51,186.107ZM172.924,220.56a5.6,5.6,0,0,1,3.75-5.278l-2.751,2.751a.215.215,0,0,0,0,.305.216.216,0,0,0,.305,0l3.277-3.277a5.554,5.554,0,0,1,1.013-.093,5.616,5.616,0,0,1,1.484.2l-6.874,6.874A5.557,5.557,0,0,1,172.924,220.56Zm11.182,0c0,.053,0,.107,0,.16l-.516.516a.215.215,0,0,0,0,.305.216.216,0,0,0,.305,0l.153-.153a5.6,5.6,0,0,1-4.7,4.7l2.788-2.788a.215.215,0,0,0-.305-.3l-3.15,3.149c-.053,0-.106,0-.16,0a5.574,5.574,0,0,1-2.057-.394l7.255-7.255A5.587,5.587,0,0,1,184.106,220.56Zm-.581-2.479-7.489,7.489a5.661,5.661,0,0,1-1.511-1.1l4.22-4.219a.216.216,0,0,0-.305-.305l-4.206,4.206a5.609,5.609,0,0,1-.961-1.647l7.187-7.187a5.565,5.565,0,0,1,1.647.96l-2.169,2.17a.215.215,0,1,0,.3.305l2.183-2.183A5.593,5.593,0,0,1,183.526,218.081Zm15.644-22.9a6.514,6.514,0,0,1,4.747,2.052l-1.078.952a5.076,5.076,0,0,0-6.587-.644l-.873-1.141A6.475,6.475,0,0,1,199.169,195.182Zm-6.531,6.531a6.518,6.518,0,0,1,2.4-5.052l.875,1.144a5.086,5.086,0,0,0-.641,7.179l-1.062.969A6.5,6.5,0,0,1,192.638,201.713Zm6.531,6.531a6.508,6.508,0,0,1-4.673-1.975l1.062-.968a5.084,5.084,0,0,0,5.264,1.229l.525,1.34A6.492,6.492,0,0,1,199.169,208.244Zm2.579-.532-.526-1.34a5.112,5.112,0,0,0,2.93-3.606l1.419.237A6.557,6.557,0,0,1,201.749,207.712Zm3.893-5.135-1.418-.237a5.407,5.407,0,0,0,.038-.627,5.069,5.069,0,0,0-1.137-3.2l1.079-.952a6.506,6.506,0,0,1,1.5,4.157A6.709,6.709,0,0,1,205.641,202.578Zm23.1,11.4a7.3,7.3,0,0,1-7.248-8.312l1.278.215a5.982,5.982,0,1,0,.069-.426l-1.277-.214a7.317,7.317,0,1,1,7.178,8.736Z"/>
        </g>
      </g>
    </g>
  </g>
</svg>
