<svg xmlns="http://www.w3.org/2000/svg" xmlns:xlink="http://www.w3.org/1999/xlink" width="88" height="88" viewBox="0 0 88 88">
  <defs>
    <clipPath id="clip-path">
      <rect id="Rectangle_223" data-name="Rectangle 223" width="62" height="62" transform="translate(362 80)" fill="#2b2b2b" stroke="#707070" stroke-width="1"/>
    </clipPath>
  </defs>
  <g id="Group_104" data-name="Group 104" transform="translate(-75 -232)">
    <g id="Rectangle_222" data-name="Rectangle 222" transform="translate(75 232)" fill="#fff" stroke="#2b2b2b" stroke-linecap="round" stroke-width="1" stroke-dasharray="2">
      <rect width="88" height="88" rx="44" stroke="none"/>
      <rect x="0.5" y="0.5" width="87" height="87" rx="43.5" fill="none"/>
    </g>
    <g id="Mask_Group_28" data-name="Mask Group 28" transform="translate(-274 165)" clip-path="url(#clip-path)">
      <g id="noun_connections_1593255" transform="translate(362 80.013)">
        <g id="Group_102" data-name="Group 102">
          <g id="Group_101" data-name="Group 101">
            <g id="Group_100" data-name="Group 100">
              <path id="Path_1003" data-name="Path 1003" d="M14.2,17.764,27.12,8.8a1.313,1.313,0,1,1,2.48-.824l3.78-.133a2.414,2.414,0,0,1,4.7-.165l4.171-.148a1.271,1.271,0,0,1,2.527.2,1.285,1.285,0,0,1-.068.413Q51.1,11.827,57.49,15.515a1.147,1.147,0,0,1,.339-.05,1.167,1.167,0,0,1,1.122,1.48l4.617,6.778a2.3,2.3,0,1,1,1.652,4.268q.794,6.03,1.588,12.06a1.164,1.164,0,0,1-.1,2.325,1.229,1.229,0,0,1-.2-.017Q64.05,48.843,61.59,55.325a1.223,1.223,0,0,1,.191.154,1.164,1.164,0,0,1-1.546,1.736L47.121,65.709A1.164,1.164,0,1,1,44.9,66.4l-11.182.685a1.165,1.165,0,0,1-2.263-.388h0l-4.632-2.022a1.164,1.164,0,0,1-1.978-.833v-.031L20.193,61.78l-5.432-4.974a1.164,1.164,0,0,1-1.5-1.767l-3.937-6.02a2.453,2.453,0,1,1-1.536-4.635l-.73-6.6q.732-4.779,1.463-9.561A1.164,1.164,0,0,1,9.2,26.258l3.188-6.444a1.481,1.481,0,0,1-.237-.19,1.384,1.384,0,0,1,1.957-1.957c.032.032.061.065.089.1ZM9.052,48.6l-.523-.8a1.144,1.144,0,0,1-.245.026A1.165,1.165,0,0,1,7.12,46.664a.97.97,0,0,1,.379-.8,1.15,1.15,0,0,1,.429-.208l-.087-.785A1.964,1.964,0,1,0,9.052,48.6ZM8.33,44.323a2.444,2.444,0,0,1,1.734.718,2.494,2.494,0,0,1,.4.528l8.773-4.918a1.687,1.687,0,0,1-.065-.461,1.666,1.666,0,0,1,.287-.937l-9.9-10.7a1.137,1.137,0,0,1-.215.02,1.162,1.162,0,0,1-.382-.064L7.549,37.8l.723,6.525H8.33Zm2.334,1.7a2.457,2.457,0,0,1-.6,2.49,2.426,2.426,0,0,1-.316.267l3.92,5.994a1.167,1.167,0,0,1,1.241.264,1.173,1.173,0,0,1,.3.531l4.019-.2a2.381,2.381,0,0,1,2.014-2.228q-.281-5.639-.564-11.279a1.664,1.664,0,0,1-1.02-.482,1.645,1.645,0,0,1-.221-.274Zm-.945-.632a1.956,1.956,0,0,0-1.388-.575h0l.089.808a1.215,1.215,0,0,1,.653.245.979.979,0,0,1,.275.334l.7-.39a1.936,1.936,0,0,0-.322-.422Zm-.237,2.979a1.874,1.874,0,0,0,.237-.2,1.967,1.967,0,0,0,.508-1.9l-.78.437a1.165,1.165,0,0,1-.34.785,1.232,1.232,0,0,1-.128.111l.5.769ZM33.887,7.82l.84-.029a1.259,1.259,0,0,1,.166-.21,1.163,1.163,0,0,1,1.646,0,1.216,1.216,0,0,1,.121.142l.912-.032a1.924,1.924,0,0,0-3.184-.746,1.928,1.928,0,0,0-.5.877Zm4.271.336c0,.049,0,.1,0,.147a2.416,2.416,0,0,1-1.349,2.166L39.4,15.707a1.185,1.185,0,0,1,.2-.017,1.17,1.17,0,0,1,.454.092l2.763-6.989a1.306,1.306,0,0,1-.213-.171,1.273,1.273,0,0,1-.34-.612Zm-1.8,2.483a2.415,2.415,0,0,1-3.017-2.314l-3.719.131a1.314,1.314,0,0,1-1.3,1.115,1.166,1.166,0,0,1-.175-.012l-2.8,8.427a2.512,2.512,0,0,1,1.424,1.561L38.466,17.1a1.144,1.144,0,0,1-.027-.252,1.161,1.161,0,0,1,.341-.823,1.18,1.18,0,0,1,.17-.141l-2.6-5.252Zm-2.527-2.33a1.925,1.925,0,0,0,1.924,1.918,1.938,1.938,0,0,0,.38-.038l-.309-.626c-.034,0-.068,0-.1,0A1.165,1.165,0,0,1,34.555,8.4c0-.04,0-.081.006-.12ZM36.6,10.03a1.967,1.967,0,0,0,.514-.367,1.917,1.917,0,0,0,.564-1.36c0-.044,0-.087,0-.13l-.8.028a1.2,1.2,0,0,1,.017.2,1.161,1.161,0,0,1-.341.823,1.181,1.181,0,0,1-.248.19Zm27.248,14.1.362.532a1.215,1.215,0,0,1,.871,2.264l.076.571a1.808,1.808,0,1,0-1.309-3.366Zm.893,3.943c-.051,0-.1,0-.154,0a2.3,2.3,0,0,1-2.161-1.518l-8.462,1.928c0,.031,0,.061,0,.092a1.49,1.49,0,0,1-.234.8l12.317,10.87a1.124,1.124,0,0,1,.275-.141L64.739,28.074Zm-2.431-1.987a2.308,2.308,0,0,1,.653-1.929,2.189,2.189,0,0,1,.194-.174l-4.471-6.564-.031.032a1.164,1.164,0,0,1-1.265.254l-4.161,9.583a1.548,1.548,0,0,1,.3.23,1.5,1.5,0,0,1,.329.494l8.455-1.925Zm1.124-1.7a1.582,1.582,0,0,0-.125.114,1.8,1.8,0,0,0-.53,1.278,1.734,1.734,0,0,0,.011.2l.581-.132v-.027a1.21,1.21,0,0,1,.356-.859q.029-.029.059-.055l-.351-.516ZM62.9,26.45a1.827,1.827,0,0,0,.4.609,1.8,1.8,0,0,0,1.278.53l.089,0-.073-.555h-.02a1.21,1.21,0,0,1-.859-.356,1.189,1.189,0,0,1-.247-.357l-.572.13ZM14.447,18.192a1.383,1.383,0,0,1,.076.453c0,.021,0,.043,0,.064l7.432,1.011A2.5,2.5,0,0,1,24.388,17.8a2.573,2.573,0,0,1,.5.049l2.8-8.437A1.3,1.3,0,0,1,27.4,9.2l-12.953,9Zm-.034.993a1.385,1.385,0,0,1-1.274.843,1.421,1.421,0,0,1-.29-.031L9.726,26.308a1.166,1.166,0,0,1,.757.824l11.645-5.762a2.488,2.488,0,0,1-.242-1.075c0-.032,0-.062,0-.094l-7.475-1.016ZM49.293,51.33a2.384,2.384,0,0,1,2.046,2.822l8.515,1.786a1.16,1.16,0,0,1,.2-.368L50.572,43.785l-.07,0a1.162,1.162,0,0,1-.42-.078l-.79,7.623Zm1.9,3.289a2.381,2.381,0,0,1-4.573-.927c0-.06,0-.12.006-.179l-6.691-1.879a1.406,1.406,0,0,1-.213.274,1.383,1.383,0,0,1-.238.191l2.963,6.026c.068-.006.138-.009.208-.009a2.382,2.382,0,0,1,2.283,1.707L59.3,56.32l-8.109-1.7ZM46.718,53.03A2.384,2.384,0,0,1,48.8,51.321l.822-7.934a1.205,1.205,0,0,1-.106-.143l-9.529,7.042a1.4,1.4,0,0,1,.148.627,1.441,1.441,0,0,1-.024.263l6.6,1.854Zm-20.7,9.65A1.166,1.166,0,0,1,27.1,64.262l4.467,1.95a1.167,1.167,0,0,1,1.058-.678,1.182,1.182,0,0,1,.2.017L35.3,59.08,23.856,56.285a2.4,2.4,0,0,1-.559.884,2.368,2.368,0,0,1-.324.272l2.9,5.249a1.153,1.153,0,0,1,.147-.01Zm-1.046.652a1.146,1.146,0,0,1,.223-.311,1.19,1.19,0,0,1,.209-.166l-2.859-5.177a2.381,2.381,0,0,1-3.283-1.828l-4.024.2a1.179,1.179,0,0,1-.143.394l5.37,4.918,4.506,1.967Zm8.306,2.4a1.185,1.185,0,0,1,.171.142,1.166,1.166,0,0,1,.336.718l11.105-.681a1.157,1.157,0,0,1,.323-.615,1.193,1.193,0,0,1,.159-.133l-1.34-2.725a2.38,2.38,0,0,1-3.751-1.946c0-.066,0-.131.009-.2l-4.513-1.1-2.5,6.537Zm12.759-.777a1.161,1.161,0,0,1,.823.341h0l13.067-8.463a1.249,1.249,0,0,1-.065-.149L45.029,60.3q.007.1.007.191a2.375,2.375,0,0,1-.629,1.612l1.411,2.87a1.124,1.124,0,0,1,.214-.02Zm-5.657-5.138a2.383,2.383,0,0,1,1.578-1.6l-2.918-5.935a1.421,1.421,0,0,1-.62,0l-2.467,6.454Zm-18.64-6.71a2.382,2.382,0,0,1,2.232,2.7l11.5,2.809,2.5-6.527a1.406,1.406,0,0,1-.579-1.6q-7.678-4.563-15.354-9.128l-.006.006a1.674,1.674,0,0,1-.855.457l.564,11.28ZM44.464,8.558c-.02.022-.039.044-.06.065a1.267,1.267,0,0,1-.9.372,1.3,1.3,0,0,1-.231-.021l-2.808,7.1a1.153,1.153,0,0,1,.3.7l16.172-.9c.022-.026.045-.051.07-.076l0,0L44.463,8.56Zm-3.776,8.713a1.152,1.152,0,0,1-.094.191L51.528,27.4a1.493,1.493,0,0,1,.932-.324,1.542,1.542,0,0,1,.312.032l4.206-9.688a1.161,1.161,0,0,1-.313-.795,1.145,1.145,0,0,1,.026-.245l-16,.888Zm-.431.544a1.139,1.139,0,0,1-.494.191L37.131,32.87a2.378,2.378,0,0,1,1.442,1.162L51,28.918a1.51,1.51,0,0,1,.2-1.155L40.256,17.816Zm-.983.155a1.166,1.166,0,0,1-.5-.294,1.015,1.015,0,0,1-.1-.116L26.872,20.027a2.5,2.5,0,0,1-.718,2.039l-.009.009,9.029,11.1a2.37,2.37,0,0,1,1.3-.389c.057,0,.116,0,.172.006q1.314-7.406,2.623-14.815Zm26.78,24.2a1.221,1.221,0,0,1-.168-.139,1.167,1.167,0,0,1-.3-.512L51.559,43.106a1.162,1.162,0,0,1-.235.338,1.206,1.206,0,0,1-.247.19L60.435,55.26a1.157,1.157,0,0,1,.7-.111Zm-.5-1.14a1.156,1.156,0,0,1,.153-.422L53.4,29.749a1.493,1.493,0,0,1-.944.334h-.035L50.369,40.926l-.056.548a1.187,1.187,0,0,1,.188-.015,1.165,1.165,0,0,1,1.164,1.146l13.9-1.57Zm-26.83-5.1,10.8,6.055a1.22,1.22,0,0,1,.15-.186,1.255,1.255,0,0,1,.121-.106l.086-.829,0-.02L51.942,29.99a1.5,1.5,0,0,1-.761-.621L38.759,34.482a2.371,2.371,0,0,1,.1.675,2.4,2.4,0,0,1-.127.771ZM49.35,42.445,38.524,36.374a2.385,2.385,0,0,1-1.481,1.1L38.7,49.507h.027a1.4,1.4,0,0,1,.969.388l9.647-7.13a1.09,1.09,0,0,1-.009-.142,1.194,1.194,0,0,1,.013-.176ZM25.766,22.381a2.489,2.489,0,0,1-1.382.416c-.066,0-.131,0-.2-.007L21.374,38.607a1.674,1.674,0,0,1,1.091,1.183l11.7-4.081a2.385,2.385,0,0,1,.632-2.231l-9.029-11.1Zm-2.057.324a2.507,2.507,0,0,1-1.331-.914L10.484,27.677a1.166,1.166,0,0,1-.311.559,1.094,1.094,0,0,1-.135.115l9.753,10.544a1.662,1.662,0,0,1,1.053-.373h.049Q22.3,30.614,23.709,22.705Zm-1.2,17.585a1.665,1.665,0,0,1-.19.681L37.61,50.06a1.368,1.368,0,0,1,.124-.142,1.405,1.405,0,0,1,.488-.318q-.831-6.032-1.663-12.064h-.082a2.38,2.38,0,0,1-2.155-1.37l-11.81,4.122ZM9.407,27.413H9.35l.039.039a.155.155,0,0,1,.016-.039Z" transform="translate(-5.876 -5.891)" fill="#2b2b2b"/>
            </g>
          </g>
        </g>
      </g>
    </g>
  </g>
</svg>
