<svg xmlns="http://www.w3.org/2000/svg" xmlns:xlink="http://www.w3.org/1999/xlink" width="88" height="88" viewBox="0 0 88 88">
  <defs>
    <clipPath id="clip-path">
      <rect id="Rectangle_220" data-name="Rectangle 220" width="88" height="88" transform="translate(75 232)" fill="#fff" stroke="#707070" stroke-width="1"/>
    </clipPath>
  </defs>
  <g id="Mask_Group_33" data-name="Mask Group 33" transform="translate(-75 -232)" clip-path="url(#clip-path)">
    <g id="noun_People_connection_2155814" data-name="noun_People connection_2155814" transform="translate(70.568 227.564)">
      <g id="Group_110" data-name="Group 110" transform="translate(0.036 0.036)">
        <g id="Group_109" data-name="Group 109">
          <g id="Group_108" data-name="Group 108">
            <path id="Path_1048" data-name="Path 1048" d="M6.114,84.807a.591.591,0,0,1-.129-1.174A13.285,13.285,0,0,0,11.2,82.066a10.494,10.494,0,0,0,4.082-4.428h0a15.4,15.4,0,0,0,1.139-6.269c.219-4.774.437-9.547,8.145-11.578h0l.473-.145.371-.115A8.964,8.964,0,0,1,23.534,58.3,8.127,8.127,0,0,1,22.4,57.1a8.834,8.834,0,0,1-1.808-5.127,7.312,7.312,0,0,1,1.7-5,6.449,6.449,0,0,1,.963-.908,5.9,5.9,0,0,1,7.636-.013,6.647,6.647,0,0,1,.979.921,7.31,7.31,0,0,1,1.7,4.991,8.825,8.825,0,0,1-1.794,5.12A8.277,8.277,0,0,1,30.628,58.3a8.965,8.965,0,0,1-1.875,1.231l.371.115.481.147a12.563,12.563,0,0,1,4.767,2.236,7.919,7.919,0,0,1,1.6,1.731,15.425,15.425,0,0,1,1.1-3.949,9.34,9.34,0,0,1,2.883-3.365A15.457,15.457,0,0,1,45.231,54.1h0l.565-.174c.318-.1.637-.2.957-.3a10.62,10.62,0,0,1-2.318-1.505,9.7,9.7,0,0,1-.9-.887,10.464,10.464,0,0,1-2.576-6.3,8.713,8.713,0,0,1,1.986-6.25,7.5,7.5,0,0,1,.7-.711,6.788,6.788,0,0,1,9.5,0,7.41,7.41,0,0,1,.7.708,8.712,8.712,0,0,1,1.984,6.253,10.471,10.471,0,0,1-2.581,6.3,9.616,9.616,0,0,1-.894.881,10.582,10.582,0,0,1-2.318,1.505q.479.152.957.3l.571.176a15.464,15.464,0,0,1,5.266,2.349,9.353,9.353,0,0,1,2.883,3.365,15.36,15.36,0,0,1,1.1,3.949,7.919,7.919,0,0,1,1.6-1.731A12.557,12.557,0,0,1,67.2,59.792h0l.473-.145.371-.115A8.965,8.965,0,0,1,66.166,58.3,8.7,8.7,0,0,1,63.3,52.92a7.568,7.568,0,0,1,1.4-5.679,6.9,6.9,0,0,1,1.273-1.266,6.085,6.085,0,0,1,7.521.031,6.978,6.978,0,0,1,1.262,1.279,7.586,7.586,0,0,1,1.365,5.666A8.7,8.7,0,0,1,73.26,58.3a8.965,8.965,0,0,1-1.875,1.231l.371.115.473.145.011,0c7.7,2.031,7.915,6.8,8.134,11.575a15.4,15.4,0,0,0,1.139,6.269.164.164,0,0,1,.011.024,10.485,10.485,0,0,0,4.069,4.4,13.293,13.293,0,0,0,5.216,1.566.591.591,0,1,1-.129,1.174A14.418,14.418,0,0,1,85,83.091a11.625,11.625,0,0,1-4.522-4.878.388.388,0,0,1-.019-.035c-1.049-2.062-1.157-4.407-1.263-6.755-.2-4.338-.4-8.678-7.263-10.486a.327.327,0,0,1-.053-.015l-.469-.145c-.561-.173-1.131-.348-1.7-.547-.565.2-1.134.374-1.7.547l-.469.145v0l-.027.008a11.429,11.429,0,0,0-4.357,2.023,6.723,6.723,0,0,0-2.038,2.736c.174,1.207.334,2.5.5,3.817a65.165,65.165,0,0,0,1.779,10.223c1.566,4.99,1.115,8.276-.071,10A3.309,3.309,0,0,1,60.6,91.293a3.558,3.558,0,0,1-2.77-1.463c-1.258-1.589-1.873-4.5-.615-8.508a49.1,49.1,0,0,0,1.463-8.615,35.984,35.984,0,0,1,1.228-7.155,19.643,19.643,0,0,0-1.247-5.206A8.183,8.183,0,0,0,56.137,57.4a14.309,14.309,0,0,0-4.867-2.162c-.019,0-.039-.01-.058-.015l-.56-.174c-.749-.229-1.507-.463-2.255-.736-.749.273-1.507.507-2.255.736-.092.029-.19.058-.56.174v0l-.027.008a14.357,14.357,0,0,0-4.9,2.168,8.167,8.167,0,0,0-2.526,2.944,19.707,19.707,0,0,0-1.247,5.206A35.984,35.984,0,0,1,38.11,72.7a49.371,49.371,0,0,0,1.463,8.615c1.258,4.011.644,6.919-.615,8.508a3.562,3.562,0,0,1-2.77,1.463,3.305,3.305,0,0,1-2.731-1.563c-1.186-1.728-1.637-5.012-.071-10A65.011,65.011,0,0,0,35.166,69.5c.165-1.32.324-2.612.5-3.817a6.733,6.733,0,0,0-2.038-2.736A11.4,11.4,0,0,0,29.3,60.934c-.019,0-.039-.01-.058-.015l-.469-.145c-.561-.173-1.131-.348-1.7-.547-.565.2-1.134.374-1.7.547l-.469.145v0l-.027.008c-6.89,1.805-7.09,6.15-7.289,10.493-.108,2.347-.215,4.695-1.263,6.755h0l0,0a11.652,11.652,0,0,1-4.54,4.912,14.472,14.472,0,0,1-5.679,1.72Zm23.668-45a.59.59,0,0,1-1.045-.545,22.168,22.168,0,0,1,38.921-.737.591.591,0,1,1-1.028.582A20.968,20.968,0,0,0,48.4,28.522a20.872,20.872,0,0,0-10.865,3.026,21.086,21.086,0,0,0-7.75,8.261ZM17.631,44.484a.591.591,0,0,1-1.166-.186A32.357,32.357,0,0,1,80.282,44a.592.592,0,0,1-1.166.2,31.176,31.176,0,0,0-61.486.284ZM8.55,65.2a.592.592,0,0,1-1.1.431,43.768,43.768,0,0,1-2.283-7.9,44,44,0,1,1,86.585-.682,43.656,43.656,0,0,1-1.918,7.29.592.592,0,1,1-1.115-.4,42.4,42.4,0,0,0,1.867-7.092,43.136,43.136,0,0,0,.626-7.342,42.814,42.814,0,1,0-85.629,0,43.131,43.131,0,0,0,.745,8.007A42.5,42.5,0,0,0,8.549,65.2Zm18.531-6.235a9.085,9.085,0,0,0,2.773-1.562,6.906,6.906,0,0,0,.981-1.045,7.64,7.64,0,0,0,1.554-4.425,6.137,6.137,0,0,0-1.413-4.194,5.433,5.433,0,0,0-.8-.755,4.72,4.72,0,0,0-6.2.008,5.457,5.457,0,0,0-.792.747,6.143,6.143,0,0,0-1.412,4.2,7.628,7.628,0,0,0,1.563,4.432,7.065,7.065,0,0,0,.971,1.031,9.1,9.1,0,0,0,2.773,1.562Zm9.855,13.866c-.158-1.4-.31-2.755-.5-3.954l-.1.766a65.682,65.682,0,0,1-1.826,10.433c-1.441,4.59-1.092,7.511-.082,8.984a2.156,2.156,0,0,0,1.755,1.049A2.4,2.4,0,0,0,38.036,89.1c1.05-1.326,1.536-3.844.41-7.426a50.023,50.023,0,0,1-1.51-8.837ZM48.4,53.049a10.744,10.744,0,0,0,3.189-1.825,8.433,8.433,0,0,0,.782-.774,9.271,9.271,0,0,0,2.284-5.58,7.55,7.55,0,0,0-1.7-5.416,6.425,6.425,0,0,0-.59-.6,5.608,5.608,0,0,0-7.934,0,6.3,6.3,0,0,0-.592.6,7.555,7.555,0,0,0-1.7,5.412,9.263,9.263,0,0,0,2.281,5.58,8.3,8.3,0,0,0,.786.776A10.743,10.743,0,0,0,48.4,53.047Zm12.053,16.6-.1-.766c-.187,1.2-.339,2.551-.5,3.954a50,50,0,0,1-1.51,8.837c-1.124,3.583-.639,6.1.41,7.426A2.4,2.4,0,0,0,60.6,90.109a2.16,2.16,0,0,0,1.755-1.049c1.012-1.473,1.358-4.4-.082-8.984a65.8,65.8,0,0,1-1.826-10.433Zm9.265-10.678A9.085,9.085,0,0,0,72.489,57.4a7.5,7.5,0,0,0,2.465-4.622A6.413,6.413,0,0,0,73.819,48a5.739,5.739,0,0,0-1.049-1.062,4.894,4.894,0,0,0-6.079-.026,5.87,5.87,0,0,0-1.055,1.053,6.4,6.4,0,0,0-1.165,4.8A7.5,7.5,0,0,0,66.941,57.4a9.1,9.1,0,0,0,2.773,1.562Z"/>
          </g>
        </g>
      </g>
    </g>
  </g>
</svg>
