<svg xmlns="http://www.w3.org/2000/svg" xmlns:xlink="http://www.w3.org/1999/xlink" width="88" height="88" viewBox="0 0 88 88">
  <defs>
    <clipPath id="clip-path">
      <rect id="Rectangle_254" data-name="Rectangle 254" width="88" height="88" transform="translate(230 247)" fill="#2b2b2b" stroke="#707070" stroke-width="1"/>
    </clipPath>
  </defs>
  <g id="Mask_Group_39" data-name="Mask Group 39" transform="translate(-230 -247)" clip-path="url(#clip-path)">
    <path id="noun_Venn_Diagram_244898" data-name="noun_Venn Diagram_244898" d="M28.585,86.561h0a27.8,27.8,0,0,0,13.879-3.73c.734-.424,1.487-.927,2.273-1.493.786.566,1.54,1.07,2.273,1.493a27.8,27.8,0,0,0,13.879,3.73h0A27.909,27.909,0,0,0,85,72.651,27.809,27.809,0,0,0,74.822,34.664a26.98,26.98,0,0,0-2.431-1.223c.1-.97.157-1.875.157-2.716a27.81,27.81,0,0,0-55.62,0c0,.841.059,1.746.157,2.716a27.05,27.05,0,0,0-2.431,1.222A27.81,27.81,0,0,0,4.476,72.651,27.911,27.911,0,0,0,28.585,86.561Zm15.042-8c-.225-.2-.442-.4-.659-.6-.2-.188-.4-.374-.6-.568-.211-.21-.414-.427-.617-.644-.186-.2-.373-.394-.552-.6-.2-.224-.385-.454-.574-.684-.171-.208-.345-.414-.509-.627-.182-.236-.354-.479-.528-.72-.156-.217-.315-.432-.464-.653-.166-.247-.322-.5-.48-.752-.142-.226-.287-.451-.422-.681-.15-.256-.288-.518-.429-.779-.127-.234-.258-.467-.377-.705-.134-.267-.256-.54-.381-.811-.11-.24-.225-.477-.328-.72-.118-.278-.223-.562-.332-.844-.093-.243-.192-.484-.279-.729-.1-.287-.188-.579-.279-.87-.077-.248-.161-.493-.231-.743-.083-.295-.151-.594-.223-.892-.061-.25-.129-.5-.182-.751-.065-.306-.114-.615-.169-.924-.044-.249-.1-.5-.132-.747-.047-.318-.076-.64-.111-.961-.027-.244-.062-.487-.081-.732-.027-.334-.036-.671-.05-1.007-.01-.234-.029-.467-.033-.7-.006-.379.008-.76.019-1.141.005-.193,0-.385.011-.578.013-.257.044-.516.064-.773a27.314,27.314,0,0,0,20.076,0c.021.258.052.516.064.773.01.193.005.385.011.578.011.381.025.762.019,1.141,0,.235-.023.468-.033.7-.014.336-.023.673-.05,1.007-.02.245-.055.488-.081.732-.035.321-.065.642-.111.961-.037.25-.088.5-.132.747-.054.308-.1.618-.169.924-.054.252-.122.5-.182.751-.073.3-.141.6-.223.892-.07.25-.154.5-.231.743-.091.291-.178.583-.279.87-.086.246-.185.486-.279.729-.109.282-.214.566-.332.844-.1.243-.218.48-.328.72-.125.271-.247.544-.381.811-.12.238-.25.471-.377.705-.141.261-.279.523-.429.779-.135.23-.28.455-.422.681-.158.252-.313.5-.48.752-.149.221-.308.436-.464.653-.174.241-.346.484-.528.72-.164.213-.338.419-.509.627-.189.23-.377.461-.574.684-.179.2-.367.4-.552.6-.2.217-.406.434-.617.644-.194.194-.4.38-.6.568-.217.2-.434.406-.659.6-.208.182-.424.356-.638.532q-.234.191-.473.377-.239-.186-.473-.377C44.051,78.918,43.835,78.744,43.627,78.562ZM32.266,53.882c-.337-.182-.676-.362-1-.557-.2-.119-.387-.25-.582-.373-.287-.182-.578-.361-.857-.553-.2-.139-.394-.29-.591-.435-.26-.191-.524-.378-.777-.577-.2-.158-.39-.327-.585-.491-.238-.2-.481-.4-.711-.6-.194-.175-.377-.36-.566-.54-.219-.21-.442-.416-.654-.633-.186-.191-.362-.391-.542-.587-.2-.218-.4-.434-.6-.658-.176-.205-.342-.419-.512-.63-.183-.227-.37-.452-.546-.685-.164-.218-.317-.443-.474-.666s-.338-.471-.5-.714-.293-.468-.437-.7-.3-.486-.444-.734-.265-.49-.4-.737-.269-.5-.394-.758-.234-.507-.349-.762-.236-.52-.345-.785-.2-.524-.3-.787-.2-.533-.293-.8-.171-.542-.253-.815-.165-.544-.238-.819-.136-.554-.2-.833-.13-.559-.185-.841-.1-.563-.146-.846q-.046-.284-.086-.569c.6-.242,1.193-.474,1.8-.671.189-.061.38-.112.57-.168.568-.17,1.14-.317,1.717-.447.227-.051.453-.109.68-.154.678-.134,1.362-.235,2.051-.315.278-.032.557-.056.836-.079.585-.049,1.173-.08,1.765-.089.424-.007.847,0,1.27.013.328.011.656.017.982.04.3.021.6.055.9.086.36.038.72.079,1.079.132q.381.055.761.122.686.121,1.364.278c.156.036.314.067.469.106a26.7,26.7,0,0,1,3.775,1.25c.1.043.2.089.3.133q.748.323,1.475.691c.146.074.291.148.435.225.447.237.885.489,1.318.751.142.086.286.168.426.257.282.179.552.376.827.565A27.321,27.321,0,0,0,33.468,54.49c-.234-.111-.473-.214-.7-.331C32.6,54.072,32.433,53.973,32.266,53.882Zm14.965-17.6c.432-.262.87-.514,1.316-.751.145-.077.29-.152.436-.226q.727-.368,1.475-.691c.1-.044.2-.09.3-.133a26.678,26.678,0,0,1,3.779-1.252c.15-.037.3-.068.453-.1q.688-.16,1.385-.282.37-.065.742-.119c.368-.054.737-.1,1.107-.135.29-.03.579-.063.869-.083.352-.025.705-.033,1.058-.043.389-.011.778-.017,1.168-.012.608.009,1.213.041,1.815.092.269.023.538.046.807.076.7.08,1.388.183,2.073.318.218.043.434.1.651.147.588.132,1.172.283,1.751.456.183.055.368.1.55.163.608.2,1.208.43,1.8.673q-.04.285-.086.569c-.046.283-.091.566-.146.846s-.121.562-.185.841-.127.557-.2.833-.156.547-.238.819-.162.546-.253.815-.193.537-.293.8-.194.527-.3.787-.228.524-.345.785-.226.511-.349.762-.261.507-.394.758-.258.495-.4.737-.294.491-.444.734-.286.473-.437.7-.33.477-.5.714-.31.448-.474.666c-.176.233-.363.458-.546.685-.17.211-.336.425-.512.63-.193.225-.4.44-.6.658-.18.2-.356.4-.542.587-.212.217-.435.423-.654.633-.188.18-.372.365-.566.54-.231.208-.473.4-.711.6-.2.164-.385.333-.585.491-.253.2-.517.387-.777.577-.2.145-.389.3-.591.435-.279.193-.57.371-.857.553-.195.124-.384.254-.582.373-.327.2-.666.375-1,.557-.168.091-.33.19-.5.277-.23.118-.469.22-.7.331A27.535,27.535,0,0,0,53.747,47c-.006-.013-.006-.027-.013-.04s-.012-.011-.017-.019c-.333-.708-.679-1.412-1.073-2.1a27.643,27.643,0,0,0-4.373-5.666.75.75,0,0,0-.09-.092,27.708,27.708,0,0,0-2.2-1.975c.275-.19.545-.387.827-.565C46.944,36.455,47.088,36.373,47.23,36.287Zm7.395,18.828a26.15,26.15,0,0,1-7.355,1.8l6.94-4.007C54.375,53.635,54.522,54.369,54.625,55.114ZM44.738,37.99c.625.486,1.219,1,1.794,1.539l-7.176,4.143A26.073,26.073,0,0,1,44.738,37.99Zm-6.994,8.335,9.866-5.7a26.02,26.02,0,0,1,2.071,2.445L35.756,51.113A26.125,26.125,0,0,1,37.745,46.324ZM35.22,53.144h0l15.307-8.837c.278.424.568.839.824,1.281.274.474.506.965.748,1.452L36.882,55.826c-.684-.214-1.365-.44-2.032-.711C34.943,54.449,35.079,53.8,35.22,53.144ZM52.735,48.4a26.006,26.006,0,0,1,1.072,3.021l-9.68,5.589a26.44,26.44,0,0,1-5.2-.641Zm33.6,3.54a26.142,26.142,0,0,1-2.629,19.971,26.305,26.305,0,0,1-35.951,9.633c-.577-.333-1.162-.707-1.774-1.134.117-.094.225-.2.34-.291q.313-.26.616-.527.37-.326.727-.664.291-.276.575-.559c.233-.234.46-.472.683-.713.179-.193.356-.386.529-.583.219-.25.431-.506.641-.764.163-.2.325-.4.482-.6.2-.266.4-.538.6-.811.147-.206.3-.41.436-.62.191-.284.371-.574.551-.864.129-.208.261-.414.385-.625.178-.3.344-.615.51-.926.11-.206.225-.41.33-.618.166-.33.318-.667.471-1,.089-.2.185-.39.27-.589.16-.374.3-.755.446-1.136.063-.168.134-.332.193-.5.178-.5.338-1.01.487-1.521.015-.052.034-.1.049-.153q.243-.854.432-1.725c.025-.116.042-.234.066-.351.094-.459.182-.92.253-1.384.03-.2.048-.4.074-.6.05-.385.1-.769.134-1.157.02-.231.028-.464.042-.7.022-.359.045-.718.054-1.078.006-.249,0-.5,0-.748,0-.346,0-.692-.017-1.04-.011-.259-.032-.518-.051-.777-.017-.243-.024-.486-.048-.729.228-.1.446-.222.67-.331s.455-.218.678-.335c.315-.164.622-.34.929-.516.21-.12.424-.236.63-.362.315-.191.62-.395.926-.6.188-.125.38-.244.565-.373.322-.225.633-.464.945-.7.158-.121.321-.235.476-.359.362-.289.71-.591,1.056-.9.095-.084.2-.162.289-.247q.657-.6,1.274-1.233c.056-.057.106-.119.161-.176.349-.367.692-.739,1.02-1.124.128-.15.246-.308.371-.46.246-.3.492-.6.725-.91.14-.186.269-.379.4-.568.2-.287.411-.573.6-.868.137-.208.263-.422.394-.633.177-.286.355-.571.522-.864.128-.225.248-.455.37-.684.154-.288.308-.575.451-.869.117-.239.226-.482.336-.725.133-.293.265-.586.388-.883.1-.249.2-.5.294-.753.114-.3.225-.6.328-.9.088-.259.17-.52.251-.781.094-.3.183-.609.267-.916.072-.267.14-.536.2-.807q.11-.463.205-.931.083-.411.154-.825c.024-.143.058-.283.08-.426.682.318,1.3.639,1.871.969A26.143,26.143,0,0,1,86.338,51.935ZM44.738,4.407A26.348,26.348,0,0,1,71.057,30.725c0,.661-.032,1.356-.1,2.1-.1-.039-.206-.065-.307-.1q-.875-.328-1.764-.595c-.153-.046-.3-.1-.457-.145-.677-.19-1.36-.346-2.045-.483-.307-.062-.616-.112-.925-.163q-.662-.109-1.326-.185c-.311-.036-.621-.077-.934-.1q-1.011-.083-2.023-.093c-.085,0-.168-.012-.253-.012-.29,0-.579.025-.869.034s-.566.016-.848.033c-.35.022-.7.054-1.048.089s-.675.074-1.012.12c-.3.041-.592.083-.886.133-.439.074-.874.163-1.309.259-.2.044-.4.081-.592.128A27.882,27.882,0,0,0,50.446,33c-.073.03-.145.064-.218.094q-.819.34-1.618.732c-.16.078-.316.162-.474.243q-.653.337-1.29.708-.291.17-.577.346c-.382.236-.758.485-1.13.741-.132.091-.272.171-.4.264-.131-.093-.27-.173-.4-.264-.373-.256-.749-.505-1.132-.742q-.284-.175-.572-.343-.643-.377-1.3-.715c-.153-.079-.3-.159-.458-.235q-.812-.4-1.644-.744c-.065-.027-.127-.057-.192-.083a27.864,27.864,0,0,0-3.93-1.263c-.185-.045-.371-.08-.557-.121-.447-.1-.9-.19-1.347-.266-.286-.049-.572-.089-.86-.129q-.52-.071-1.041-.123c-.341-.034-.682-.065-1.024-.087-.293-.018-.586-.026-.879-.035s-.564-.033-.847-.033c-.083,0-.165.011-.248.011q-1.017.009-2.033.094c-.308.025-.613.066-.92.1q-.672.078-1.342.187c-.306.051-.612.1-.916.162-.687.138-1.371.294-2.05.485-.15.043-.3.1-.447.142q-.893.267-1.772.6c-.1.038-.205.064-.306.1-.064-.749-.1-1.443-.1-2.1A26.348,26.348,0,0,1,44.738,4.407ZM3.138,51.935A26.145,26.145,0,0,1,15.4,35.954c.571-.33,1.188-.65,1.87-.968.022.143.055.284.08.426q.071.415.154.825.095.468.205.931c.064.27.132.539.2.807.083.308.173.613.267.916.081.262.162.522.251.781.1.3.215.6.328.9.1.252.191.5.294.753.123.3.255.59.388.883.11.243.219.486.336.725.144.293.3.581.451.869.122.229.241.459.37.684.167.292.345.578.522.864.131.212.258.426.394.633.194.295.4.581.6.868.135.189.264.382.4.568.233.31.479.61.725.91.125.153.243.31.371.46.328.385.671.757,1.02,1.124.055.058.106.119.161.176q.616.636,1.274,1.233c.094.085.194.163.289.247.346.306.695.608,1.056.9.155.124.318.238.476.359.312.238.623.477.945.7.185.129.377.248.565.373.306.2.611.406.926.6.207.126.42.242.63.362.307.176.614.352.929.516.223.117.451.224.678.335s.443.227.67.331c-.024.243-.03.486-.048.729-.018.259-.04.518-.051.777-.015.347-.016.693-.017,1.04,0,.249-.007.5,0,.748.008.361.031.719.054,1.078.014.232.022.465.042.7.034.387.084.772.134,1.157.026.2.044.4.074.6.07.465.159.925.253,1.384.024.117.04.235.066.351q.189.87.432,1.725c.015.052.034.1.049.153.149.512.31,1.019.487,1.521.06.169.13.333.193.5.143.381.287.761.446,1.136.085.2.18.392.27.589.153.337.3.673.471,1,.105.209.22.412.33.618.166.311.332.621.51.926.123.211.255.417.385.625.18.29.36.58.551.864.141.21.289.414.436.62.195.273.39.545.6.811.157.2.319.4.482.6.21.258.422.513.641.764.173.2.35.39.529.583.224.241.45.479.683.713q.283.284.575.559.357.338.727.664.3.268.616.527c.115.1.223.2.34.291-.612.427-1.2.8-1.774,1.134A26.308,26.308,0,0,1,28.586,85.07h0A26.415,26.415,0,0,1,5.768,71.906,26.142,26.142,0,0,1,3.138,51.935Z" transform="translate(229.262 246.262)" fill="#2b2b2b"/>
  </g>
</svg>
