<svg xmlns="http://www.w3.org/2000/svg" width="27" height="27" viewBox="0 0 27 27">
  <path id="Subtraction_1" data-name="Subtraction 1" d="M-2564.5,383a13.412,13.412,0,0,1-9.546-3.954A13.411,13.411,0,0,1-2578,369.5a13.411,13.411,0,0,1,3.954-9.546A13.412,13.412,0,0,1-2564.5,356a13.412,13.412,0,0,1,9.546,3.954A13.411,13.411,0,0,1-2551,369.5a13.411,13.411,0,0,1-3.954,9.546A13.411,13.411,0,0,1-2564.5,383Zm-4.75-14a.751.751,0,0,0-.75.75.751.751,0,0,0,.75.751h10.5a.751.751,0,0,0,.75-.751.751.751,0,0,0-.75-.75Z" transform="translate(2578 -356)" fill="#ff4824"/>
</svg>
