<svg xmlns="http://www.w3.org/2000/svg" xmlns:xlink="http://www.w3.org/1999/xlink" width="32" height="32" viewBox="0 0 32 32">
  <defs>
    <clipPath id="clip-path">
      <rect id="Rectangle_294" data-name="Rectangle 294" width="32" height="32" transform="translate(183 426)" fill="#fff"/>
    </clipPath>
  </defs>
  <g id="Mask_Group_72" data-name="Mask Group 72" transform="translate(-183 -426)" clip-path="url(#clip-path)">
    <g id="noun_business_document_2140407" data-name="noun_business document_2140407" transform="translate(187.656 426)">
      <g id="Group_247" data-name="Group 247" transform="translate(0 0)">
        <g id="Group_246" data-name="Group 246">
          <g id="Group_245" data-name="Group 245">
            <path id="Path_1089" data-name="Path 1089" d="M19.1,30.924H14.2c-1.575,0-2.438-.506-2.913-1.423a8.378,8.378,0,0,1-.525-3.667V6.54a8.378,8.378,0,0,1,.525-3.667c.475-.918,1.339-1.423,2.913-1.423H30.01c1.575,0,2.438.506,2.913,1.423a8.378,8.378,0,0,1,.525,3.667V25.833a8.378,8.378,0,0,1-.525,3.667c-.475.918-1.339,1.423-2.913,1.423H25.166v2.3a.223.223,0,0,1-.223.223.219.219,0,0,1-.125-.038l-2.739-1.589-2.645,1.595a.222.222,0,0,1-.337-.191h0v-2.3Zm6.07-.446H30.01c1.379,0,2.123-.42,2.518-1.181A8.083,8.083,0,0,0,33,25.833V6.54a8.082,8.082,0,0,0-.474-3.463C32.134,2.315,31.39,1.9,30.01,1.9H14.2c-1.379,0-2.123.42-2.518,1.181a8.083,8.083,0,0,0-.474,3.463V25.833A8.082,8.082,0,0,0,11.68,29.3c.394.762,1.138,1.181,2.518,1.181h4.9V27.4l-.054,0a2.141,2.141,0,0,1-.572-.079,1.459,1.459,0,0,1-.749-.686,1.438,1.438,0,0,1-.188-.992,2.445,2.445,0,0,1,.169-.45,2.414,2.414,0,0,0,.2-.56,2.526,2.526,0,0,0,.014-.534,2.955,2.955,0,0,0-.079-.565,3.029,3.029,0,0,0-.191-.479,2.323,2.323,0,0,1-.2-.52,1.456,1.456,0,0,1,.219-.99,1.441,1.441,0,0,1,.766-.66,2.5,2.5,0,0,1,.493-.078,2.865,2.865,0,0,0,.493-.076,2.314,2.314,0,0,0,.489-.221,1.911,1.911,0,0,0,.819-.794,2.147,2.147,0,0,1,.355-.456,1.457,1.457,0,0,1,.967-.306,1.442,1.442,0,0,1,.956.333,2.494,2.494,0,0,1,.3.372,2.278,2.278,0,0,0,.425.484,2.68,2.68,0,0,0,.518.3,2.647,2.647,0,0,0,.559.193c.123.022.253.033.377.044a2.346,2.346,0,0,1,.548.091,1.459,1.459,0,0,1,.749.686,1.438,1.438,0,0,1,.188.992,3.086,3.086,0,0,1-.144.424,2.823,2.823,0,0,0-.187.618,3.338,3.338,0,0,0-.02.515,3.081,3.081,0,0,0,.044.5,2.559,2.559,0,0,0,.2.549,2.329,2.329,0,0,1,.187.506,1.456,1.456,0,0,1-.219.99,1.441,1.441,0,0,1-.766.66,2.5,2.5,0,0,1-.493.078l-.114.011v3.187Zm-5.624-3.026v5.38l2.419-1.459h0a.224.224,0,0,1,.226,0L24.72,32.84V27.374l0,0a2.414,2.414,0,0,0-.568.292,2.121,2.121,0,0,0-.455.4,3.736,3.736,0,0,0-.214.308,2.147,2.147,0,0,1-.355.456,1.457,1.457,0,0,1-.967.305A1.442,1.442,0,0,1,21.2,28.8a2.5,2.5,0,0,1-.314-.388,2.713,2.713,0,0,0-.342-.419,2.406,2.406,0,0,0-.492-.332,2.355,2.355,0,0,0-.511-.21Zm4.621,1.289c.062-.062.128-.123.2-.178l-.176-.216c-.075.061-.147.128-.216.2Zm1.385-.75c.088-.017.176-.03.264-.041l-.032-.277c-.1.011-.191.025-.287.044l.054.274Zm.539-.068c.1-.009.191-.018.285-.033l-.043-.275c-.089.014-.179.023-.269.031l.026.278Zm.581-.1a1.2,1.2,0,0,0,.279-.143l-.157-.23a.926.926,0,0,1-.215.111Zm.513-.338a1.945,1.945,0,0,0,.2-.227l-.225-.165a1.693,1.693,0,0,1-.168.2l.2.2ZM27.536,27a2.2,2.2,0,0,0,.124-.271l-.261-.1a1.829,1.829,0,0,1-.108.235Zm.207-.56a1.422,1.422,0,0,0,.028-.307l-.279.007a1.148,1.148,0,0,1-.023.247Zm-.023-.617a2.322,2.322,0,0,0-.1-.277l-.256.11a2.054,2.054,0,0,1,.09.245l.268-.078Zm-.219-.535c-.03-.066-.06-.132-.088-.2-.007-.017-.014-.034-.021-.051l-.259.1c.026.065.054.128.082.191l.032.071.253-.116Zm-.2-.5a1.872,1.872,0,0,1-.056-.254l-.276.041a2.162,2.162,0,0,0,.065.29Zm-.084-.52c-.006-.09-.011-.182-.013-.272l-.279.007c0,.1.007.19.013.285Zm-.014-.545c0-.09.005-.18.012-.269l-.278-.023c-.008.1-.012.192-.013.288l.279.005Zm.05-.528c.018-.086.041-.172.067-.257l-.266-.083c-.029.093-.054.187-.074.282l.273.057Zm.156-.512c.033-.086.067-.173.1-.259l-.26-.1c-.033.087-.068.173-.1.26l.26.1Zm.2-.531a1.333,1.333,0,0,0,.062-.3l-.278-.02a1.047,1.047,0,0,1-.051.241l.266.081Zm.049-.612a1.726,1.726,0,0,0-.072-.294l-.264.089a1.452,1.452,0,0,1,.061.247l.275-.043Zm-.187-.569a2.193,2.193,0,0,0-.151-.256l-.23.158a1.834,1.834,0,0,1,.132.224l.249-.125Zm-.337-.49a1.658,1.658,0,0,0-.225-.2l-.166.224a1.425,1.425,0,0,1,.187.17Zm-1.081-.478-.277-.025-.027.278.278.025.026-.278Zm-.545-.058a1.972,1.972,0,0,1-.254-.057l-.079.268a2.334,2.334,0,0,0,.289.065l.044-.275ZM25,19.807c-.084-.032-.168-.067-.25-.1l-.114.254c.087.039.176.076.265.11Zm-.494-.221q-.12-.062-.235-.131l-.144.239c.082.05.167.1.252.14Zm-.452-.278a1.981,1.981,0,0,1-.194-.174l-.2.2a2.327,2.327,0,0,0,.221.2l.172-.22Zm-.368-.372,0,0c-.055-.07-.108-.141-.159-.213l-.226.163c.055.076.11.151.168.224l0,0,.218-.174Zm-.329-.446a2.192,2.192,0,0,0-.193-.226l-.2.2h0a2.041,2.041,0,0,1,.169.2l.222-.169Zm-.443-.418a1.528,1.528,0,0,0-.28-.123l-.086.265a1.237,1.237,0,0,1,.23.1l.137-.243Zm-.573-.192a2.2,2.2,0,0,0-.3-.026l0,.279a1.9,1.9,0,0,1,.258.022Zm-.594-.011a1.949,1.949,0,0,0-.294.058l.076.268a1.624,1.624,0,0,1,.252-.05l-.033-.277Zm-.58.169a1.142,1.142,0,0,0-.259.18l.19.2a.864.864,0,0,1,.2-.137Zm-.459.409c-.057.077-.11.157-.162.237l.234.152c.049-.075.1-.151.152-.223Zm-.313.468c-.05.074-.1.147-.157.217l.218.173c.06-.076.117-.154.17-.234Zm-.75.734c-.076.049-.153.095-.232.139l.136.243c.084-.047.166-.1.246-.148l-.151-.235Zm-.471.264a2.6,2.6,0,0,1-.244.1l.1.262c.091-.033.181-.072.269-.115Zm-.493.174c-.088.018-.175.032-.264.042l.033.277c.1-.012.192-.026.287-.046l-.057-.273Zm-.537.07c-.095.009-.19.018-.284.032l.04.276c.089-.013.18-.022.27-.03Zm-.579.1a1.187,1.187,0,0,0-.283.137l.153.233a.9.9,0,0,1,.217-.105Zm-.521.329a2,2,0,0,0-.2.225l.222.168a1.654,1.654,0,0,1,.171-.193Zm-.361.474a2.2,2.2,0,0,0-.128.269l.26.1a1.874,1.874,0,0,1,.111-.234l-.244-.136Zm-.215.557a1.45,1.45,0,0,0-.033.306h.279a1.189,1.189,0,0,1,.027-.247Zm.011.618a2.258,2.258,0,0,0,.1.28l.256-.109a1.909,1.909,0,0,1-.088-.245l-.269.074Zm.217.538c.038.083.077.165.113.249l.256-.109c-.037-.087-.077-.173-.117-.259l-.253.118Zm.207.5a2.075,2.075,0,0,1,.066.253l.274-.052a2.4,2.4,0,0,0-.075-.287Zm.106.518c.011.09.018.18.025.27l.278-.018c-.006-.1-.015-.19-.026-.285Zm.035.541c0,.089,0,.179-.006.268l.278.018c.006-.1.007-.193.006-.289Zm-.04.524a2.085,2.085,0,0,1-.07.252l.264.09a2.286,2.286,0,0,0,.079-.284L17,24.851Zm-.168.5c-.036.083-.074.166-.111.248l0,.005.254.114c.028-.061.055-.122.083-.183l.032-.072-.256-.111Zm-.224.521a1.427,1.427,0,0,0-.076.3l.277.032a1.143,1.143,0,0,1,.062-.239l-.263-.094Zm-.075.612a1.722,1.722,0,0,0,.064.3l.266-.081a1.507,1.507,0,0,1-.054-.249Zm.172.575a2.183,2.183,0,0,0,.145.259l.234-.152a1.97,1.97,0,0,1-.127-.227l-.251.12Zm.325.5a1.761,1.761,0,0,0,.218.21l.174-.217a1.485,1.485,0,0,1-.183-.177l-.208.185Zm.481.376a1.248,1.248,0,0,0,.3.093l.051-.274a.943.943,0,0,1-.232-.071l-.118.253Zm.591.128c.091.006.183.01.275.015h.006L18.4,27.8c-.092-.005-.184-.008-.276-.015l-.019.278Zm.551.035a2.574,2.574,0,0,1,.261.04l.057-.273c-.1-.02-.193-.035-.289-.045Zm1.876,1.063c.056.072.108.147.161.221l.227-.161c-.055-.077-.109-.154-.167-.23Zm.328.451.009.012a2.119,2.119,0,0,0,.187.213l.195-.2c-.031-.03-.061-.063-.089-.1s-.055-.066-.081-.1l-.221.17Zm.451.413a1.523,1.523,0,0,0,.282.118l.082-.266a1.275,1.275,0,0,1-.231-.1l-.132.245Zm.575.183a2.3,2.3,0,0,0,.3.022V29.95a1.917,1.917,0,0,1-.259-.02l-.039.276Zm.594,0a1.872,1.872,0,0,0,.294-.062l-.081-.267a1.6,1.6,0,0,1-.251.052l.037.276Zm.578-.177a1.106,1.106,0,0,0,.256-.186l-.194-.2a.854.854,0,0,1-.193.14l.132.245Zm.452-.416c.056-.077.109-.157.161-.237l-.234-.151c-.049.076-.1.152-.152.225Zm2.652-4.385a2.917,2.917,0,0,1-.233-.644,3.6,3.6,0,0,1-.053-.578,3.778,3.778,0,0,1,.024-.591,3.2,3.2,0,0,1,.212-.714,2.949,2.949,0,0,0,.126-.365,1,1,0,0,0-.145-.673,1.011,1.011,0,0,0-.5-.478,2,2,0,0,0-.445-.07c-.129-.011-.264-.023-.42-.051a3.1,3.1,0,0,1-.663-.226,3.152,3.152,0,0,1-.609-.353,2.616,2.616,0,0,1-.512-.573,2.253,2.253,0,0,0-.249-.309,1,1,0,0,0-.654-.211,1.017,1.017,0,0,0-.666.194,1.827,1.827,0,0,0-.277.363,2.889,2.889,0,0,1-.429.554,2.965,2.965,0,0,1-.543.387,2.721,2.721,0,0,1-.6.264,3.324,3.324,0,0,1-.568.088,2.141,2.141,0,0,0-.408.062,1.177,1.177,0,0,0-.675,1.135,2.013,2.013,0,0,0,.162.421,3.461,3.461,0,0,1,.217.547,3.4,3.4,0,0,1,.094.661,2.944,2.944,0,0,1-.022.638,2.746,2.746,0,0,1-.229.663,2.213,2.213,0,0,0-.143.37,1,1,0,0,0,.145.673,1.011,1.011,0,0,0,.5.478,1.79,1.79,0,0,0,.454.059,3.41,3.41,0,0,1,.547.058,2.681,2.681,0,0,1,.653.256,2.843,2.843,0,0,1,.59.4,3.088,3.088,0,0,1,.4.485,2.194,2.194,0,0,0,.257.322,1,1,0,0,0,.654.211,1.017,1.017,0,0,0,.666-.194,1.827,1.827,0,0,0,.277-.363c.072-.111.147-.227.24-.345A2.564,2.564,0,0,1,23.9,27.3a2.863,2.863,0,0,1,.681-.346,2.949,2.949,0,0,1,.658-.115,2.142,2.142,0,0,0,.408-.062,1.177,1.177,0,0,0,.675-1.135,2.016,2.016,0,0,0-.156-.408Zm-4.1-3.257a2.067,2.067,0,1,1-1.461.605A2.058,2.058,0,0,1,22.068,21.975Zm1.146.92a1.622,1.622,0,1,0,.474,1.146A1.616,1.616,0,0,0,23.215,22.9Zm.606,6.263c.056-.077.109-.157.161-.237l-.234-.151c-.049.076-.1.152-.152.225Zm-3.458-.188c-.056-.077-.109-.157-.161-.237l.234-.151c.049.076.1.152.152.225Zm-.263-.43c-.062-.062-.128-.123-.2-.178l.176-.216c.075.061.147.128.216.2Zm-.046-9.213c-.063.065-.127.127-.194.188l.188.206q.106-.1.206-.2Zm6.57.806-.264-.088-.09.264.265.088.089-.264Z" transform="translate(-10.759 -1.449)"/>
          </g>
        </g>
      </g>
    </g>
  </g>
</svg>
