<svg xmlns="http://www.w3.org/2000/svg" xmlns:xlink="http://www.w3.org/1999/xlink" width="32" height="32" viewBox="0 0 32 32">
  <defs>
    <clipPath id="clip-path">
      <rect id="Rectangle_294" data-name="Rectangle 294" width="32" height="32" transform="translate(183 374)" fill="#fff"/>
    </clipPath>
  </defs>
  <g id="Mask_Group_71" data-name="Mask Group 71" transform="translate(-183 -374)" clip-path="url(#clip-path)">
    <g id="noun_connections_1593255" transform="translate(183 374.007)">
      <g id="Group_244" data-name="Group 244" transform="translate(0 0)">
        <g id="Group_243" data-name="Group 243">
          <g id="Group_242" data-name="Group 242">
            <path id="Path_1088" data-name="Path 1088" d="M10.175,12.019,16.841,7.39a.678.678,0,1,1,1.28-.425L20.072,6.9A1.246,1.246,0,0,1,22.5,6.811l2.153-.076a.656.656,0,0,1,1.3.1.663.663,0,0,1-.035.213l6.6,3.808a.592.592,0,0,1,.175-.026.6.6,0,0,1,.579.764l2.383,3.5a1.186,1.186,0,1,1,.853,2.2q.41,3.112.819,6.225a.6.6,0,0,1-.049,1.2.634.634,0,0,1-.1-.009Q35.9,28.06,34.632,31.405a.631.631,0,0,1,.1.08.6.6,0,0,1-.8.9l-6.769,4.384a.6.6,0,1,1-1.145.358l-5.772.354a.6.6,0,0,1-1.168-.2h0l-2.391-1.043a.6.6,0,0,1-1.021-.43v-.016l-2.4-1.049-2.8-2.567a.6.6,0,0,1-.776-.912L7.654,28.151a1.266,1.266,0,1,1-.793-2.392l-.377-3.4q.378-2.467.755-4.934A.6.6,0,0,1,7.594,16.4L9.24,13.077a.764.764,0,0,1-.122-.1.714.714,0,0,1,1.01-1.01c.016.016.032.033.046.051ZM7.515,27.935l-.27-.413a.591.591,0,0,1-.126.013.6.6,0,0,1-.6-.6.5.5,0,0,1,.2-.412.593.593,0,0,1,.222-.107l-.045-.405a1.013,1.013,0,1,0,.625,1.924Zm-.372-2.209a1.261,1.261,0,0,1,.9.371,1.287,1.287,0,0,1,.208.273l4.528-2.538a.87.87,0,0,1-.033-.238.86.86,0,0,1,.148-.484L7.781,17.588a.587.587,0,0,1-.111.01.6.6,0,0,1-.2-.033l-.734,4.793.373,3.368h.03Zm1.2.876a1.268,1.268,0,0,1-.309,1.285,1.252,1.252,0,0,1-.163.138L9.9,31.119a.6.6,0,0,1,.641.136.605.605,0,0,1,.157.274l2.074-.1a1.229,1.229,0,0,1,1.04-1.15q-.145-2.911-.291-5.821a.859.859,0,0,1-.526-.249.849.849,0,0,1-.114-.141Zm-.488-.326a1.009,1.009,0,0,0-.716-.3h0l.046.417a.627.627,0,0,1,.337.126.505.505,0,0,1,.142.172l.359-.2a1,1,0,0,0-.166-.218Zm-.122,1.538a.967.967,0,0,0,.122-.1,1.015,1.015,0,0,0,.262-.98l-.4.225a.6.6,0,0,1-.175.405.636.636,0,0,1-.066.057l.259.4Zm12.6-20.927.434-.015a.65.65,0,0,1,.086-.109.6.6,0,0,1,.85,0,.628.628,0,0,1,.062.073l.471-.016a.993.993,0,0,0-1.643-.385,1,1,0,0,0-.259.453Zm2.2.174c0,.025,0,.051,0,.076a1.247,1.247,0,0,1-.7,1.118l1.336,2.7a.612.612,0,0,1,.1-.009.6.6,0,0,1,.234.047l1.426-3.607a.674.674,0,0,1-.11-.088.657.657,0,0,1-.175-.316Zm-.931,1.281a1.246,1.246,0,0,1-1.557-1.194l-1.92.068a.678.678,0,0,1-.67.576.6.6,0,0,1-.09-.006l-1.443,4.349a1.3,1.3,0,0,1,.735.805L22.7,11.678a.591.591,0,0,1-.014-.13.6.6,0,0,1,.176-.425.609.609,0,0,1,.088-.073L21.607,8.34Zm-1.3-1.2a.994.994,0,0,0,.993.99,1,1,0,0,0,.2-.02l-.16-.323-.053,0a.6.6,0,0,1-.6-.6c0-.021,0-.042,0-.062Zm1.43.888A1.015,1.015,0,0,0,22,7.838a.989.989,0,0,0,.291-.7c0-.023,0-.045,0-.067l-.415.015a.619.619,0,0,1,.009.1.6.6,0,0,1-.176.425.61.61,0,0,1-.128.1ZM35.8,15.3l.187.275a.627.627,0,0,1,.449,1.168l.039.295a.933.933,0,1,0-.675-1.737Zm.461,2.035c-.027,0-.052,0-.08,0a1.186,1.186,0,0,1-1.115-.783l-4.368.995c0,.016,0,.032,0,.047a.769.769,0,0,1-.121.415l6.357,5.611a.58.58,0,0,1,.142-.073l-.817-6.213ZM35,16.314a1.191,1.191,0,0,1,.337-1,1.129,1.129,0,0,1,.1-.09l-2.308-3.388-.016.016a.6.6,0,0,1-.653.131l-2.148,4.946a.8.8,0,0,1,.153.119.775.775,0,0,1,.17.255L35,16.315Zm.58-.876a.817.817,0,0,0-.064.059.929.929,0,0,0-.273.66.894.894,0,0,0,.006.1l.3-.068v-.014a.624.624,0,0,1,.184-.443l.03-.028-.181-.266ZM35.31,16.5a.943.943,0,0,0,.207.314.929.929,0,0,0,.66.273h.046l-.038-.287h-.01a.625.625,0,0,1-.443-.184.614.614,0,0,1-.128-.184l-.3.067ZM10.3,12.24a.714.714,0,0,1,.039.234c0,.011,0,.022,0,.033l3.836.522a1.291,1.291,0,0,1,1.256-.993,1.328,1.328,0,0,1,.257.025l1.445-4.354a.672.672,0,0,1-.146-.109L10.3,12.24Zm-.018.513a.715.715,0,0,1-.658.435.734.734,0,0,1-.15-.016L7.863,16.429a.6.6,0,0,1,.391.425l6.01-2.974a1.284,1.284,0,0,1-.125-.555c0-.016,0-.032,0-.049l-3.858-.525Zm18,16.591A1.23,1.23,0,0,1,29.341,30.8l4.395.922a.6.6,0,0,1,.1-.19l-4.895-6.082h-.036a.6.6,0,0,1-.217-.04l-.408,3.935Zm.982,1.7a1.229,1.229,0,0,1-2.36-.478c0-.031,0-.062,0-.092l-3.454-.97a.726.726,0,0,1-.11.141.714.714,0,0,1-.123.1l1.53,3.11c.035,0,.071,0,.107,0a1.229,1.229,0,0,1,1.179.881l7.413-1.809-4.185-.877Zm-2.311-.82a1.23,1.23,0,0,1,1.077-.882l.424-4.095a.622.622,0,0,1-.055-.074L23.484,28.8a.724.724,0,0,1,.076.324.744.744,0,0,1-.013.136l3.409.957ZM16.27,35.2a.6.6,0,0,1,.561.817l2.305,1.006a.6.6,0,0,1,.546-.35.61.61,0,0,1,.1.009l1.277-3.34L15.156,31.9a1.236,1.236,0,0,1-.288.456,1.222,1.222,0,0,1-.167.14l1.5,2.709a.6.6,0,0,1,.076-.005Zm-.54.336a.591.591,0,0,1,.115-.16.614.614,0,0,1,.108-.086l-1.476-2.672a1.229,1.229,0,0,1-1.694-.944l-2.077.105a.608.608,0,0,1-.074.2L13.4,34.522l2.326,1.015Zm4.287,1.24a.611.611,0,0,1,.088.073.6.6,0,0,1,.174.371l5.732-.352a.6.6,0,0,1,.167-.318.615.615,0,0,1,.082-.069l-.692-1.406a1.229,1.229,0,0,1-1.936-1c0-.034,0-.068,0-.1L21.307,33.4l-1.29,3.374Zm6.585-.4a.6.6,0,0,1,.425.176h0l6.744-4.368a.644.644,0,0,1-.033-.077l-7.654,1.868q0,.049,0,.1a1.226,1.226,0,0,1-.324.832l.728,1.482a.58.58,0,0,1,.11-.01Zm-2.92-2.652A1.23,1.23,0,0,1,24.5,32.9l-1.506-3.063a.733.733,0,0,1-.32,0L21.4,33.167Zm-9.621-3.463a1.229,1.229,0,0,1,1.152,1.394l5.937,1.45,1.288-3.369a.726.726,0,0,1-.3-.825L14.215,24.2l0,0a.864.864,0,0,1-.441.236l.291,5.822ZM25.792,7.268l-.031.033a.654.654,0,0,1-.464.192.671.671,0,0,1-.119-.011l-1.449,3.665a.6.6,0,0,1,.153.364l8.347-.463c.011-.013.023-.027.036-.039l0,0L25.792,7.268Zm-1.949,4.5a.6.6,0,0,1-.049.1l5.643,5.131a.771.771,0,0,1,.481-.167.8.8,0,0,1,.161.016l2.171-5a.6.6,0,0,1-.162-.41.591.591,0,0,1,.013-.126l-8.259.458Zm-.222.281a.588.588,0,0,1-.255.1l-1.359,7.672a1.227,1.227,0,0,1,.744.6l6.412-2.639a.779.779,0,0,1,.1-.6L23.62,12.046Zm-.508.08a.6.6,0,0,1-.256-.151.524.524,0,0,1-.052-.06l-6.093,1.273a1.291,1.291,0,0,1-.371,1.052l0,0L21,19.97a1.223,1.223,0,0,1,.674-.2c.03,0,.06,0,.089,0q.678-3.823,1.354-7.646ZM36.936,24.617a.631.631,0,0,1-.086-.072.6.6,0,0,1-.155-.264l-7.24.818a.6.6,0,0,1-.121.174.622.622,0,0,1-.128.1l4.83,6a.6.6,0,0,1,.36-.057Zm-.256-.588a.6.6,0,0,1,.079-.218L30.406,18.2a.77.77,0,0,1-.487.172H29.9l-1.061,5.6-.029.283a.612.612,0,0,1,.1-.008.6.6,0,0,1,.6.591l7.172-.811ZM22.832,21.394l5.573,3.125a.63.63,0,0,1,.078-.1.648.648,0,0,1,.062-.055l.044-.428v-.01l1.061-5.6a.773.773,0,0,1-.393-.321l-6.412,2.639A1.224,1.224,0,0,1,22.9,21a1.239,1.239,0,0,1-.066.4Zm5.482,3.363-5.588-3.134a1.231,1.231,0,0,1-.764.566l.857,6.212h.014a.721.721,0,0,1,.5.2l4.979-3.68a.563.563,0,0,1,0-.073.616.616,0,0,1,.007-.091ZM16.142,14.4a1.285,1.285,0,0,1-.713.215c-.034,0-.068,0-.1,0l-1.453,8.164a.864.864,0,0,1,.563.61l6.037-2.106a1.231,1.231,0,0,1,.326-1.151L16.141,14.4Zm-1.062.167a1.294,1.294,0,0,1-.687-.472L8.254,17.135a.6.6,0,0,1-.16.288.565.565,0,0,1-.069.059l5.034,5.442a.858.858,0,0,1,.544-.193h.025Q14.354,18.651,15.08,14.569Zm-.618,9.076a.86.86,0,0,1-.1.352l7.891,4.691a.706.706,0,0,1,.064-.073.725.725,0,0,1,.252-.164q-.429-3.113-.859-6.227H21.67a1.229,1.229,0,0,1-1.112-.707l-6.1,2.127ZM7.7,17H7.669l.02.02A.08.08,0,0,1,7.7,17Z" transform="translate(-5.876 -5.891)"/>
          </g>
        </g>
      </g>
    </g>
  </g>
</svg>
