<svg xmlns="http://www.w3.org/2000/svg" xmlns:xlink="http://www.w3.org/1999/xlink" width="32" height="32" viewBox="0 0 32 32">
  <defs>
    <clipPath id="clip-path">
      <rect id="Rectangle_294" data-name="Rectangle 294" width="32" height="32" transform="translate(183 478)" fill="#fff"/>
    </clipPath>
  </defs>
  <g id="Mask_Group_73" data-name="Mask Group 73" transform="translate(-183 -478)" clip-path="url(#clip-path)">
    <g id="noun_Document_2640639" transform="translate(184.091 478)">
      <path id="Path_1090" data-name="Path 1090" d="M3.2,14.949V3.39a3.1,3.1,0,0,1,.355-1.7,1.658,1.658,0,0,1,1.524-.674H21.382a1.657,1.657,0,0,1,1.524.674,3.1,3.1,0,0,1,.355,1.7V3.6l8.475,2.895a1.658,1.658,0,0,1,1.225,1.13,3.1,3.1,0,0,1-.214,1.724L25.276,31.227a3.1,3.1,0,0,1-.886,1.5,1.657,1.657,0,0,1-1.659.144L11.068,28.883H5.077a1.657,1.657,0,0,1-1.524-.674,3.1,3.1,0,0,1-.355-1.7V14.949Zm5.893-8.5v.5h-.5v-.5Zm8.914,0v.5h-.5v-.5Zm-2.971,0v.5h-.5v-.5Zm-2.971,0v.5h-.5v-.5ZM5.455,23.377H21v.44H5.455Zm0-3.618H21v.44H5.455Zm0-3.618H21v.44H5.455Zm0-3.618H21v.44H5.455Zm0-3.618H21v.44H5.455ZM23.262,4.064V26.508a3.1,3.1,0,0,1-.355,1.7,1.658,1.658,0,0,1-1.524.674H12.428L22.872,32.45a1.26,1.26,0,0,0,1.25-.075,2.736,2.736,0,0,0,.738-1.29L32.333,9.207a2.741,2.741,0,0,0,.205-1.474c-.092-.356-.376-.63-.942-.824L23.262,4.063ZM3.637,3.389V26.508a2.737,2.737,0,0,0,.282,1.46,1.261,1.261,0,0,0,1.158.474H21.383a1.262,1.262,0,0,0,1.158-.474,2.739,2.739,0,0,0,.282-1.46V3.389a2.737,2.737,0,0,0-.282-1.46,1.261,1.261,0,0,0-1.158-.474H5.077a1.262,1.262,0,0,0-1.158.474A2.739,2.739,0,0,0,3.637,3.389Z" transform="translate(-3.197 -1.015)"/>
    </g>
  </g>
</svg>
