<svg xmlns="http://www.w3.org/2000/svg" xmlns:xlink="http://www.w3.org/1999/xlink" width="32" height="32" viewBox="0 0 32 32">
  <defs>
    <clipPath id="clip-path">
      <rect id="Rectangle_293" data-name="Rectangle 293" width="32" height="32" transform="translate(116 271)" fill="#fff" stroke="#707070" stroke-width="1"/>
    </clipPath>
  </defs>
  <g id="Mask_Group_70" data-name="Mask Group 70" transform="translate(-116 -271)" clip-path="url(#clip-path)">
    <g id="noun_app_badge_2864647" data-name="noun_app badge_2864647" transform="translate(116 271.006)">
      <path id="Path_1087" data-name="Path 1087" d="M17.711,6.931a10.785,10.785,0,1,1-7.626,3.159A10.751,10.751,0,0,1,17.711,6.931Zm-16,10.785V9.035h0A7.313,7.313,0,0,1,9.023,1.723H26.4a7.313,7.313,0,0,1,7.313,7.313h0V26.4h0A7.313,7.313,0,0,1,26.4,33.711H9.023A7.313,7.313,0,0,1,1.711,26.4h0V17.717Zm.448-8.681V26.4h0a6.863,6.863,0,0,0,6.863,6.863H26.4A6.863,6.863,0,0,0,33.261,26.4h0V9.035h0A6.863,6.863,0,0,0,26.4,2.172H9.023A6.863,6.863,0,0,0,2.16,9.035h0Zm16.012.24h-.026l-.054,0-.054,0-.054,0-.054,0h-.218v.449h.258l.051,0,.051,0,.051,0h.026l.023-.449Zm-1.408.04-.023,0-.053.006-.053.007-.053.007-.053.007-.053.008-.053.008-.052.008-.052.008-.013,0,.076.443.06-.01.05-.008.05-.007.05-.007.05-.007.05-.007.05-.006.05-.006.023,0Zm-1.8.4-.015,0-.049.017-.049.017-.049.018-.048.018-.048.018-.048.019-.048.019-.048.019-.031.012.17.416.028-.011.045-.018.046-.018.046-.018.046-.017.046-.017L15,10.181l.046-.016.046-.016.015,0-.147-.425ZM13.3,10.5l-.014.009-.043.027-.043.027-.043.027-.043.028-.043.028-.042.028-.042.028-.042.029-.031.021.256.369.029-.02.04-.027.04-.027.04-.027.04-.026.041-.026.041-.026.041-.026.041-.025.014-.009L13.3,10.5Zm-1.458,1.129-.035.034-.036.036-.036.036-.036.036-.036.036-.035.036-.035.037-.035.037-.04.043.331.3.036-.039.033-.035.033-.035.033-.034.034-.034.034-.034.034-.034.034-.034.035-.034-.314-.322ZM10.66,13.05l-.016.025-.028.043-.028.043-.027.043-.027.043-.027.043-.027.043-.026.044-.026.044-.012.021.388.226.011-.019.025-.042.025-.041.025-.041.025-.041.026-.041.026-.041.026-.041.026-.04.016-.025-.375-.247Zm-.845,1.638-.01.025-.018.048-.018.048-.018.049-.017.049-.017.049-.017.049-.016.049-.016.049-.006.02.428.136.006-.017.015-.047.016-.047.016-.046.016-.046.016-.046.017-.046.017-.046.017-.046.01-.025-.42-.16Zm-.468,1.783-.009.064-.007.053-.007.053-.007.053-.006.053-.006.053-.006.053-.005.053,0,.024.448.04,0-.021,0-.051.005-.05.006-.05.006-.05.006-.05.007-.05.007-.05.009-.061-.445-.065Zm-.071,1.841,0,.055,0,.054,0,.054,0,.053.005.053.006.053.006.053.006.053,0,.032.446-.057,0-.029-.006-.05-.006-.05-.005-.05,0-.051,0-.051,0-.051,0-.051,0-.052-.448.031ZM9.6,20.126l.016.055.015.05.016.05.016.049.016.049.016.049.017.049.017.049.014.039.423-.152-.013-.037-.016-.046-.016-.046-.016-.047-.015-.047-.015-.047-.015-.047-.014-.047L10.036,20l-.431.128Zm.716,1.7.006.01.025.045.025.044.026.044.026.044.026.044.026.044.027.043.027.043.022.035.38-.24-.021-.033-.025-.041-.025-.041-.025-.041-.025-.042-.024-.042-.024-.042-.024-.042-.024-.042-.006-.01Zm1.068,1.5.031.034.034.038.034.037.034.037.035.037.035.037.035.037.035.036.043.043.318-.318-.039-.039-.033-.034-.033-.035-.033-.035-.033-.035-.033-.035-.032-.035-.032-.036-.031-.034-.334.3Zm1.366,1.237.021.015.041.03.042.029.042.029.042.029.042.029.042.028.042.028.043.028.024.015.243-.378-.022-.014-.04-.026-.04-.027-.04-.027-.04-.027-.04-.027-.039-.028-.039-.028-.039-.028-.021-.015Zm1.6.913.017.007.047.02.048.02.048.02.048.019.048.019.048.019.048.019.048.018.029.011.155-.422-.026-.01-.046-.017-.046-.018-.046-.018-.045-.018-.045-.018-.045-.019-.045-.019-.045-.019-.017-.007-.178.413Zm1.763.542.044.008.052.009.052.009.052.009.052.008.052.008.053.008.053.008.044.006.059-.446-.041-.006-.05-.007-.05-.007-.05-.008-.05-.008-.049-.008-.049-.009-.049-.009-.044-.008-.082.442Zm1.837.146h.028l.054,0,.054,0,.054,0,.054,0,.054,0,.054,0,.054,0,.055,0-.04-.448h0l-.051,0-.051,0-.051,0-.051,0-.051,0-.051,0-.051,0-.051,0h-.028Zm1.826-.252.042-.011.051-.013.05-.013.05-.014.05-.014.05-.014.05-.015.05-.015.051-.016-.136-.428h0l-.047.014L20,25.39l-.047.014-.047.014-.048.013-.048.013-.048.013-.048.012-.042.011.112.435Zm1.727-.643.052-.026.045-.023.045-.024.045-.024.045-.024.045-.025.045-.025.045-.025.04-.023-.224-.39-.037.021-.042.024-.042.023-.042.023-.043.023-.043.023-.043.022-.043.022-.049.025.2.4Zm1.547-1,.034-.028.039-.032.039-.033.039-.033.038-.033.038-.033.038-.034.038-.034.038-.034.009-.008-.3-.331-.043.039-.036.032-.036.032-.036.032-.036.031-.037.031-.037.031-.037.031-.034.028.286.347Zm1.292-1.313.014-.018.031-.04.031-.04.031-.04.031-.041.03-.041.03-.041.03-.041.03-.041.018-.026-.368-.258-.017.024-.028.039-.028.039-.028.039-.029.039-.029.038-.029.038-.029.038-.03.038-.014.018.353.278Zm.979-1.562.027-.057.022-.046.022-.047.021-.047.021-.047.021-.047.02-.047.02-.047.015-.036L25.1,20.8l-.014.033-.019.045-.019.045-.02.045-.02.044-.02.044-.02.044-.021.044-.026.055.4.2Zm.616-1.738.007-.029.012-.051.011-.051.011-.051.011-.052.01-.052.01-.052.01-.052.011-.063-.443-.076-.01.057-.009.049-.01.049-.01.049-.01.049-.01.049-.011.049-.011.048-.007.029.438.1Zm.223-1.83V17.5l0-.054,0-.054v-.026l-.449.02v.024l0,.051v.363l.449,0Zm-.176-1.834-.006-.029-.011-.051-.011-.051-.012-.051-.012-.051-.012-.051-.013-.051L25.9,15.6l-.013-.051,0-.013-.434.117,0,.01.012.048.012.048.012.048.012.048.011.048.011.048.011.049.01.049.006.029.44-.093Zm-.57-1.752-.022-.047-.022-.047-.022-.046-.022-.046-.022-.046-.023-.046-.023-.046-.023-.046-.023-.045-.4.207.022.043.022.043.022.043.021.044.021.044.021.044.021.044.02.044.02.045.41-.185Zm-.939-1.588-.025-.033-.031-.04-.031-.04-.031-.04-.031-.04-.032-.04-.032-.039-.032-.039L24.2,12.3l-.009-.011-.343.29.008.009.031.037.03.037.03.037.03.038.03.038.03.038.029.038.029.038.025.033.358-.271ZM23.221,11.3l-.016-.014-.039-.033-.039-.033-.039-.032-.039-.032-.039-.032-.04-.032-.04-.031-.04-.031-.028-.021-.273.357.025.02.038.03.038.03.038.03.037.03.037.03.037.031.037.031.037.031.016.014.292-.341ZM21.7,10.262l-.051-.027-.045-.024-.045-.023-.046-.023-.046-.023-.046-.023-.046-.022-.046-.022-.041-.019-.19.407.039.018.044.021.044.021.044.021.043.022.043.022.043.022.043.022.048.026.212-.4Zm-1.711-.688-.016,0-.05-.014-.05-.013-.051-.013-.051-.013L19.722,9.5l-.051-.012-.051-.012-.051-.012-.026-.006-.1.439.023.005.048.011.048.011.048.012.048.012.048.012.048.012.048.013.048.013.016,0Zm5.029.835a10.336,10.336,0,1,0,3.027,7.308A10.3,10.3,0,0,0,25.019,10.408Z" transform="translate(-1.711 -1.723)"/>
    </g>
  </g>
</svg>
