<svg xmlns="http://www.w3.org/2000/svg" xmlns:xlink="http://www.w3.org/1999/xlink" width="64" height="64" viewBox="0 0 64 64">
  <defs>
    <clipPath id="clip-path">
      <rect id="Rectangle_25" data-name="Rectangle 25" width="64" height="64" transform="translate(362 80)" fill="#2b2b2b" stroke="#707070" stroke-width="1"/>
    </clipPath>
  </defs>
  <g id="Mask_Group_14" data-name="Mask Group 14" transform="translate(-362 -80)" clip-path="url(#clip-path)">
    <g id="noun_connections_1593255" transform="translate(356.096 74.095)">
      <g id="Group_58" data-name="Group 58" transform="translate(0.028 0.028)">
        <g id="Group_57" data-name="Group 57">
          <g id="Group_56" data-name="Group 56">
            <path id="Path_22" data-name="Path 22" d="M14.473,18.147,27.805,8.889a1.356,1.356,0,1,1,2.56-.851l3.9-.138a2.492,2.492,0,0,1,4.849-.17l4.305-.153a1.312,1.312,0,0,1,2.608.206,1.327,1.327,0,0,1-.071.427q6.6,3.808,13.194,7.615a1.184,1.184,0,0,1,.35-.052A1.2,1.2,0,0,1,60.662,17.3l4.766,7A2.372,2.372,0,1,1,67.134,28.7q.82,6.225,1.639,12.45a1.2,1.2,0,0,1-.1,2.4,1.269,1.269,0,0,1-.21-.018q-2.538,6.693-5.077,13.384a1.263,1.263,0,0,1,.2.159,1.2,1.2,0,0,1-1.6,1.791L48.451,67.639a1.2,1.2,0,1,1-2.29.716l-11.543.707a1.2,1.2,0,0,1-2.336-.4h0L27.5,66.573a1.2,1.2,0,0,1-2.041-.86v-.032l-4.805-2.1-5.607-5.135A1.2,1.2,0,0,1,13.5,56.624L9.432,50.41a2.532,2.532,0,1,1-1.586-4.785l-.754-6.81q.756-4.933,1.51-9.869a1.2,1.2,0,0,1,.71-2.031L12.6,20.263a1.528,1.528,0,0,1-.245-.2,1.428,1.428,0,0,1,2.02-2.02c.033.033.063.067.092.1ZM9.154,49.98l-.54-.826a1.181,1.181,0,0,1-.253.027,1.2,1.2,0,0,1-1.2-1.2,1,1,0,0,1,.391-.823,1.187,1.187,0,0,1,.443-.215l-.09-.811a2.027,2.027,0,1,0,1.25,3.848ZM8.41,45.562a2.523,2.523,0,0,1,1.79.741,2.575,2.575,0,0,1,.415.545l9.056-5.077A1.741,1.741,0,0,1,19.6,41.3a1.72,1.72,0,0,1,.3-.967L9.686,29.285a1.173,1.173,0,0,1-.222.02,1.2,1.2,0,0,1-.394-.066L7.6,38.826l.746,6.735H8.41Zm2.409,1.751a2.537,2.537,0,0,1-.619,2.57,2.5,2.5,0,0,1-.326.275l4.046,6.188a1.2,1.2,0,0,1,1.281.273,1.21,1.21,0,0,1,.314.548l4.149-.21a2.458,2.458,0,0,1,2.079-2.3q-.29-5.821-.582-11.643a1.718,1.718,0,0,1-1.053-.5,1.7,1.7,0,0,1-.229-.283Zm-.976-.653a2.019,2.019,0,0,0-1.433-.593H8.4L8.5,46.9a1.254,1.254,0,0,1,.674.252,1.011,1.011,0,0,1,.284.345l.718-.4a2,2,0,0,0-.332-.436ZM9.6,49.736a1.934,1.934,0,0,0,.245-.21,2.03,2.03,0,0,0,.524-1.961l-.805.451a1.2,1.2,0,0,1-.351.811,1.271,1.271,0,0,1-.133.115l.519.794ZM34.791,7.882l.867-.03a1.3,1.3,0,0,1,.172-.217,1.2,1.2,0,0,1,1.7,0,1.255,1.255,0,0,1,.125.146l.942-.033a1.986,1.986,0,0,0-3.286-.77,1.99,1.99,0,0,0-.519.905Zm4.409.347c0,.05.005.1.005.152a2.493,2.493,0,0,1-1.393,2.236l2.673,5.407a1.223,1.223,0,0,1,.206-.018,1.208,1.208,0,0,1,.468.095l2.852-7.214a1.348,1.348,0,0,1-.22-.177,1.314,1.314,0,0,1-.351-.631Zm-1.862,2.563A2.493,2.493,0,0,1,34.223,8.4l-3.839.135a1.356,1.356,0,0,1-1.34,1.151,1.2,1.2,0,0,1-.181-.013l-2.886,8.7a2.593,2.593,0,0,1,1.47,1.611l12.071-2.521a1.181,1.181,0,0,1-.028-.26,1.2,1.2,0,0,1,.352-.85,1.219,1.219,0,0,1,.175-.145l-2.679-5.421ZM34.729,8.387a1.987,1.987,0,0,0,1.986,1.98,2,2,0,0,0,.393-.039l-.319-.646c-.035,0-.071.005-.106.005a1.2,1.2,0,0,1-1.2-1.2c0-.042,0-.083.006-.124Zm2.86,1.776a2.031,2.031,0,0,0,.53-.379,1.979,1.979,0,0,0,.582-1.4c0-.045,0-.09-.005-.134l-.831.029a1.239,1.239,0,0,1,.018.207,1.2,1.2,0,0,1-.352.85,1.219,1.219,0,0,1-.256.2ZM65.716,24.719l.374.549a1.254,1.254,0,0,1,.9,2.337l.078.59a1.866,1.866,0,1,0-1.351-3.474Zm.922,4.07c-.053,0-.1.005-.159.005a2.372,2.372,0,0,1-2.231-1.567l-8.735,1.99c0,.032,0,.063,0,.095a1.538,1.538,0,0,1-.241.829L67.988,41.362a1.16,1.16,0,0,1,.284-.145L66.637,28.79Zm-2.51-2.052a2.383,2.383,0,0,1,.674-1.991,2.259,2.259,0,0,1,.2-.179l-4.616-6.776-.032.033a1.2,1.2,0,0,1-1.305.263l-4.3,9.892a1.6,1.6,0,0,1,.306.237,1.549,1.549,0,0,1,.34.51l8.728-1.987Zm1.16-1.752a1.634,1.634,0,0,0-.129.117,1.859,1.859,0,0,0-.547,1.319,1.789,1.789,0,0,0,.011.2l.6-.136V26.46a1.249,1.249,0,0,1,.367-.886q.03-.03.061-.057l-.362-.533Zm-.544,2.129a1.886,1.886,0,0,0,.414.629,1.859,1.859,0,0,0,1.319.547l.092,0-.076-.573h-.02a1.249,1.249,0,0,1-.886-.367,1.228,1.228,0,0,1-.255-.369l-.591.134Zm-50.02-8.524a1.428,1.428,0,0,1,.078.467c0,.021,0,.044,0,.066l7.672,1.044a2.583,2.583,0,0,1,2.512-1.986,2.656,2.656,0,0,1,.514.05l2.89-8.709A1.344,1.344,0,0,1,28.1,9.3L14.726,18.589Zm-.035,1.025a1.43,1.43,0,0,1-1.316.87,1.467,1.467,0,0,1-.3-.032L9.85,26.967a1.2,1.2,0,0,1,.781.851l12.02-5.948a2.568,2.568,0,0,1-.25-1.11c0-.033,0-.064,0-.1l-7.716-1.049ZM50.693,52.8a2.461,2.461,0,0,1,2.112,2.913l8.79,1.843a1.2,1.2,0,0,1,.208-.38L52.014,45.007l-.072,0a1.2,1.2,0,0,1-.433-.081L50.693,52.8Zm1.964,3.395a2.457,2.457,0,0,1-4.72-.957c0-.062,0-.124.006-.184L41.036,53.11a1.451,1.451,0,0,1-.22.283,1.428,1.428,0,0,1-.246.2l3.059,6.22c.071-.006.143-.009.215-.009A2.458,2.458,0,0,1,46.2,61.563l14.826-3.617-8.37-1.755Zm-4.622-1.64a2.461,2.461,0,0,1,2.154-1.764l.848-8.19a1.244,1.244,0,0,1-.11-.148l-9.836,7.269a1.448,1.448,0,0,1,.153.648,1.487,1.487,0,0,1-.025.271l6.818,1.914ZM26.664,64.511a1.2,1.2,0,0,1,1.122,1.634L32.4,68.157a1.2,1.2,0,0,1,1.092-.7,1.22,1.22,0,0,1,.2.018l2.554-6.68L24.436,57.911a2.472,2.472,0,0,1-.577.913,2.444,2.444,0,0,1-.335.28l2.992,5.419a1.19,1.19,0,0,1,.151-.01Zm-1.079.673a1.183,1.183,0,0,1,.23-.321,1.229,1.229,0,0,1,.216-.172l-2.952-5.344A2.458,2.458,0,0,1,19.69,57.46l-4.154.211a1.217,1.217,0,0,1-.148.407l5.544,5.077,4.651,2.03Zm8.574,2.48a1.223,1.223,0,0,1,.177.146,1.2,1.2,0,0,1,.347.741l11.464-.7a1.194,1.194,0,0,1,.333-.635,1.231,1.231,0,0,1,.164-.138l-1.384-2.813a2.457,2.457,0,0,1-3.872-2.009c0-.068,0-.135.009-.2l-4.659-1.138-2.579,6.748Zm13.17-.8a1.2,1.2,0,0,1,.85.352h0l13.489-8.737a1.289,1.289,0,0,1-.067-.154L46.292,62.06q.008.1.008.2a2.451,2.451,0,0,1-.649,1.664l1.457,2.963a1.16,1.16,0,0,1,.221-.02Zm-5.839-5.3a2.459,2.459,0,0,1,1.629-1.649l-3.012-6.127a1.467,1.467,0,0,1-.64,0l-2.546,6.662ZM22.248,54.632a2.459,2.459,0,0,1,2.3,2.789l11.874,2.9L39,53.583a1.451,1.451,0,0,1-.6-1.65q-7.925-4.71-15.849-9.422l-.006.006a1.728,1.728,0,0,1-.882.472l.582,11.644ZM45.709,8.644c-.02.023-.04.045-.062.067a1.308,1.308,0,0,1-.928.384,1.342,1.342,0,0,1-.239-.021l-2.9,7.33a1.191,1.191,0,0,1,.307.727L58.583,16.2c.023-.027.047-.053.072-.078l.005-.005L45.708,8.646Zm-3.9,8.994a1.19,1.19,0,0,1-.1.2L53,28.1a1.542,1.542,0,0,1,.962-.335,1.591,1.591,0,0,1,.322.033l4.342-10a1.2,1.2,0,0,1-.323-.821,1.181,1.181,0,0,1,.027-.253l-16.517.917Zm-.444.562a1.175,1.175,0,0,1-.51.2L38.139,33.74a2.455,2.455,0,0,1,1.488,1.2l12.823-5.279a1.559,1.559,0,0,1,.21-1.192L41.365,18.2Zm-1.015.16a1.2,1.2,0,0,1-.511-.3,1.048,1.048,0,0,1-.1-.12L27.549,20.483a2.581,2.581,0,0,1-.741,2.1L26.8,22.6l9.32,11.453a2.446,2.446,0,0,1,1.347-.4c.059,0,.12,0,.178.006Q39,26.009,40.352,18.362ZM68,43.343a1.261,1.261,0,0,1-.173-.144,1.205,1.205,0,0,1-.309-.529L53.033,44.306a1.2,1.2,0,0,1-.242.348,1.245,1.245,0,0,1-.255.2l9.659,12a1.194,1.194,0,0,1,.721-.115Zm-.511-1.177a1.194,1.194,0,0,1,.158-.436L54.937,30.518a1.541,1.541,0,0,1-.975.345h-.037L51.8,42.056l-.058.566a1.225,1.225,0,0,1,.194-.015,1.2,1.2,0,0,1,1.2,1.183l14.343-1.621ZM39.789,36.9l11.145,6.251a1.259,1.259,0,0,1,.155-.192,1.3,1.3,0,0,1,.125-.11l.088-.856,0-.02,2.122-11.2a1.546,1.546,0,0,1-.785-.641L39.819,35.4a2.448,2.448,0,0,1,.1.7,2.478,2.478,0,0,1-.131.8Zm10.964,6.727L39.577,37.357a2.461,2.461,0,0,1-1.529,1.132l1.713,12.424h.028a1.441,1.441,0,0,1,1,.4l9.959-7.36a1.125,1.125,0,0,1-.009-.146,1.233,1.233,0,0,1,.014-.182ZM26.408,22.913a2.57,2.57,0,0,1-1.427.429c-.068,0-.135,0-.2-.008L21.874,39.663A1.728,1.728,0,0,1,23,40.884l12.073-4.213a2.462,2.462,0,0,1,.653-2.3l-9.32-11.453Zm-2.124.335a2.588,2.588,0,0,1-1.374-.943L10.633,28.38a1.2,1.2,0,0,1-.321.577,1.13,1.13,0,0,1-.139.119L20.24,39.959a1.715,1.715,0,0,1,1.087-.385h.051Q22.832,31.412,24.284,23.248ZM23.048,41.4a1.719,1.719,0,0,1-.2.7l15.781,9.382a1.412,1.412,0,0,1,.128-.146,1.45,1.45,0,0,1,.5-.328q-.858-6.227-1.717-12.453h-.085a2.457,2.457,0,0,1-2.225-1.414L23.048,41.4ZM9.521,28.107H9.462l.04.04a.16.16,0,0,1,.016-.04Z" fill="#2b2b2b"/>
          </g>
        </g>
      </g>
    </g>
  </g>
</svg>
