<svg xmlns="http://www.w3.org/2000/svg" xmlns:xlink="http://www.w3.org/1999/xlink" width="88" height="88" viewBox="0 0 88 88">
  <defs>
    <clipPath id="clip-path">
      <rect id="Rectangle_253" data-name="Rectangle 253" width="88" height="88" fill="#2b2b2b" stroke="#707070" stroke-width="1"/>
    </clipPath>
  </defs>
  <g id="Mask_Group_38" data-name="Mask Group 38" clip-path="url(#clip-path)">
    <path id="noun_Hawaiian_Earring_43319" data-name="noun_Hawaiian Earring_43319" d="M48.352,4.352a44,44,0,1,0,44,44A44.05,44.05,0,0,0,48.352,4.352Zm-5.87,81.163a5.87,5.87,0,1,1,9.829,4.322,4.345,4.345,0,0,0,.44-1.885,4.4,4.4,0,1,0-8.8,0,4.359,4.359,0,0,0,.44,1.885A5.857,5.857,0,0,1,42.482,85.515Zm2.949,3.916a2.762,2.762,0,0,0,.038.37,3.433,3.433,0,1,1,5.765,0,2.914,2.914,0,1,0-5.8-.37Zm9.757-3.916a6.837,6.837,0,1,0-12.17,4.268,9.722,9.722,0,1,1,10.666,0A6.8,6.8,0,0,0,55.189,85.515ZM46.46,89.892a1.915,1.915,0,0,1-.061-.461,1.954,1.954,0,1,1,3.846.461,1.954,1.954,0,0,0-3.785,0Zm12.58-8.229a10.689,10.689,0,1,0-17.586,8.151,16.14,16.14,0,1,1,13.8,0A10.663,10.663,0,0,0,59.04,81.663ZM47.356,90.389a1,1,0,1,1,1,1A1,1,0,0,1,47.356,90.389Zm18.1-15.144A17.107,17.107,0,1,0,39.493,89.851a26.409,26.409,0,1,1,17.719,0A17.094,17.094,0,0,0,65.458,75.245ZM59.843,89.814a27.377,27.377,0,1,0-22.983,0,43.033,43.033,0,1,1,22.983,0Z" transform="translate(-4.352 -4.352)" fill="#2b2b2b"/>
  </g>
</svg>
