<svg xmlns="http://www.w3.org/2000/svg" xmlns:xlink="http://www.w3.org/1999/xlink" width="88" height="88" viewBox="0 0 88 88">
  <defs>
    <clipPath id="clip-path">
      <rect id="Rectangle_205" data-name="Rectangle 205" width="88" height="88" transform="translate(4038 -1204)" fill="#fff" stroke="#2b2b2b" stroke-width="1"/>
    </clipPath>
  </defs>
  <g id="Mask_Group_17" data-name="Mask Group 17" transform="translate(-4038 1204)" clip-path="url(#clip-path)">
    <g id="noun_property_2507371" transform="translate(4036.864 -1205.139)">
      <g id="Group_63" data-name="Group 63" transform="translate(0.034 0.034)">
        <g id="Group_62" data-name="Group 62">
          <g id="Group_61" data-name="Group 61">
            <path id="Path_988" data-name="Path 988" d="M1.77,86.071a.579.579,0,0,1-.191-.009.612.612,0,0,1-.236-.107.6.6,0,0,1-.174-.207.583.583,0,0,1-.042-.107c0-.009,0-.02-.008-.029a.308.308,0,0,1-.008-.036.581.581,0,0,1,0-.223.612.612,0,0,1,.107-.236.6.6,0,0,1,.207-.174.584.584,0,0,1,.107-.042l.029-.008.017,0c4.029-.833,8.761-2.953,13.728-5.872a.59.59,0,0,1-.047-.232V33.6a.6.6,0,0,1,.4-.568c3.805-1.67,9.324-4.5,13.054-5.728a.593.593,0,0,1,.382,0c1.26.413,2.726,1.012,4.259,1.685V8.3a.6.6,0,0,1,.4-.568C37.57,6.06,43.089,3.226,46.819,2A.593.593,0,0,1,47.2,2c3.73,1.224,9.249,4.058,13.054,5.728a.6.6,0,0,1,.4.568V24.986a61.434,61.434,0,0,1,5.85-2.4.593.593,0,0,1,.382,0c3.915,1.285,9.121,4,13.1,5.746h0a.6.6,0,0,1,.359.549l.08,53.087a37.118,37.118,0,0,0,8.2,2.92l.017,0,.029.008a.544.544,0,0,1,.107.042.6.6,0,0,1,.207.174.591.591,0,0,1,.107.236.614.614,0,0,1,0,.223.306.306,0,0,1-.008.036.2.2,0,0,1-.008.029.544.544,0,0,1-.042.107.6.6,0,0,1-.174.207.591.591,0,0,1-.236.107.577.577,0,0,1-.191.009c-6.871-.654-15.953-4.552-24.984-9.78A161,161,0,0,1,45.1,63.836,161.061,161.061,0,0,1,26.749,76.288c-9.031,5.227-18.112,9.126-24.984,9.78ZM39.16,36.983a.6.6,0,1,1-.48,1.1L32.1,35.193a.6.6,0,1,1,.48-1.1Zm0,7.615a.6.6,0,1,1-.48,1.1L32.1,42.808a.6.6,0,1,1,.48-1.1ZM57.11,11.975a.6.6,0,1,1-.48,1.1l-6.582-2.89a.6.6,0,1,1,.48-1.1Zm0,7.615a.6.6,0,1,1-.48,1.1L50.048,17.8a.6.6,0,1,1,.48-1.1ZM55.032,27.6l-4.984-2.188a.6.6,0,1,1,.48-1.1l5.955,2.614c.964-.451,1.967-.923,2.975-1.392V8.688L47.61,3.486,47.575,25.7a.6.6,0,1,1-1.2,0l.035-22.212-11.846,5.2V29.523c2.654,1.2,5.406,2.545,7.592,3.506a.6.6,0,0,1,.4.568V48.256a.6.6,0,0,1-1.2,0V33.988l-11.849-5.2-.039,25.476a.6.6,0,0,1-1.2,0l.039-25.474-11.846,5.2V78.325c2.774-1.685,5.608-3.605,8.424-5.677A159.762,159.762,0,0,0,40.184,59.794c-1.73-1.5-3.33-2.963-4.763-4.374a.6.6,0,0,1,.84-.855c1.439,1.416,3.047,2.891,4.79,4.395q1.673-1.619,3.222-3.22c-1.948-2.048-3.72-4.044-5.258-5.931a.6.6,0,0,1,.931-.756c1.509,1.852,3.247,3.813,5.158,5.823,1.911-2.01,3.649-3.971,5.158-5.823a.6.6,0,0,1,.931.756c-1.538,1.887-3.309,3.883-5.258,5.931q1.547,1.6,3.222,3.22c1.743-1.5,3.351-2.978,4.79-4.395a.6.6,0,0,1,.84.855c-1.433,1.41-3.032,2.879-4.763,4.374A159.576,159.576,0,0,0,65.317,72.648a99.783,99.783,0,0,0,13.911,8.735l-.078-52.108L67.3,24.072l-.05,31.861a.6.6,0,1,1-1.2,0l.05-31.86-11.846,5.2V50.343a.6.6,0,0,1-1.2,0V41.964l-3-1.319a.6.6,0,0,1,.48-1.1l2.524,1.108V34.349l-3-1.319a.6.6,0,1,1,.48-1.1l2.524,1.108V28.883a.6.6,0,0,1,.4-.568c.5-.22,1.027-.459,1.577-.711Zm22.006,4.24a.6.6,0,0,1-.48,1.1l-6.582-2.89a.6.6,0,0,1,.48-1.1Zm0,7.615a.6.6,0,0,1-.48,1.1l-6.582-2.89a.6.6,0,0,1,.48-1.1Zm0,7.615a.6.6,0,0,1-.48,1.1l-6.582-2.89a.6.6,0,0,1,.48-1.1Zm0,7.615a.6.6,0,0,1-.48,1.1L69.977,52.9a.6.6,0,0,1,.48-1.1Zm0,7.615a.6.6,0,0,1-.48,1.1l-6.582-2.89a.6.6,0,0,1,.48-1.1ZM36.481,78.379l8.833-8.833a.6.6,0,0,1,.851,0L55,78.379a.6.6,0,0,1,0,.851l-8.833,8.833a.6.6,0,0,1-.851,0L36.481,79.23A.6.6,0,0,1,36.481,78.379Zm9.257-7.556L37.756,78.8l7.982,7.982L53.72,78.8ZM66.045,59.909a.6.6,0,1,1,1.2,0l-.008,5.252a.6.6,0,0,1-1.2,0ZM46.371,29.717a.6.6,0,1,1,1.2,0l0,2.188a.6.6,0,0,1-1.2,0Zm-.011,7.2a.6.6,0,0,1,1.2,0l-.012,7.659a.6.6,0,1,1-1.2,0Zm-18.091,20.8a.6.6,0,0,1,1.2,0l0,1.591a.6.6,0,1,1-1.2,0Zm-.008,5.25a.6.6,0,1,1,1.2,0l0,3.1a.6.6,0,1,1-1.2,0ZM25.6,73.615A102.992,102.992,0,0,1,12.2,82.106a102.356,102.356,0,0,0,13.958-6.853A160.08,160.08,0,0,0,44.141,63.076q-1.572-1.256-3.04-2.5A160.967,160.967,0,0,1,25.6,73.616ZM45.106,56.6q-1.509,1.556-3.138,3.138,1.511,1.279,3.138,2.572,1.624-1.292,3.138-2.572Q46.618,58.162,45.106,56.6Zm4.007,3.974q-1.466,1.243-3.04,2.5A159.741,159.741,0,0,0,64.059,75.254a102.356,102.356,0,0,0,13.958,6.853,103.052,103.052,0,0,1-13.406-8.491,160.714,160.714,0,0,1-15.5-13.039Z"/>
          </g>
        </g>
      </g>
    </g>
  </g>
</svg>
