<svg xmlns="http://www.w3.org/2000/svg" xmlns:xlink="http://www.w3.org/1999/xlink" width="88" height="88" viewBox="0 0 88 88">
  <defs>
    <clipPath id="clip-path">
      <rect id="Rectangle_203" data-name="Rectangle 203" width="88" height="88" transform="translate(88 234)" fill="#2b2b2b" stroke="#2b2b2b" stroke-width="1"/>
    </clipPath>
  </defs>
  <g id="Mask_Group_15" data-name="Mask Group 15" transform="translate(-88 -234)" clip-path="url(#clip-path)">
    <g id="noun_circles_156651" transform="translate(88 234)">
      <g id="Group_60" data-name="Group 60" transform="translate(0 0)">
        <g id="Group_59" data-name="Group 59">
          <path id="Path_939" data-name="Path 939" d="M121.987,42.873c-.086-.129-.183-.251-.275-.375l-14.52,7.7c.049.147.1.294.158.438s.124.279.191.419l14.685-7.787C122.15,43.138,122.071,43,121.987,42.873Z" transform="translate(-41.897 -22.263)" fill="#2b2b2b"/>
          <path id="Path_940" data-name="Path 940" d="M120.7,40.963c-.115-.113-.235-.225-.358-.332l-13.723,7.276c.021.163.045.324.074.483s.065.313.1.47l14.241-7.549C120.926,41.192,120.817,41.074,120.7,40.963Z" transform="translate(-41.718 -21.68)" fill="#2b2b2b"/>
          <path id="Path_941" data-name="Path 941" d="M119.209,39.335c-.153-.095-.309-.187-.472-.272l-12.152,6.444c-.02.182-.029.36-.039.541s-.015.353-.013.527l13.12-6.954C119.51,39.52,119.361,39.429,119.209,39.335Z" transform="translate(-41.691 -21.19)" fill="#2b2b2b"/>
          <path id="Path_942" data-name="Path 942" d="M117.4,38.112c-.016,0-.03-.005-.047-.011-.223-.067-.445-.121-.666-.169l-9.445,5.009c-.086.21-.166.423-.236.647a.292.292,0,0,1-.017.042c-.058.188-.1.375-.142.564l11.1-5.884C117.767,38.24,117.589,38.171,117.4,38.112Z" transform="translate(-41.791 -20.836)" fill="#2b2b2b"/>
          <path id="Path_943" data-name="Path 943" d="M114.82,37.694a8.148,8.148,0,0,0-1.413.225L109.851,39.8a8.7,8.7,0,0,0-.98,1.042,8.285,8.285,0,0,0-.569.827l7.516-3.988A8.1,8.1,0,0,0,114.82,37.694Z" transform="translate(-42.244 -20.755)" fill="#2b2b2b"/>
          <path id="Path_944" data-name="Path 944" d="M125.232,53.119c0-.016.012-.027.016-.043.059-.188.1-.374.142-.563l-11.1,5.883c.182.07.362.14.547.2l.045.009c.223.067.442.122.667.169L125,53.764C125.081,53.555,125.162,53.34,125.232,53.119Z" transform="translate(-44.116 -25.393)" fill="#2b2b2b"/>
          <path id="Path_945" data-name="Path 945" d="M125,56.891a8.7,8.7,0,0,0,.57-.825l-7.519,3.987a8.142,8.142,0,0,0,2.413-.235l3.558-1.886A8.43,8.43,0,0,0,125,56.891Z" transform="translate(-45.289 -26.503)" fill="#2b2b2b"/>
          <path id="Path_946" data-name="Path 946" d="M124.779,50.089c.006-.178.016-.354.013-.529l-13.121,6.959c.143.1.293.193.446.287s.309.187.469.272l12.152-6.445C124.76,50.449,124.768,50.268,124.779,50.089Z" transform="translate(-43.297 -24.47)" fill="#2b2b2b"/>
          <path id="Path_947" data-name="Path 947" d="M124.04,47.42c-.028-.155-.064-.312-.1-.466L109.7,54.5c.109.118.217.234.332.347s.235.226.359.331l13.722-7.276A4.719,4.719,0,0,0,124.04,47.42Z" transform="translate(-42.68 -23.656)" fill="#2b2b2b"/>
          <path id="Path_948" data-name="Path 948" d="M123.1,45.028c-.059-.143-.128-.28-.194-.419l-14.686,7.786c.08.134.155.267.241.395s.183.253.277.376l14.52-7.7C123.209,45.319,123.16,45.172,123.1,45.028Z" transform="translate(-42.219 -22.923)" fill="#2b2b2b"/>
          <path id="Path_949" data-name="Path 949" d="M123.022,47.126a9.176,9.176,0,1,1-.861-6.241,9.152,9.152,0,0,1,.861,6.241m.9.2h0a10.1,10.1,0,1,0-5.14,6.783,10.127,10.127,0,0,0,5.14-6.783Z" transform="translate(-40.885 -19.945)" fill="#2b2b2b"/>
          <path id="Path_950" data-name="Path 950" d="M38.161,101.723a9.175,9.175,0,1,1-.86-6.24,9.141,9.141,0,0,1,.86,6.24m.9.2h0a10.1,10.1,0,1,0-5.138,6.785,10.1,10.1,0,0,0,5.138-6.785Z" transform="translate(-14.366 -37.007)" fill="#2b2b2b"/>
          <path id="Path_951" data-name="Path 951" d="M37.041,97.326c.045.064.092.125.134.193.035.049.065.1.1.153l-14.729,7.808c-.026-.055-.049-.109-.072-.163-.029-.074-.056-.149-.083-.222Z" transform="translate(-15.396 -39.397)" fill="#2b2b2b"/>
          <path id="Path_952" data-name="Path 952" d="M35.639,95.361c.077.068.149.14.222.21.032.028.061.061.092.09l-14.141,7.5c-.009-.041-.018-.084-.025-.127-.018-.1-.036-.2-.049-.3Z" transform="translate(-15.192 -38.783)" fill="#2b2b2b"/>
          <path id="Path_953" data-name="Path 953" d="M34.008,93.706c.119.064.234.134.349.2a.751.751,0,0,0,.068.043l-12.793,6.786c0-.024,0-.054,0-.08.005-.136.014-.271.025-.4Z" transform="translate(-15.159 -38.266)" fill="#2b2b2b"/>
          <path id="Path_954" data-name="Path 954" d="M22.166,98.162c.061-.189.128-.374.2-.557l9.619-5.1c.191.042.383.091.574.147l.02.006L22.159,98.188Z" transform="translate(-15.324 -37.891)" fill="#2b2b2b"/>
          <path id="Path_955" data-name="Path 955" d="M24.323,95.33a8.212,8.212,0,0,1,.894-.943l3.629-1.923a8.494,8.494,0,0,1,1.282-.212Z" transform="translate(-16 -37.811)" fill="#2b2b2b"/>
          <path id="Path_956" data-name="Path 956" d="M40.669,107.974c-.07.217-.139.4-.209.58l-9.619,5.1c-.193-.041-.382-.09-.575-.148l-.021-.006Z" transform="translate(-17.851 -42.724)" fill="#2b2b2b"/>
          <path id="Path_957" data-name="Path 957" d="M40.606,112.01a8.221,8.221,0,0,1-.893.943l-3.632,1.926a8.691,8.691,0,0,1-1.282.21Z" transform="translate(-19.275 -43.986)" fill="#2b2b2b"/>
          <path id="Path_958" data-name="Path 958" d="M40.12,104.805c0,.026,0,.054,0,.081-.007.136-.014.27-.025.405l-12.348,6.546c-.119-.065-.233-.137-.348-.2-.024-.016-.045-.027-.069-.042Z" transform="translate(-16.94 -41.734)" fill="#2b2b2b"/>
          <path id="Path_959" data-name="Path 959" d="M39.292,102.032c.007.041.017.084.024.127.019.1.036.2.049.3l-13.9,7.371c-.076-.068-.149-.141-.222-.211a1.268,1.268,0,0,1-.091-.092Z" transform="translate(-16.26 -40.868)" fill="#2b2b2b"/>
          <path id="Path_960" data-name="Path 960" d="M38.257,99.549c.024.056.049.109.071.166s.057.146.083.22l-14.65,7.772c-.047-.063-.093-.129-.137-.194-.035-.049-.066-.1-.1-.153Z" transform="translate(-15.752 -40.092)" fill="#2b2b2b"/>
          <path id="Path_961" data-name="Path 961" d="M106.857,112.6c-.086-.129-.181-.25-.275-.375l-14.52,7.7c.05.148.1.293.155.437s.127.28.194.42L107.1,113C107.017,112.868,106.942,112.733,106.857,112.6Z" transform="translate(-37.169 -44.054)" fill="#2b2b2b"/>
          <path id="Path_962" data-name="Path 962" d="M105.569,110.692c-.116-.111-.236-.224-.359-.329l-13.723,7.273c.022.162.045.325.075.484s.064.313.1.467l14.241-7.549C105.792,110.923,105.687,110.8,105.569,110.692Z" transform="translate(-36.989 -43.471)" fill="#2b2b2b"/>
          <path id="Path_963" data-name="Path 963" d="M104.079,109.064c-.153-.095-.308-.188-.472-.272l-12.152,6.445c-.021.181-.029.359-.038.542s-.016.353-.012.527l13.119-6.955C104.381,109.25,104.228,109.157,104.079,109.064Z" transform="translate(-36.963 -42.98)" fill="#2b2b2b"/>
          <path id="Path_964" data-name="Path 964" d="M102.271,107.841c-.015-.005-.029-.006-.045-.012-.224-.065-.445-.119-.669-.168l-9.442,5.011c-.086.209-.166.423-.236.644-.005.015-.012.028-.018.043-.057.189-.1.375-.141.563l11.094-5.884C102.636,107.969,102.459,107.9,102.271,107.841Z" transform="translate(-37.062 -42.627)" fill="#2b2b2b"/>
          <path id="Path_965" data-name="Path 965" d="M99.688,107.422a8.056,8.056,0,0,0-1.412.226l-3.556,1.884a8.167,8.167,0,0,0-1.549,1.867l7.515-3.987A7.9,7.9,0,0,0,99.688,107.422Z" transform="translate(-37.515 -42.545)" fill="#2b2b2b"/>
          <path id="Path_966" data-name="Path 966" d="M110.1,122.846c0-.014.011-.025.015-.042.059-.189.1-.373.142-.563l-11.094,5.884c.181.069.361.142.545.2l.045.011c.224.065.444.122.668.167l9.445-5.008C109.952,123.283,110.031,123.07,110.1,122.846Z" transform="translate(-39.389 -47.183)" fill="#2b2b2b"/>
          <path id="Path_967" data-name="Path 967" d="M109.864,126.619a8,8,0,0,0,.573-.824l-7.519,3.986a7.984,7.984,0,0,0,1-.008,8.115,8.115,0,0,0,1.41-.226l3.559-1.888A7.9,7.9,0,0,0,109.864,126.619Z" transform="translate(-40.561 -48.294)" fill="#2b2b2b"/>
          <path id="Path_968" data-name="Path 968" d="M109.646,119.814c.006-.176.015-.353.013-.529l-13.12,6.96c.144.1.294.193.445.285s.31.188.47.274l12.152-6.446C109.629,120.177,109.637,120,109.646,119.814Z" transform="translate(-38.568 -46.259)" fill="#2b2b2b"/>
          <path id="Path_969" data-name="Path 969" d="M108.911,117.151c-.028-.155-.064-.312-.1-.467l-14.237,7.552c.107.116.215.234.33.346s.236.225.358.331l13.723-7.278C108.967,117.473,108.94,117.311,108.911,117.151Z" transform="translate(-37.953 -45.446)" fill="#2b2b2b"/>
          <path id="Path_970" data-name="Path 970" d="M107.971,114.757c-.058-.143-.127-.28-.193-.418l-14.685,7.785c.08.133.154.268.241.394s.182.252.274.377l14.519-7.7C108.078,115.049,108.029,114.9,107.971,114.757Z" transform="translate(-37.491 -44.713)" fill="#2b2b2b"/>
          <path id="Path_971" data-name="Path 971" d="M107.891,116.854a9.177,9.177,0,1,1-.861-6.238,9.156,9.156,0,0,1,.861,6.238m.9.2h0a10.1,10.1,0,1,0-5.138,6.781,10.122,10.122,0,0,0,5.138-6.781Z" transform="translate(-36.157 -41.735)" fill="#2b2b2b"/>
          <path id="Path_972" data-name="Path 972" d="M53.3,31.993a9.175,9.175,0,1,1-.86-6.24,9.155,9.155,0,0,1,.86,6.24m.9.2h0a10.1,10.1,0,1,0-5.138,6.784A10.117,10.117,0,0,0,54.2,32.189Z" transform="translate(-19.096 -15.216)" fill="#2b2b2b"/>
          <path id="Path_973" data-name="Path 973" d="M52.174,27.6c.046.064.093.126.136.194.033.048.065.1.1.151L37.678,35.751c-.026-.054-.05-.109-.074-.164-.029-.074-.057-.148-.083-.221Z" transform="translate(-20.125 -17.606)" fill="#2b2b2b"/>
          <path id="Path_974" data-name="Path 974" d="M50.774,25.628c.076.069.148.141.221.211.033.03.063.061.093.091l-14.14,7.5c-.009-.043-.018-.085-.024-.128-.02-.1-.036-.2-.049-.3Z" transform="translate(-19.923 -16.991)" fill="#2b2b2b"/>
          <path id="Path_975" data-name="Path 975" d="M49.143,23.973c.118.065.232.134.349.206.022.015.044.027.068.041L36.767,31c0-.026,0-.054,0-.081.005-.134.013-.27.023-.4Z" transform="translate(-19.889 -16.474)" fill="#2b2b2b"/>
          <path id="Path_976" data-name="Path 976" d="M37.3,28.43c.06-.189.127-.374.2-.558l9.619-5.1c.191.042.383.09.575.148l.02.006L37.294,28.452Z" transform="translate(-20.054 -16.099)" fill="#2b2b2b"/>
          <path id="Path_977" data-name="Path 977" d="M39.456,25.6a8.222,8.222,0,0,1,.9-.942l3.628-1.925a8.521,8.521,0,0,1,1.282-.214Z" transform="translate(-20.729 -16.018)" fill="#2b2b2b"/>
          <path id="Path_978" data-name="Path 978" d="M55.8,38.243c-.07.219-.138.4-.208.581l-9.622,5.1c-.191-.042-.381-.09-.574-.148l-.021-.005Z" transform="translate(-22.581 -20.933)" fill="#2b2b2b"/>
          <path id="Path_979" data-name="Path 979" d="M55.741,42.278a8.323,8.323,0,0,1-.894.943l-3.632,1.927a8.929,8.929,0,0,1-1.282.21Z" transform="translate(-24.004 -22.194)" fill="#2b2b2b"/>
          <path id="Path_980" data-name="Path 980" d="M55.255,35.075c0,.027,0,.053,0,.081-.006.136-.013.27-.024.4L42.88,42.107c-.118-.065-.233-.136-.349-.206l-.068-.043Z" transform="translate(-21.669 -19.943)" fill="#2b2b2b"/>
          <path id="Path_981" data-name="Path 981" d="M54.425,32.3c.009.043.018.085.025.128.019.1.035.2.05.3L40.6,40.1c-.076-.069-.149-.14-.221-.212-.032-.029-.063-.061-.093-.091Z" transform="translate(-20.988 -19.076)" fill="#2b2b2b"/>
          <path id="Path_982" data-name="Path 982" d="M53.39,29.819c.025.056.05.109.072.166.029.072.057.147.083.221L38.895,37.975c-.048-.062-.093-.128-.138-.192s-.065-.1-.1-.153Z" transform="translate(-20.481 -18.301)" fill="#2b2b2b"/>
          <circle id="Ellipse_1" data-name="Ellipse 1" cx="8.329" cy="8.329" r="8.329" transform="translate(28.312 69.565)" fill="#2b2b2b"/>
          <path id="Path_983" data-name="Path 983" d="M51.955,119.838a9.175,9.175,0,1,1,.86,6.239,9.154,9.154,0,0,1-.86-6.239m-.9-.2h0a10.1,10.1,0,1,0,5.138-6.78,10.111,10.111,0,0,0-5.138,6.78Z" transform="translate(-24.282 -43.884)" fill="#2b2b2b"/>
          <path id="Path_984" data-name="Path 984" d="M73.359,21.221a9.176,9.176,0,1,1,.861,6.239,9.155,9.155,0,0,1-.861-6.239m-.9-.2h0A10.1,10.1,0,1,0,77.6,14.241a10.115,10.115,0,0,0-5.139,6.783Z" transform="translate(-30.971 -13.065)" fill="#2b2b2b"/>
          <circle id="Ellipse_2" data-name="Ellipse 2" cx="20.597" cy="20.597" r="20.597" transform="translate(23.402 23.403)" fill="#2b2b2b"/>
          <circle id="Ellipse_3" data-name="Ellipse 3" cx="8.328" cy="8.328" r="8.328" transform="translate(69.566 43.031)" fill="#2b2b2b"/>
          <path id="Path_985" data-name="Path 985" d="M118.989,92.151a9.172,9.172,0,1,1,6.24-.858,9.15,9.15,0,0,1-6.24.858m-.2.9h0a10.1,10.1,0,1,0-6.782-5.138,10.121,10.121,0,0,0,6.782,5.138Z" transform="translate(-43.035 -31.821)" fill="#2b2b2b"/>
          <path id="Path_986" data-name="Path 986" d="M20.373,70.748a9.177,9.177,0,1,1,6.24-.861,9.153,9.153,0,0,1-6.24.861m-.2.9h0a10.1,10.1,0,1,0-6.783-5.139,10.125,10.125,0,0,0,6.783,5.139Z" transform="translate(-12.217 -25.133)" fill="#2b2b2b"/>
        </g>
      </g>
    </g>
  </g>
</svg>
