<svg xmlns="http://www.w3.org/2000/svg" xmlns:xlink="http://www.w3.org/1999/xlink" width="88" height="88" viewBox="0 0 88 88">
  <defs>
    <clipPath id="clip-path">
      <rect id="Rectangle_204" data-name="Rectangle 204" width="88" height="88" transform="translate(3857 -1204)" fill="#fff" stroke="#2b2b2b" stroke-width="1"/>
    </clipPath>
  </defs>
  <g id="Mask_Group_16" data-name="Mask Group 16" transform="translate(-3857 1204)" clip-path="url(#clip-path)">
    <g id="noun_People_connection_2155815" data-name="noun_People connection_2155815" transform="translate(3855.498 -1205.493)">
      <path id="Path_987" data-name="Path 987" d="M65.2,22.907a.346.346,0,0,1-.018-.056,1.166,1.166,0,1,0-.769,1.5.346.346,0,0,1,.056-.018,1.248,1.248,0,0,0,.247-.121.574.574,0,0,1,.12-.089,1.163,1.163,0,0,0,.284-.359,1.151,1.151,0,0,0,.079-.86Zm-46.209,34.4.255.649-.649.255-.255-.649Zm3.893-1.527.255.649-.649.255-.255-.649Zm-1.3.51.255.649-.649.255-.255-.649Zm-1.3.51.255.649L19.9,57.7l-.255-.649ZM41.57,47.43c-.006.021-.012.042-.02.062a3.589,3.589,0,0,0,2.281,4.478c.021.006.042.012.062.02a3.585,3.585,0,1,0-2.323-4.56ZM40.783,50.7a4.686,4.686,0,0,1-.282-3.585h0a4.7,4.7,0,1,1,3.018,5.92h0A4.691,4.691,0,0,1,40.783,50.7ZM15.01,58.395a1.173,1.173,0,1,0,.582-.681A1.165,1.165,0,0,0,15.01,58.395Zm-.922,1.4a2.287,2.287,0,0,1,1-3.072,2.345,2.345,0,0,1,.5-.185c.168-2.554-1.844-3.609-3.714-4.589a7.435,7.435,0,0,1-3.165-2.41l0-.006h0A6.714,6.714,0,0,1,8,46.355a3.6,3.6,0,0,1-1.887.814,3.7,3.7,0,0,1-1.394-.093,3.472,3.472,0,0,1-1.239-.611,3.406,3.406,0,0,1-1.256-1.817,2.852,2.852,0,0,1,.065-1.685A2.891,2.891,0,0,1,3.294,41.61a3.434,3.434,0,0,1,2.126-.646,3.49,3.49,0,0,1,1.278.262,3.7,3.7,0,0,1,1.112.717A3.592,3.592,0,0,1,8.855,43.71a8.041,8.041,0,0,1,1.752-1.762c-.112-.08-.22-.164-.323-.249a4.309,4.309,0,0,1-.831-.9l-.009-.014a7.217,7.217,0,0,1-.968-3.6,4.112,4.112,0,0,1-2.32.917,4.656,4.656,0,0,1-1.583-.147,4.426,4.426,0,0,1-1.419-.675A3.852,3.852,0,0,1,1.606,35.21a2.752,2.752,0,0,1,.049-1.655,2.8,2.8,0,0,1,1-1.324,3.92,3.92,0,0,1,2.542-.682,4.428,4.428,0,0,1,1.451.318,4.663,4.663,0,0,1,1.284.779,4.124,4.124,0,0,1,1.339,2.106,7.262,7.262,0,0,1,2.863-2.329l.042-.018a4.292,4.292,0,0,1,1.254-.243c.143-.008.288-.011.435-.009a7.887,7.887,0,0,1-.419-2.56,3.6,3.6,0,0,1-1.887.814,3.7,3.7,0,0,1-1.319-.074A3.479,3.479,0,0,1,9.052,29.8a3.441,3.441,0,0,1-1.344-1.774,2.883,2.883,0,0,1-.017-1.683,2.852,2.852,0,0,1,.939-1.4,3.418,3.418,0,0,1,2.084-.731,3.47,3.47,0,0,1,1.359.234,3.7,3.7,0,0,1,1.184.746A3.592,3.592,0,0,1,14.3,26.951a6.709,6.709,0,0,1,2.44-2.152l.009,0h0a7.042,7.042,0,0,1,3.96-.032c1.494.256,3.057.525,4.28-.182-.047-.039-.091-.08-.135-.123a2.256,2.256,0,0,1,0-3.227,2.318,2.318,0,0,1,3.251,0l0,0c1.207-.921,1.486-2.481,1.752-3.972a7,7,0,0,1,1.321-3.6h0l.006-.008a6.833,6.833,0,0,1,2.84-1.651,3.615,3.615,0,0,1-1.372-1.538,3.673,3.673,0,0,1-.35-1.36,3.57,3.57,0,0,1,1.547-3.113,2.914,2.914,0,0,1,1.656-.466,2.956,2.956,0,0,1,1.632.547,3.561,3.561,0,0,1,1.424,3.11,3.675,3.675,0,0,1-.346,1.28A3.625,3.625,0,0,1,36.845,12,7.978,7.978,0,0,1,39.2,13.2c.045-.146.1-.287.149-.423a4.325,4.325,0,0,1,.629-1.116.333.333,0,0,1,.03-.035,7.379,7.379,0,0,1,3.145-2,4.116,4.116,0,0,1-1.611-1.92,4.606,4.606,0,0,1-.35-1.466,4.4,4.4,0,0,1,.149-1.477,3.937,3.937,0,0,1,1.442-2.2,2.873,2.873,0,0,1,1.6-.547A2.8,2.8,0,0,1,46,2.489,3.873,3.873,0,0,1,47.5,4.6a4.335,4.335,0,0,1,.2,1.559,4.618,4.618,0,0,1-.355,1.556,4.125,4.125,0,0,1-1.611,1.92,7.332,7.332,0,0,1,3.168,2.029l.006.008h0a4.3,4.3,0,0,1,.613,1.075c.052.129.1.259.144.394a8.188,8.188,0,0,1,2.263-1.128,3.615,3.615,0,0,1-1.372-1.538,3.675,3.675,0,0,1-.346-1.28,3.561,3.561,0,0,1,1.424-3.11,2.956,2.956,0,0,1,1.632-.547A2.914,2.914,0,0,1,54.931,6a3.57,3.57,0,0,1,1.547,3.113,3.673,3.673,0,0,1-.35,1.36,3.625,3.625,0,0,1-1.372,1.538,6.862,6.862,0,0,1,2.824,1.633l.024.024a7.433,7.433,0,0,1,1.344,3.765c.359,2.035.746,4.227,3.051,4.926.021-.052.045-.1.07-.152a2.278,2.278,0,0,1,4.2.331h0a2.275,2.275,0,0,1-.136,1.738,2.361,2.361,0,0,1-.167.278c1.23.745,2.818.472,4.331.212a7.043,7.043,0,0,1,3.96.032h0l.009,0a6.708,6.708,0,0,1,2.44,2.152,3.609,3.609,0,0,1,1.045-1.767,3.7,3.7,0,0,1,1.184-.746,3.47,3.47,0,0,1,1.359-.234,3.409,3.409,0,0,1,2.084.731,2.852,2.852,0,0,1,.939,1.4,2.883,2.883,0,0,1-.017,1.683A3.435,3.435,0,0,1,81.952,29.8a3.479,3.479,0,0,1-1.187.537,3.737,3.737,0,0,1-1.319.074,3.608,3.608,0,0,1-1.887-.814,7.853,7.853,0,0,1-.419,2.56c.147,0,.293,0,.435.009a4.393,4.393,0,0,1,1.254.243.357.357,0,0,1,.042.018,7.262,7.262,0,0,1,2.863,2.329,4.1,4.1,0,0,1,1.339-2.106,4.723,4.723,0,0,1,1.284-.779,4.507,4.507,0,0,1,1.451-.318,3.932,3.932,0,0,1,2.542.682,2.808,2.808,0,0,1,1,1.324,2.752,2.752,0,0,1,.049,1.655,3.854,3.854,0,0,1-1.547,2.073,4.442,4.442,0,0,1-1.419.675,4.656,4.656,0,0,1-1.583.147,4.112,4.112,0,0,1-2.32-.917,7.217,7.217,0,0,1-.968,3.6l-.009.014a4.309,4.309,0,0,1-.831.9c-.1.085-.211.168-.323.249a8.074,8.074,0,0,1,1.752,1.762,3.61,3.61,0,0,1,1.045-1.767,3.7,3.7,0,0,1,1.112-.717,3.459,3.459,0,0,1,1.278-.262,3.424,3.424,0,0,1,2.126.646,2.9,2.9,0,0,1,1.007,1.354,2.852,2.852,0,0,1,.065,1.685,3.415,3.415,0,0,1-1.256,1.817,3.472,3.472,0,0,1-1.239.611,3.7,3.7,0,0,1-1.394.093,3.608,3.608,0,0,1-1.887-.814,6.714,6.714,0,0,1-.708,3.176h0l0,.006a7.988,7.988,0,0,1-3.32,2.5c-2.064,1.09-4.333,2.288-4.081,4.967a2.279,2.279,0,0,1,.526.507.614.614,0,0,1,.039.055,2.281,2.281,0,0,1-.5,3.133.615.615,0,0,1-.055.039,2.271,2.271,0,0,1-1.667.385,2.242,2.242,0,0,1-.314-.073c-.329,1.4.42,2.825,1.134,4.186a7.141,7.141,0,0,1,1.2,3.74.43.43,0,0,1,0,.044,6.715,6.715,0,0,1-1.3,2.988,3.6,3.6,0,0,1,2,.449,3.726,3.726,0,0,1,1.077.895,3.483,3.483,0,0,1,.641,1.222,3.412,3.412,0,0,1-.052,2.205A2.857,2.857,0,0,1,76.587,78.1a2.892,2.892,0,0,1-1.606.5,3.437,3.437,0,0,1-2.1-.728,3.472,3.472,0,0,1-.88-.963,3.688,3.688,0,0,1-.476-1.234,3.6,3.6,0,0,1,.194-2.046,7.854,7.854,0,0,1-2.564.394c.047.14.089.279.126.417a4.34,4.34,0,0,1,.155,1.265v.009h0A7.235,7.235,0,0,1,68.1,79.206a4.117,4.117,0,0,1,2.417.622,4.693,4.693,0,0,1,1.139.98,4.434,4.434,0,0,1,.751,1.281,3.919,3.919,0,0,1,.136,2.63,2.8,2.8,0,0,1-.952,1.359,2.743,2.743,0,0,1-1.56.558,3.854,3.854,0,0,1-2.448-.831A4.442,4.442,0,0,1,66.5,84.66a4.67,4.67,0,0,1-.629-1.462,4.1,4.1,0,0,1,.156-2.49,7.225,7.225,0,0,1-3.72.194l-.009,0h0a4.307,4.307,0,0,1-1.119-.516c-.114-.071-.226-.149-.338-.231A8.082,8.082,0,0,1,59.7,82.365a3.6,3.6,0,0,1,2,.449,3.717,3.717,0,0,1,1.025.836,3.482,3.482,0,0,1,.648,1.133,3.431,3.431,0,0,1,.042,2.225,2.889,2.889,0,0,1-.978,1.374,2.847,2.847,0,0,1-1.582.582,3.408,3.408,0,0,1-2.112-.632,3.5,3.5,0,0,1-.968-.989,3.7,3.7,0,0,1-.519-1.3A3.6,3.6,0,0,1,57.459,84a6.785,6.785,0,0,1-3.191.318c-.02,0-.038-.006-.058-.009a7.434,7.434,0,0,1-3.3-2.338c-1.213-1.216-2.5-2.507-4.126-2.5a2.277,2.277,0,0,1-4.524.473,2.5,2.5,0,0,1-.029-.353c-1.536-.014-2.645,1.2-3.7,2.363a6.55,6.55,0,0,1-3.147,2.346v0l-.008,0a6.711,6.711,0,0,1-3.239-.308,3.594,3.594,0,0,1,.194,2.046,3.711,3.711,0,0,1-.519,1.3,3.456,3.456,0,0,1-.968.989,3.408,3.408,0,0,1-2.112.632,2.847,2.847,0,0,1-1.582-.582,2.892,2.892,0,0,1-.978-1.374,3.431,3.431,0,0,1,.042-2.225,3.482,3.482,0,0,1,.648-1.133,3.722,3.722,0,0,1,1.025-.836,3.6,3.6,0,0,1,2-.449,7.875,7.875,0,0,1-1.168-2.317c-.118.088-.238.171-.358.249a4.387,4.387,0,0,1-1.159.54l-.024.006a7.237,7.237,0,0,1-3.706-.2,4.1,4.1,0,0,1,.156,2.49,4.647,4.647,0,0,1-.582,1.385,4.4,4.4,0,0,1-.987,1.11,3.923,3.923,0,0,1-2.458.942,2.8,2.8,0,0,1-1.586-.485,2.74,2.74,0,0,1-1.013-1.31,3.858,3.858,0,0,1,.032-2.586,4.4,4.4,0,0,1,.755-1.38,4.694,4.694,0,0,1,1.2-1.049,4.117,4.117,0,0,1,2.417-.622,7.235,7.235,0,0,1-1.335-3.482v-.03a4.352,4.352,0,0,1,.143-1.2c.033-.13.071-.261.115-.393a8.1,8.1,0,0,1-2.454-.4,3.594,3.594,0,0,1,.194,2.046,3.733,3.733,0,0,1-.476,1.234,3.493,3.493,0,0,1-.88.963,3.431,3.431,0,0,1-2.1.728,2.889,2.889,0,0,1-1.606-.5,2.84,2.84,0,0,1-1.045-1.325,3.412,3.412,0,0,1-.052-2.205,3.457,3.457,0,0,1,.641-1.222,3.662,3.662,0,0,1,1.077-.895,3.6,3.6,0,0,1,2-.449A6.732,6.732,0,0,1,14.337,69h0l0-.009a8.627,8.627,0,0,1,.769-3.615,8.482,8.482,0,0,0,.761-4.36,2.289,2.289,0,0,1-1.762-1.23Zm2.617-3.245q.061.016.123.036a2.284,2.284,0,0,1,.332,4.207c-.067.033-.135.065-.2.093a9.41,9.41,0,0,1-.822,4.876,7.963,7.963,0,0,0-.708,3.129h0a6.508,6.508,0,0,0,1.307,2.781c.135.2.27.4.4.6.231.061.461.127.693.2a6.521,6.521,0,0,0,3.042.387v0a6.338,6.338,0,0,0,2.665-1.991c.458-.47.925-.948,1.427-1.369a5.857,5.857,0,0,1,1.629-.981,4.708,4.708,0,0,1,1.577-.331,2.164,2.164,0,0,1,.124-.191,2.284,2.284,0,0,1,3.183-.5h0a2.282,2.282,0,0,1,.5,3.182h0c-.018.026-.038.05-.058.076a4.162,4.162,0,0,1,.18.934,5.072,5.072,0,0,1-.065,1.26,11.2,11.2,0,0,1-1.277,3.176,6.4,6.4,0,0,0-1.074,3.144h0a6.508,6.508,0,0,0,1.307,2.781c.135.2.27.4.4.6.231.061.461.127.693.2a6.521,6.521,0,0,0,3.042.387v0A5.821,5.821,0,0,0,37.69,81.2c1.288-1.41,2.636-2.887,4.809-2.715a2.3,2.3,0,0,1,.153-.241,2.279,2.279,0,0,1,3.772.123c2.252-.2,3.8,1.357,5.262,2.818a6.748,6.748,0,0,0,2.746,2.034l.03.008a6.6,6.6,0,0,0,3.012-.393c.232-.067.464-.133.693-.2.129-.2.264-.4.4-.6a6.473,6.473,0,0,0,1.307-2.781l0-.018A6.448,6.448,0,0,0,58.8,76.118c-.3-.578-.613-1.166-.861-1.78a5.865,5.865,0,0,1-.431-1.852,4.761,4.761,0,0,1,.171-1.6c-.05-.056-.1-.115-.144-.177a2.279,2.279,0,0,1,3.688-2.678l.055.077a4.225,4.225,0,0,1,.942.118,5.07,5.07,0,0,1,1.178.45,11.159,11.159,0,0,1,2.627,2.2,6.347,6.347,0,0,0,2.665,1.991l.03.008a6.6,6.6,0,0,0,3.012-.393c.232-.067.464-.133.693-.2.129-.2.264-.4.4-.6A6.473,6.473,0,0,0,74.131,68.9l0-.018a6.448,6.448,0,0,0-1.075-3.126c-.872-1.659-1.788-3.4-1.136-5.315a2.1,2.1,0,0,1-.167-.2.614.614,0,0,1-.039-.055,2.276,2.276,0,0,1,2.02-3.582c-.047-3.042,2.434-4.354,4.7-5.552a7.4,7.4,0,0,0,2.875-2.072h0a6.5,6.5,0,0,0,.576-3.019c.008-.241.017-.481.029-.717-.15-.185-.3-.375-.447-.566a6.54,6.54,0,0,0-2.232-2.1h0a6.366,6.366,0,0,0-3.329.047,19.388,19.388,0,0,1-1.959.268,5.837,5.837,0,0,1-1.893-.164,4.741,4.741,0,0,1-1.473-.658,1.976,1.976,0,0,1-.212.08h0a2.278,2.278,0,1,1-1.407-4.334q.045-.016.091-.027a4.194,4.194,0,0,1,.4-.86,5.021,5.021,0,0,1,.793-.98,11.166,11.166,0,0,1,2.9-1.82,6.4,6.4,0,0,0,2.716-1.911h0a6.5,6.5,0,0,0,.576-3.019c.008-.241.017-.481.029-.717-.15-.185-.3-.375-.447-.566a6.54,6.54,0,0,0-2.232-2.1h0a6.366,6.366,0,0,0-3.329.047c-1.847.317-3.788.649-5.4-.564a2.374,2.374,0,0,1-.273.108h0a2.278,2.278,0,0,1-2.871-1.463,2.209,2.209,0,0,1-.1-.475c-3.1-.83-3.556-3.432-3.982-5.846a6.777,6.777,0,0,0-1.074-3.212l0,0a6.686,6.686,0,0,0-2.73-1.471c-.234-.083-.464-.165-.693-.252-.227.086-.46.17-.693.252a6.669,6.669,0,0,0-2.734,1.477h0a6.28,6.28,0,0,0-1,3.176,19.632,19.632,0,0,1-.355,1.946,5.8,5.8,0,0,1-.755,1.755,4.779,4.779,0,0,1-1.1,1.193,2.232,2.232,0,0,1,.011.226,2.258,2.258,0,0,1-.679,1.614,2.318,2.318,0,0,1-3.251,0,2.258,2.258,0,0,1-.679-1.614c0-.032,0-.062,0-.094a4.2,4.2,0,0,1-.7-.649,5.055,5.055,0,0,1-.7-1.057,11,11,0,0,1-.848-3.323,6.28,6.28,0,0,0-1-3.176l0,0a6.686,6.686,0,0,0-2.73-1.471c-.234-.083-.466-.165-.693-.252-.227.086-.459.17-.693.252A6.669,6.669,0,0,0,32,14.411h0a6.25,6.25,0,0,0-1.051,3.044c-.311,1.75-.638,3.584-2.267,4.736a2.231,2.231,0,0,1,.1.655A2.258,2.258,0,0,1,28.1,24.46a2.313,2.313,0,0,1-1.626.666,2.39,2.39,0,0,1-.314-.021c-1.662,1.441-3.706,1.09-5.646.758a6.366,6.366,0,0,0-3.329-.047h0a6.526,6.526,0,0,0-2.232,2.1c-.149.191-.3.381-.447.566.012.237.021.476.029.717a6.5,6.5,0,0,0,.576,3.019h0a6.376,6.376,0,0,0,2.716,1.911,11.166,11.166,0,0,1,2.9,1.82,5.055,5.055,0,0,1,.793.98,4.04,4.04,0,0,1,.4.86l.091.027A2.278,2.278,0,1,1,20.6,42.151h0c-.073-.024-.144-.052-.212-.08a4.741,4.741,0,0,1-1.473.658,5.837,5.837,0,0,1-1.893.164c-.663-.047-1.316-.159-1.959-.268a6.366,6.366,0,0,0-3.329-.047h0a6.526,6.526,0,0,0-2.232,2.1c-.149.191-.3.381-.447.566.012.237.021.476.029.717a6.5,6.5,0,0,0,.576,3.019h0a6.8,6.8,0,0,0,2.718,1.981c2.182,1.145,4.53,2.376,4.317,5.585Zm27.167-8.367a.347.347,0,0,1-.018.056,1.166,1.166,0,0,0,.728,1.43.347.347,0,0,1,.056.018,1.163,1.163,0,1,0-.767-1.5ZM42.94,49.6a2.275,2.275,0,0,1-.136-1.738h0a2.279,2.279,0,1,1,1.463,2.871h0A2.271,2.271,0,0,1,42.94,49.6ZM7.922,44.869a3.139,3.139,0,0,0-.872-2.108,2.617,2.617,0,0,0-.776-.5,2.377,2.377,0,0,0-.869-.18,2.332,2.332,0,0,0-1.451.428,1.785,1.785,0,0,0-.619.831A1.752,1.752,0,0,0,3.3,44.367a2.308,2.308,0,0,0,.86,1.219A2.378,2.378,0,0,0,5,46a2.579,2.579,0,0,0,.98.062,3.143,3.143,0,0,0,1.944-1.2Zm3.858-3.477a8.411,8.411,0,0,1,3.482.135c.617.106,1.247.214,1.846.256a4.769,4.769,0,0,0,1.539-.129,3.761,3.761,0,0,0,.83-.323,2.194,2.194,0,0,1-.191-.311,2.275,2.275,0,0,1-.136-1.738h0a2.27,2.27,0,0,1,1.133-1.327,2.3,2.3,0,0,1,.446-.171,3.045,3.045,0,0,0-.15-.273,3.938,3.938,0,0,0-.619-.763,10.365,10.365,0,0,0-2.616-1.62,8.956,8.956,0,0,1-2.8-1.821,6.791,6.791,0,0,0-1.055-.035,3.3,3.3,0,0,0-.931.177l-.018.006A6.729,6.729,0,0,0,10.006,35.6c-.164.194-.326.385-.491.573.024.25.042.5.062.755a6.653,6.653,0,0,0,.8,3.248,3.189,3.189,0,0,0,.619.661,6.38,6.38,0,0,0,.787.549ZM13.37,28.107A3.139,3.139,0,0,0,12.5,26a2.594,2.594,0,0,0-.826-.525,2.377,2.377,0,0,0-.928-.159A2.312,2.312,0,0,0,9.33,25.8a1.74,1.74,0,0,0-.573.855,1.773,1.773,0,0,0,.014,1.039A2.484,2.484,0,0,0,10.5,29.253a2.629,2.629,0,0,0,.927.049A3.143,3.143,0,0,0,13.37,28.107ZM6.072,37a3.489,3.489,0,0,0,2.27-1.2,3.488,3.488,0,0,0-1.133-2.3,3.583,3.583,0,0,0-.98-.6,3.31,3.31,0,0,0-1.086-.24,2.841,2.841,0,0,0-1.836.47,1.7,1.7,0,0,0-.607.8,1.649,1.649,0,0,0-.027.993A2.761,2.761,0,0,0,3.8,36.386a3.287,3.287,0,0,0,1.063.5A3.568,3.568,0,0,0,6.071,37Zm14.146,2.6a.347.347,0,0,1-.018.056,1.166,1.166,0,0,0,.728,1.43.347.347,0,0,1,.056.018,1.163,1.163,0,1,0-.767-1.5ZM70.307,57.943l.265-.645.645.265-.265.645Zm-5.153-2.126.265-.645.645.265-.265.645Zm1.289.532.265-.645.645.265-.265.645Zm1.289.532L68,56.237l.645.265-.265.645Zm1.289.532.265-.645.645.265-.265.645Zm-26,19.314.594-.364.364.594-.594.364ZM22.1,42.549l.183.3.594-.364-.183-.3Zm.547.893.594-.364.364.594-.594.364Zm.728,1.189.594-.364.364.594-.594.364ZM24.1,45.82l.594-.364.364.594-.594.364Zm.728,1.189.594-.364.364.594-.594.364Zm.728,1.189.594-.364.364.594-.594.364Zm.728,1.189.594-.364.364.594-.594.364Zm.728,1.189.594-.364.364.594-.594.364Zm.728,1.189.594-.364.364.594-.594.364Zm.728,1.189.594-.364.364.594-.594.364Zm.728,1.189.594-.364.364.594-.594.364Zm.728,1.189.594-.364.364.594-.594.364Zm.728,1.189.594-.364.364.594-.594.364Zm.728,1.189.594-.364.364.594-.594.364Zm.728,1.189.594-.364.364.594-.594.364Zm.728,1.189.594-.364.364.594-.594.364Zm.728,1.189.594-.364.364.594-.594.364Zm.728,1.189.594-.364.364.594-.594.364Zm.728,1.189.594-.364.364.594-.594.364Zm.728,1.189.594-.364.364.594-.594.364Zm.728,1.189.594-.364.364.594-.594.364Zm.728,1.189.594-.364.364.594-.594.364Zm.728,1.189.594-.364.364.594L38.295,69Zm.728,1.189.594-.364.364.594-.594.364Zm.728,1.189.594-.364.364.594-.594.364Zm.728,1.189.594-.364.364.594-.594.364Zm.728,1.189.594-.364.364.594-.594.364Zm.728,1.189.594-.364.364.594-.594.364Zm.728,1.189.594-.364.364.594-.594.364Zm3.126.917.593.365-.365.593-.593-.365ZM66.587,42.194l.593.365-.365.593-.593-.365Zm-.732,1.186.593.365-.365.593-.593-.365Zm-.732,1.186.593.365-.365.593-.593-.365Zm-.732,1.186.593.365-.365.593-.593-.365Zm-.732,1.186.593.365-.365.593-.593-.365Zm-.732,1.186.593.365-.365.593-.593-.365Zm-.732,1.186.593.365-.365.593-.593-.365ZM61.459,50.5l.593.365-.365.593-.593-.365Zm-.732,1.186.593.365-.365.593-.593-.365Zm-.732,1.186.593.365-.365.593-.593-.365Zm-.732,1.186.593.365-.365.593-.593-.365Zm-.732,1.186.593.365-.365.593-.593-.365ZM57.8,56.425l.593.365-.365.593-.593-.365Zm-.732,1.186.593.365-.365.593L56.7,58.2ZM56.332,58.8l.593.365-.365.593-.593-.365ZM55.6,59.982l.593.365-.365.593-.593-.365Zm-2.187,3.541-.3.487.593.365.3-.487Zm-.667,1.08.593.365-.365.593L52.38,65.2Zm-.732,1.186.593.365-.365.593-.593-.365Zm-.732,1.186.593.365-.365.593-.593-.365Zm-.732,1.186.593.365-.365.593-.593-.365Zm-.732,1.186.593.365-.365.593-.593-.365Zm-.732,1.186.593.365-.365.593-.593-.365Zm-.732,1.186.593.365-.365.593-.593-.365ZM47.618,72.9l.593.365-.365.593-.593-.365Zm-.732,1.186.593.365-.365.593-.593-.365Zm-.732,1.186.593.365-.365.593-.593-.365ZM21.349,43.7l-.658.229-.229-.658.658-.229Zm7.8,22.373L28.5,66.3l-.229-.658.658-.229Zm-.46-1.316-.658.229-.229-.658.658-.229Zm-.46-1.316-.658.229-.229-.658.658-.229Zm-.46-1.316-.658.229-.229-.658.658-.229Zm-.46-1.316-.658.229-.229-.658.658-.229Zm-.46-1.316-.658.229-.229-.658.658-.229Zm-.46-1.316-.658.229-.229-.658.658-.229Zm-.46-1.316-.658.229-.229-.658.658-.229Zm-.46-1.316-.658.229-.229-.658.658-.229Zm-.46-1.316-.658.229-.229-.658.658-.229Zm-.46-1.316-.658.229-.229-.658.658-.229Zm-.46-1.316-.658.229-.229-.658.658-.229Zm-.46-1.316-.658.229-.229-.658.658-.229Zm-.46-1.316-.658.229-.229-.658.658-.229Zm-.46-1.316-.658.229-.229-.658.658-.229Zm-.46-1.316-.658.229-.229-.658.658-.229ZM21.8,45.01l-.658.229-.229-.658.658-.229Zm46.812-1.448-.664-.211.211-.664.664.211Zm-7.5,23.694.14-.438-.664-.211-.14.438Zm.349-1.1-.664-.211.211-.664.664.211Zm.42-1.328-.664-.211.211-.664.664.211Zm.42-1.328-.664-.211.211-.664.664.211Zm.42-1.328-.664-.211.211-.664.664.211Zm.42-1.328-.664-.211.211-.664.664.211Zm.42-1.328L62.9,59.3l.211-.664.664.211Zm.42-1.328-.664-.211.211-.664.664.211Zm.42-1.328-.664-.211.211-.664.664.211Zm.42-1.328-.664-.211.211-.664.664.211Zm.42-1.328-.664-.211.211-.664.664.211Zm.42-1.328L65,52.658l.211-.664.664.211Zm.42-1.328-.664-.211.211-.664.664.211Zm.42-1.328L65.842,50l.211-.664.664.211Zm.42-1.328-.664-.211.211-.664.664.211Zm.42-1.328-.664-.211.211-.664.664.211Zm.42-1.328-.664-.211.211-.664.664.211Zm.42-1.328-.664-.211.211-.664.664.211ZM28.753,25.676l-.564.409-.409-.564.564-.409ZM58.334,66.658l-.132-.185-.567.4.132.185Zm-.535-.752-.567.4-.4-.567.567-.4ZM56.99,64.77l-.567.4-.4-.567.567-.4Zm-.808-1.136-.567.4-.4-.567.567-.4ZM55.374,62.5l-.567.4-.4-.567.567-.4Zm-.808-1.136-.567.4-.4-.567.567-.4Zm-.808-1.136-.567.4-.4-.567.567-.4Zm-.808-1.136-.567.4-.4-.567.567-.4Zm-.808-1.136-.567.4-.4-.567.567-.4Zm-.808-1.136-.567.4-.4-.567.567-.4Zm-.808-1.136-.567.4-.4-.567.567-.4Zm-.808-1.136-.567.4-.4-.567.567-.4Zm-.808-1.136-.567.4-.4-.567.567-.4Zm-7.04-9.7-.564.409-.409-.564.564-.409Zm-.819-1.128-.564.409-.409-.564.564-.409Zm-.819-1.128-.564.409-.409-.564.564-.409Zm-.819-1.128-.564.409-.409-.564L39,39.761ZM38.592,39.2l-.564.409-.409-.564.564-.409Zm-.819-1.128-.564.409-.409-.564.564-.409Zm-.819-1.128-.564.409-.409-.564.564-.409Zm-.819-1.128-.564.409-.409-.564.564-.409Zm-.819-1.128-.564.409-.409-.564.564-.409ZM34.5,33.556l-.564.409-.409-.564.564-.409Zm-.819-1.128-.564.409-.409-.564.564-.409ZM32.86,31.3l-.564.409-.409-.564.564-.409Zm-.819-1.128-.564.409-.409-.564.564-.409Zm-.819-1.128-.564.409-.409-.564.564-.409ZM30.4,27.914l-.564.409-.409-.564.564-.409Zm-.819-1.128-.564.409-.409-.564.564-.409Zm32.628-.212-.554-.423.423-.554.554.423ZM31.305,67.039l.382-.522-.563-.412-.382.522Zm.793-1.083-.563-.412.412-.563.563.412Zm.823-1.124-.563-.412.412-.563.563.412Zm.823-1.124-.563-.412.412-.563.563.412Zm1.88-2.328.262-.343-.554-.423-.262.343Zm.685-.9-.554-.423.423-.554.554.423Zm.846-1.107-.554-.423.423-.554.554.423ZM38,58.269l-.554-.423.423-.554.554.423Zm.846-1.107-.554-.423.423-.554.554.423Zm.846-1.107-.554-.423.423-.554.554.423Zm.846-1.107-.554-.423.423-.554.554.423Zm.846-1.107-.554-.423.423-.554.554.423Zm7.385-9.669.325-.425-.554-.423-.325.425Zm.748-.978-.554-.423.423-.554.554.423Zm.846-1.107-.554-.423.423-.554.554.423Zm.846-1.107-.554-.423L51.084,40l.554.423Zm.846-1.107-.554-.423.423-.554.554.423Zm.846-1.107-.554-.423.423-.554.554.423Zm.846-1.107-.554-.423.423-.554.554.423Zm.846-1.107-.554-.423.423-.554.554.423Zm.846-1.107-.554-.423.423-.554.554.423Zm.846-1.107-.554-.423.423-.554.554.423Zm.846-1.107-.554-.423.423-.554.554.423Zm.846-1.107L57.43,31.7l.423-.554.554.423Zm.846-1.107-.554-.423.423-.554.554.423Zm.846-1.107-.554-.423.423-.554.554.423Zm.846-1.107-.554-.423.423-.554.554.423Zm.846-1.107-.554-.423.423-.554.554.423Zm5.2,10.132.39-.578.578.39-.39.578Zm-19.69-13.09.382-.584.584.382-.382.582-.584-.382Zm1.166.763.382-.584.582.382-.382.582-.584-.382Zm1.166.763.382-.584.584.382-.382.584-.582-.382Zm1.166.763.382-.584.584.382-.382.584Zm1.166.763.382-.584.582.382-.382.584Zm1.166.763.382-.584.582.382-.382.584Zm1.166.763.382-.584.582.382-.382.584Zm1.166.763.382-.584.582.382-.382.584Zm1.166.763.382-.584.582.382-.382.584Zm2.275,1.524.39-.578.578.39-.39.578Zm1.156.779.39-.578.578.39-.39.578Zm1.156.779.39-.578.578.39-.39.578Zm1.156.779.39-.578.578.39-.39.578Zm1.156.779.39-.578.578.39-.39.578Zm1.156.779.39-.578.578.39-.39.578Zm1.156.779.39-.578.578.39-.39.578Zm-41.284.077.42.555-.555.42-.42-.555ZM41.645,23.865l-.543.411.42.555.543-.411Zm-1.1.831.42.555-.555.42-.42-.555Zm-1.112.842.42.555-.555.42-.42-.555Zm-1.112.842.42.555-.555.42-.42-.555Zm-1.112.842.42.555-.555.42-.42-.555Zm-1.112.842.42.555-.555.42-.42-.555Zm-1.112.842.42.555-.555.42-.42-.555Zm-1.112.842.42.555-.555.42-.42-.555ZM30.8,32.074l.42.555-.555.42-.42-.555Zm-1.112.842.42.555-.555.42-.42-.555Zm-1.112.842.42.555-.555.42-.42-.555Zm-1.112.842.42.555-.555.42-.42-.555Zm-1.112.842.42.555-.555.42-.42-.555Zm-1.112.842.42.555-.555.42-.42-.555Zm48.9,21.572c-.014-.006-.027-.014-.041-.021a1.177,1.177,0,0,0-.323-.1,1.165,1.165,0,0,0-1.124,1.836h0a1.147,1.147,0,0,0,.208.22.53.53,0,0,1,.124.089,1.186,1.186,0,0,0,.428.158,1.162,1.162,0,0,0,.867-.209h0a1.164,1.164,0,0,0,.256-1.627h0a1.166,1.166,0,0,0-.394-.344Zm9.809-15.088a3.139,3.139,0,0,0-.872,2.108,3.139,3.139,0,0,0,1.944,1.2,2.577,2.577,0,0,0,.98-.062,2.365,2.365,0,0,0,.842-.416,2.32,2.32,0,0,0,.86-1.219,1.752,1.752,0,0,0-.039-1.031,1.775,1.775,0,0,0-.619-.831,2.341,2.341,0,0,0-1.451-.428,2.377,2.377,0,0,0-.869.18,2.617,2.617,0,0,0-.776.5Zm-8.21-1.236a8.436,8.436,0,0,1,3.482-.135,6.22,6.22,0,0,0,.787-.549,3.189,3.189,0,0,0,.619-.661,6.682,6.682,0,0,0,.8-3.248c.018-.253.038-.507.062-.755-.165-.187-.328-.379-.491-.573a6.715,6.715,0,0,0-2.534-2.147l-.018-.006a3.192,3.192,0,0,0-.931-.177,6.785,6.785,0,0,0-1.055.035,8.9,8.9,0,0,1-2.8,1.821,10.338,10.338,0,0,0-2.616,1.62,3.883,3.883,0,0,0-.619.763,3.045,3.045,0,0,0-.15.273,2.238,2.238,0,0,1,.446.171,2.276,2.276,0,0,1,1.133,1.327h0a2.275,2.275,0,0,1-.136,1.738,2.248,2.248,0,0,1-.191.311,3.732,3.732,0,0,0,.83.323,4.773,4.773,0,0,0,1.539.129c.6-.042,1.228-.15,1.846-.256ZM78.5,26a3.139,3.139,0,0,0-.872,2.108,3.139,3.139,0,0,0,1.944,1.2,2.594,2.594,0,0,0,.927-.049A2.484,2.484,0,0,0,82.23,27.7a1.785,1.785,0,0,0,.014-1.039,1.74,1.74,0,0,0-.573-.855,2.312,2.312,0,0,0-1.413-.482,2.377,2.377,0,0,0-.928.159A2.568,2.568,0,0,0,78.5,26Zm4.154,9.8a3.486,3.486,0,0,0,2.27,1.2,3.565,3.565,0,0,0,1.209-.112,3.319,3.319,0,0,0,1.063-.5,2.767,2.767,0,0,0,1.125-1.463,1.65,1.65,0,0,0-.027-.993,1.711,1.711,0,0,0-.607-.8,2.838,2.838,0,0,0-1.836-.47,3.31,3.31,0,0,0-1.086.24,3.583,3.583,0,0,0-.98.6,3.491,3.491,0,0,0-1.133,2.3ZM70.8,39.657a.346.346,0,0,1-.018-.056,1.166,1.166,0,1,0-.767,1.5.347.347,0,0,1,.056-.018,1.166,1.166,0,0,0,.728-1.43ZM61.161,83.795a3.138,3.138,0,0,0-2.276-.177,3.145,3.145,0,0,0-.534,2.22,2.576,2.576,0,0,0,.362.911,2.342,2.342,0,0,0,.654.672,2.311,2.311,0,0,0,1.429.441,1.728,1.728,0,0,0,.968-.356,1.78,1.78,0,0,0,.6-.846,2.329,2.329,0,0,0-.042-1.51,2.359,2.359,0,0,0-.438-.772A2.588,2.588,0,0,0,61.161,83.795ZM59.8,75.6A8.392,8.392,0,0,1,61,78.875a6.314,6.314,0,0,0,.763.578,3.207,3.207,0,0,0,.828.385,6.689,6.689,0,0,0,3.335-.241c.246-.061.49-.12.734-.174.127-.215.259-.429.393-.645a6.659,6.659,0,0,0,1.26-3.1h0a3.24,3.24,0,0,0-.12-.934,6.808,6.808,0,0,0-.356-.99,8.938,8.938,0,0,1-2.6-2.1,10.277,10.277,0,0,0-2.349-1.987,3.876,3.876,0,0,0-.916-.355c-.1-.024-.206-.044-.308-.058a2.291,2.291,0,0,1-.936,1.965,2.266,2.266,0,0,1-1.7.4,2.415,2.415,0,0,1-.355-.085,3.8,3.8,0,0,0-.05.89,4.751,4.751,0,0,0,.352,1.5c.226.558.522,1.122.813,1.677ZM75.42,73.435a3.138,3.138,0,0,0-2.276-.177,3.145,3.145,0,0,0-.534,2.22,2.6,2.6,0,0,0,.334.864,2.4,2.4,0,0,0,.6.658,2.341,2.341,0,0,0,1.422.507,1.79,1.79,0,0,0,.992-.308,1.735,1.735,0,0,0,.635-.811,2.32,2.32,0,0,0,.021-1.5,2.357,2.357,0,0,0-.437-.831,2.582,2.582,0,0,0-.754-.625Zm-8.037,6.979a3.488,3.488,0,0,0-.437,2.533,3.577,3.577,0,0,0,.481,1.115,3.292,3.292,0,0,0,.805.855,2.768,2.768,0,0,0,1.742.617,1.64,1.64,0,0,0,.934-.332,1.711,1.711,0,0,0,.57-.823,2.836,2.836,0,0,0-.12-1.89,3.343,3.343,0,0,0-.563-.96,3.567,3.567,0,0,0-.869-.749,3.5,3.5,0,0,0-2.543-.365Zm-8.171-9.892a1.167,1.167,0,1,0-.76-.466A1.16,1.16,0,0,0,59.212,70.522ZM43.357,79.773a1.167,1.167,0,1,0,.209-.867A1.167,1.167,0,0,0,43.357,79.773ZM16.971,75.466a3.137,3.137,0,0,0-.534-2.22,3.13,3.13,0,0,0-2.276.177,2.606,2.606,0,0,0-.754.625,2.357,2.357,0,0,0-.437.831,2.32,2.32,0,0,0,.021,1.5,1.735,1.735,0,0,0,.635.811,1.781,1.781,0,0,0,.992.308,2.463,2.463,0,0,0,2.018-1.165,2.607,2.607,0,0,0,.334-.864Zm7.37-3.828A8.449,8.449,0,0,1,21.6,73.8a6.293,6.293,0,0,0-.314.9,3.213,3.213,0,0,0-.112.89V75.6a6.659,6.659,0,0,0,1.26,3.1c.133.215.265.429.393.645.244.055.488.114.734.174a6.7,6.7,0,0,0,3.333.243h0a3.163,3.163,0,0,0,.857-.4,6.91,6.91,0,0,0,.833-.645,8.91,8.91,0,0,1,1.193-3.121,10.349,10.349,0,0,0,1.165-2.85A3.918,3.918,0,0,0,31,71.763a2.871,2.871,0,0,0-.039-.309,2.212,2.212,0,0,1-.46.123A2.272,2.272,0,0,1,27.9,69.683a2.251,2.251,0,0,1-.029-.364,3.828,3.828,0,0,0-.863.227,4.761,4.761,0,0,0-1.321.8C25.218,70.739,24.775,71.192,24.341,71.638Zm6.889,14.188a3.137,3.137,0,0,0-.534-2.22,3.13,3.13,0,0,0-2.276.177,2.611,2.611,0,0,0-.72.582,2.387,2.387,0,0,0-.438.772,2.329,2.329,0,0,0-.042,1.51,1.773,1.773,0,0,0,.6.846,1.755,1.755,0,0,0,.968.356,2.465,2.465,0,0,0,2.082-1.113A2.593,2.593,0,0,0,31.231,85.827Zm-9.12-5.487a3.5,3.5,0,0,0-2.543.365,3.572,3.572,0,0,0-.913.8,3.316,3.316,0,0,0-.563,1.031,2.77,2.77,0,0,0-.05,1.846,1.643,1.643,0,0,0,.6.787,1.688,1.688,0,0,0,.96.288,2.834,2.834,0,0,0,1.761-.7,3.331,3.331,0,0,0,.739-.831,3.6,3.6,0,0,0,.443-1.059,3.5,3.5,0,0,0-.437-2.533Zm6.883-10.829a1.167,1.167,0,0,0,1.333.969,1.154,1.154,0,0,0,.745-.447c.009-.014.018-.026.029-.039a1.161,1.161,0,0,0-.252-1.592l-.039-.029a1.165,1.165,0,0,0-1.817,1.137ZM27.337,22.032a1.216,1.216,0,0,0-1.692,0,1.15,1.15,0,0,0,0,1.641,1.216,1.216,0,0,0,1.692,0,1.15,1.15,0,0,0,.191-1.394c0-.008-.011-.017-.015-.026h0A1.241,1.241,0,0,0,27.337,22.032ZM51.573,10a3.18,3.18,0,0,0,1.774,1.485A3.185,3.185,0,0,0,55.122,10a2.546,2.546,0,0,0,.246-.946A2.451,2.451,0,0,0,54.332,6.94,1.805,1.805,0,0,0,53.3,6.648a1.845,1.845,0,0,0-1.018.343,2.343,2.343,0,0,0-.854,1.237,2.3,2.3,0,0,0-.1.88,2.559,2.559,0,0,0,.241.893ZM47.82,17.432a8.339,8.339,0,0,1,.961-3.353,6.26,6.26,0,0,0-.281-.916,3.157,3.157,0,0,0-.45-.8h0A6.815,6.815,0,0,0,45.165,10.6c-.241-.1-.481-.193-.716-.294-.235.1-.475.2-.716.294a6.862,6.862,0,0,0-2.874,1.749l-.011.015a3.235,3.235,0,0,0-.464.833,6.6,6.6,0,0,0-.3,1.008,8.848,8.848,0,0,1,.881,3.226,10.222,10.222,0,0,0,.743,2.986,3.937,3.937,0,0,0,.541.826c.074.085.15.164.227.238a2.37,2.37,0,0,1,.312-.382,2.318,2.318,0,0,1,3.251,0,2.353,2.353,0,0,1,.249.288,3.819,3.819,0,0,0,.584-.7,4.713,4.713,0,0,0,.607-1.419c.149-.587.241-1.218.334-1.836ZM33.668,10a3.18,3.18,0,0,0,1.774,1.485A3.185,3.185,0,0,0,37.217,10a2.559,2.559,0,0,0,.241-.893,2.455,2.455,0,0,0-.952-2.117,1.841,1.841,0,0,0-1.018-.343,1.805,1.805,0,0,0-1.028.291,2.451,2.451,0,0,0-1.036,2.117,2.547,2.547,0,0,0,.246.946ZM44.45,9.085a3.526,3.526,0,0,0,1.879-1.794A3.482,3.482,0,0,0,46.6,6.11a3.269,3.269,0,0,0-.152-1.166A2.774,2.774,0,0,0,45.4,3.43a1.711,1.711,0,0,0-.986-.291,1.755,1.755,0,0,0-.978.343,2.835,2.835,0,0,0-1.019,1.589A3.267,3.267,0,0,0,42.3,6.178a3.536,3.536,0,0,0,.267,1.113,3.526,3.526,0,0,0,1.879,1.794Zm.819,12.808a1.216,1.216,0,0,0-1.692,0,1.15,1.15,0,0,0,0,1.641,1.216,1.216,0,0,0,1.692,0,1.15,1.15,0,0,0,0-1.641Z"/>
    </g>
  </g>
</svg>
