<svg xmlns="http://www.w3.org/2000/svg" width="33" height="22" viewBox="0 0 33 22"><defs><style>.a{fill:#1f1035;}.b{fill:#2b2b2b;}.c{fill:#fff;}.d{fill:none;stroke:#2b2b2b;}</style></defs><title>unchecked</title><path class="a" d="M22,23H11A10.5,10.5,0,0,1,11,2H22a10.5,10.5,0,0,1,0,21Z" transform="translate(0 -1.5)"/><path class="b" d="M11,2.5a10,10,0,0,0,0,20H22a10,10,0,0,0,0-20H11m0-1H22a11,11,0,0,1,0,22H11a11,11,0,0,1,0-22Z" transform="translate(0 -1.5)"/><circle class="c" cx="11" cy="11" r="11"/><circle class="d" cx="11" cy="11" r="10.5"/></svg>