<svg xmlns="http://www.w3.org/2000/svg" width="17.481" height="15.04186" viewBox="0 0 17.481 15.04186">
  <defs>
    <style>
      .a {
        fill: #ffe717;
      }

      .b {
        isolation: isolate;
      }

      .c {
        fill: #fff;
      }
    </style>
  </defs>
  <g>
    <path class="a" d="M7.885.489a1,1,0,0,1,1.72,0l7.74,13.041a1,1,0,0,1-.857,1.511H1.002A1,1,0,0,1,.145,13.53Z" transform="translate(-0.00457 0.00088)"/>
    <g class="b">
      <g class="b">
        <path class="c" d="M8.01025,11.85645a.86132.86132,0,0,1-.2749-.64551.83838.83838,0,0,1,.26953-.63477,1.06191,1.06191,0,0,1,1.38037,0,.83878.83878,0,0,1,.27.63477.86174.86174,0,0,1-.27539.64551,1.01838,1.01838,0,0,1-1.36963,0ZM7.76514,5.041H9.625L9.31494,9.61133H8.0752Z" transform="translate(-0.00457 0.00088)"/>
      </g>
    </g>
  </g>
</svg>
